<svg preserveAspectRatio="none" width="100%" height="100%" overflow="visible" style="display: block;" viewBox="0 0 1510.31 1620.84" fill="none" xmlns="http://www.w3.org/2000/svg">
<g id="Vector" filter="url(#filter0_f_0_73)">
<path d="M894.781 1454.16C891.7 1443.56 893.24 1433.47 888.62 1422.87C883.486 1410.25 873.219 1393.59 860.898 1387.03C846.524 1379.46 840.363 1389.05 830.096 1376.43C821.882 1366.34 817.262 1353.72 808.535 1343.63C799.807 1333.53 790.567 1323.44 781.839 1313.35C774.139 1304.26 757.711 1294.67 756.171 1283.06C754.631 1269.94 772.085 1261.87 763.871 1251.27C759.251 1244.71 738.203 1242.18 730.502 1239.66C716.128 1234.11 702.781 1224.52 688.92 1217.96C674.032 1210.89 657.604 1204.83 643.23 1196.76C616.021 1181.62 589.839 1166.48 562.631 1151.84C535.936 1137.71 511.294 1118.02 483.059 1108.43C469.711 1103.89 463.037 1096.83 452.77 1089.26C441.476 1080.17 436.855 1075.12 436.855 1059.98L438.395 1056.95C445.583 1059.98 467.658 1062 471.251 1058.97C477.412 1053.93 471.251 1046.36 470.738 1041.31C470.738 1031.21 468.684 1033.23 477.412 1024.15C477.412 1023.14 476.385 1022.63 475.358 1022.63C507.7 997.399 473.305 1011.03 466.631 987.305C481.005 987.305 493.326 993.866 508.214 992.352C522.588 990.838 535.936 989.829 550.823 990.838C564.684 992.352 579.059 990.838 592.92 992.352C606.267 993.866 618.588 1001.44 631.936 998.913C649.39 995.885 646.823 978.22 662.738 969.136C669.925 965.098 678.139 963.079 684.299 958.537C694.567 950.461 692.513 950.461 685.839 942.891C675.059 931.283 652.984 921.188 682.759 912.608C697.133 908.571 710.481 915.132 724.342 916.646C752.064 918.665 731.016 898.981 725.369 886.364C722.802 879.802 723.829 872.232 720.748 867.185C716.642 861.633 704.834 855.576 698.674 853.053C681.732 845.482 660.684 847.501 643.23 840.94C616.021 830.846 637.583 824.285 650.417 817.724C649.903 805.611 649.903 803.592 638.609 799.554C631.422 797.031 621.668 795.012 614.481 794.507C600.62 794.002 571.358 803.592 581.625 778.861C587.272 764.729 608.321 758.168 620.641 751.102C635.016 742.522 655.551 737.475 641.69 721.829C622.182 699.622 587.273 685.49 560.064 676.91C544.15 671.359 529.262 664.293 512.321 667.826C498.46 670.349 482.032 675.396 469.198 679.939C457.39 684.481 439.936 692.556 430.182 699.622C415.807 710.221 409.647 728.895 395.786 737.98C397.326 721.325 380.385 719.306 371.658 709.212C361.39 696.594 361.39 693.566 343.422 690.537C331.101 688.519 319.294 685.995 306.973 684.986C293.625 684.481 282.845 688.014 273.091 676.91C261.797 665.302 258.203 647.133 247.422 634.515C236.641 621.897 225.347 609.28 214.053 597.167C207.379 590.101 180.684 579.502 178.631 573.446C176.577 566.884 194.032 539.125 199.166 533.574C207.379 525.498 237.155 514.395 208.406 509.852C199.166 508.338 166.31 515.404 180.171 496.73C190.438 483.608 219.7 494.207 226.887 480.075C231.508 470.99 216.107 445.25 210.973 439.194C209.433 447.774 201.732 452.821 192.492 450.802C194.032 429.099 179.144 412.949 162.203 401.341C160.149 411.435 163.23 426.071 163.743 437.679C163.743 448.783 150.395 476.542 138.075 460.391C136.535 458.372 135.508 443.736 133.968 440.203C131.914 434.146 130.887 426.071 127.294 421.024C117.54 406.892 108.299 401.845 91.358 397.808C89.8179 387.209 91.358 379.638 85.711 370.553C79.0372 360.459 67.7431 351.879 59.5292 342.795C51.3153 333.205 42.588 323.616 32.834 315.036C25.6468 308.475 10.7591 303.427 8.19226 293.333C5.11205 281.725 17.4329 273.145 18.973 263.556C22.0532 246.9 21.0265 249.929 37.9677 240.339C50.8019 233.273 53.8821 225.198 59.5292 213.085C63.6361 204 74.9302 194.411 72.8768 183.812C99.0586 188.859 122.16 202.486 147.829 209.047C158.609 212.076 179.144 216.113 187.358 223.684C203.272 238.32 178.117 250.938 184.791 262.042C186.845 266.079 219.187 269.107 223.807 266.079C233.048 260.527 224.834 257.499 227.914 250.433C231.508 240.844 233.561 247.405 241.262 241.349C251.529 233.778 241.262 220.151 247.936 209.047C254.609 198.448 274.631 200.972 286.952 199.963C287.465 188.354 286.952 176.241 286.952 164.128C297.219 167.661 314.16 177.755 321.861 185.326C330.588 193.401 329.561 210.057 343.422 213.59C361.39 218.132 376.278 175.232 379.358 159.586C397.839 170.185 416.321 186.84 425.561 205.514C429.668 213.59 427.101 229.236 440.962 227.217C448.149 226.207 458.93 208.543 463.551 202.486C475.358 186.84 485.112 159.081 505.133 152.015C538.502 139.902 521.561 169.68 528.235 186.84C550.31 185.831 568.791 193.401 584.706 173.718C590.353 167.157 590.353 152.52 598.053 148.482C606.267 144.445 618.588 152.015 626.289 151.006C637.069 149.492 640.663 145.454 646.823 137.884C651.444 131.322 661.711 124.761 666.331 117.191C670.952 110.125 669.925 98.0118 673.518 89.9365C678.139 79.3377 686.353 76.8142 693.54 68.2341C706.374 53.0929 712.021 47.0365 732.556 41.9894C745.39 38.9612 773.625 44.0082 783.893 35.4282C791.08 29.3717 783.893 18.7729 790.053 11.707C796.214 4.64109 803.914 8.17404 809.561 12.7164C815.722 17.7635 816.748 28.3623 824.449 31.3905C831.123 33.9141 840.363 28.867 846.524 31.3905C860.385 37.9517 851.657 59.1494 856.278 70.7577C863.465 89.9365 870.139 87.413 888.107 90.9459C906.588 94.4789 906.075 110.125 920.962 115.677C926.609 117.695 934.31 115.677 940.47 117.191C945.091 118.2 948.684 122.238 953.818 123.752L952.278 128.294C960.492 130.313 980.513 134.351 978.973 121.733C978.46 121.733 976.92 121.733 977.433 121.733C978.46 115.172 978.46 111.134 976.406 106.087C997.968 105.078 1014.91 107.097 1034.93 112.648C1034.93 122.238 1028.26 136.874 1042.12 138.893C1051.36 139.902 1063.68 126.275 1072.92 123.247C1089.86 117.695 1091.91 123.247 1105.26 131.322C1117.58 138.388 1127.34 137.884 1140.17 135.36C1157.11 131.322 1156.09 136.37 1170.97 144.95C1185.86 153.53 1192.53 159.081 1170.97 163.624C1159.17 165.643 1141.71 170.185 1138.63 184.317C1135.55 198.953 1154.03 192.392 1160.19 205.514C1139.66 203.496 1121.69 226.712 1111.94 241.853C1105.26 252.452 1096.02 258.004 1104.24 269.612C1108.86 276.173 1123.74 286.267 1130.93 289.8C1141.71 294.847 1164.81 296.866 1160.19 314.026C1158.14 321.597 1149.41 325.13 1146.84 333.205C1144.79 341.28 1146.84 346.328 1152.49 350.87C1161.73 357.936 1180.21 357.936 1191.51 363.992C1206.4 371.563 1199.21 385.695 1216.15 389.228C1223.85 390.742 1231.55 387.209 1237.71 394.779C1241.82 399.322 1239.76 406.388 1242.33 411.939C1249.52 425.566 1269.03 430.614 1281.86 435.661C1289.05 438.184 1296.24 439.698 1301.88 443.736C1311.64 450.802 1304.96 452.821 1309.58 460.896C1319.34 476.037 1336.28 450.802 1348.6 455.344C1347.57 460.391 1345.52 465.943 1346.03 470.99C1360.92 466.952 1374.78 464.429 1389.15 460.391C1402.5 456.354 1417.39 449.792 1431.76 448.783C1437.41 448.783 1446.14 448.783 1451.27 450.297C1464.11 454.839 1455.38 456.858 1462.05 464.429C1471.29 475.532 1491.32 469.981 1502.61 473.514C1500.56 481.084 1492.86 485.122 1489.26 492.692C1486.18 498.749 1486.18 507.329 1481.05 511.871C1472.83 518.432 1448.19 517.423 1437.92 517.423C1439.46 510.862 1444.09 500.768 1450.76 497.235C1434.33 505.815 1424.06 497.74 1416.36 516.918C1408.66 535.593 1406.1 533.069 1385.56 530.545C1385.56 545.182 1368.62 562.847 1366.57 540.64C1348.6 553.762 1323.44 564.361 1315.23 587.577C1307.02 611.299 1334.74 629.973 1303.42 639.562C1290.59 643.095 1282.89 646.123 1273.13 637.543C1263.89 629.468 1265.43 619.879 1250.03 631.487C1236.68 641.581 1238.74 645.114 1221.8 639.057C1212.04 636.029 1202.8 628.459 1192.53 627.449C1195.1 634.01 1200.75 640.067 1199.21 647.637C1182.78 637.039 1162.25 618.869 1139.66 621.897C1147.36 628.963 1163.27 642.086 1160.71 652.18C1158.65 661.264 1147.87 654.703 1154.03 665.302C1156.6 669.844 1164.81 668.33 1167.38 674.892C1171.49 683.472 1165.33 698.108 1165.84 707.697C1166.87 720.315 1180.21 725.362 1179.19 736.466C1169.95 737.475 1157.63 730.409 1149.41 732.933C1139.14 735.961 1140.68 747.065 1138.63 756.654C1134.52 776.842 1127.85 795.516 1120.66 815.2C1117.07 825.799 1112.45 837.912 1101.15 842.454C1090.89 846.492 1080.62 839.426 1070.87 840.94C1054.95 843.968 1038.52 871.727 1031.85 885.354V889.897C1024.66 914.123 1004.64 894.439 990.267 896.458C977.433 897.972 969.732 923.207 965.112 935.32C962.032 942.386 965.112 950.966 962.032 958.032C958.952 965.603 950.224 968.126 947.144 975.697C942.01 988.819 951.764 1004.97 946.117 1017.08C938.93 1031.72 920.449 1033.74 924.556 1054.43C926.096 1062.51 933.797 1068.06 932.77 1077.14C931.23 1088.75 925.583 1084.21 919.422 1089.76C906.588 1101.37 915.315 1113.99 917.882 1128.62C923.529 1158.91 901.454 1136.19 886.053 1138.72C868.085 1141.75 871.679 1165.97 878.866 1176.07C889.133 1189.19 904.535 1197.26 917.882 1205.84C886.567 1212.91 922.502 1244.2 928.663 1259.34C933.283 1270.45 935.85 1278.52 943.551 1288.61C951.764 1300.22 952.278 1312.34 958.438 1324.45C963.059 1318.39 961.005 1309.31 967.679 1303.76C982.567 1321.42 991.807 1344.64 1010.8 1356.75C1020.56 1362.3 1030.31 1366.84 1039.04 1373.91C1047.25 1379.97 1054.95 1394.6 1064.19 1396.12C1066.25 1384 1078.57 1390.57 1083.7 1397.13C1089.35 1405.2 1088.83 1413.78 1095.51 1422.87C1102.69 1432.46 1107.83 1433.47 1098.07 1445.07C1091.4 1453.15 1084.21 1453.65 1083.7 1466.78C1083.7 1482.42 1100.13 1504.12 1108.86 1516.74C1120.66 1534.41 1138.63 1550.56 1153.52 1564.18L1149.41 1575.79L1064.71 1605.57C1064.71 1605.57 1064.19 1610.62 1064.71 1613.14C1030.82 1587.91 1002.59 1554.6 968.192 1528.35C954.845 1518.26 884 1470.31 889.647 1457.19H892.214L894.781 1454.16Z" fill="var(--fill-0, #DA251D)" fill-opacity="0.09"/>
</g>
<defs>
<filter id="filter0_f_0_73" x="1.43929e-08" y="5.56749e-08" width="1510.31" height="1620.84" filterUnits="userSpaceOnUse" color-interpolation-filters="sRGB">
<feFlood flood-opacity="0" result="BackgroundImageFix"/>
<feBlend mode="normal" in="SourceGraphic" in2="BackgroundImageFix" result="shape"/>
<feGaussianBlur stdDeviation="3.85" result="effect1_foregroundBlur_0_73"/>
</filter>
</defs>
</svg>
