<svg preserveAspectRatio="none" width="100%" height="100%" overflow="visible" style="display: block;" viewBox="0 0 1305.2 2345.37" fill="none" xmlns="http://www.w3.org/2000/svg">
<path id="Vector" d="M11.3483 1850.76L9.8082 1840.66C23.1558 1838.65 34.9633 1830.07 47.7975 1826.53C63.1986 1821.99 81.6798 1832.08 94.5141 1822.5C103.241 1815.93 101.188 1806.34 105.808 1798.77C109.915 1792.72 120.183 1790.7 124.803 1783.63C129.937 1775.56 128.91 1767.99 134.044 1759.41C138.664 1751.84 147.391 1746.79 148.931 1738.71C133.017 1734.68 140.717 1718.53 151.498 1714.49C160.225 1711.46 177.166 1714.49 186.92 1714.49C197.701 1714.49 212.076 1716.51 222.856 1714.49C235.691 1711.96 239.798 1701.37 253.658 1699.85C265.979 1699.35 275.733 1703.89 287.027 1705.4C299.348 1707.42 306.536 1703.38 318.343 1700.86C335.284 1697.33 339.391 1700.86 350.685 1710.96C353.765 1712.97 349.145 1714.99 354.279 1717.52C356.332 1718.53 361.466 1717.52 364.033 1717.52C369.68 1718.02 375.84 1719.54 381.487 1719.03C380.461 1718.53 377.894 1713.98 375.327 1712.47C383.541 1702.38 397.915 1699.85 409.723 1702.88C419.477 1705.4 427.691 1714.99 437.958 1713.48C438.985 1706.41 433.338 1696.82 435.391 1689.76C439.498 1677.14 449.252 1684.21 456.439 1676.64C470.3 1660.99 433.338 1647.87 423.584 1642.32C408.182 1634.24 388.161 1627.68 373.787 1617.08C354.792 1602.44 366.086 1586.29 357.359 1569.64C351.712 1558.53 329.637 1562.07 336.311 1541.88C341.958 1524.21 356.332 1520.68 372.247 1520.18C379.947 1519.67 387.134 1521.19 393.808 1517.15C400.995 1513.61 403.049 1505.04 410.749 1502.51C423.07 1498.98 438.985 1511.09 451.819 1513.11C465.68 1515.13 481.081 1521.19 494.942 1522.2C499.562 1522.2 517.017 1520.18 519.584 1515.63C522.15 1510.59 514.963 1502.01 512.396 1497.46C506.236 1484.34 506.749 1473.24 506.749 1458.6C506.749 1437.91 508.29 1437.4 528.311 1437.4C541.659 1437.4 559.113 1440.43 570.921 1433.37C582.728 1426.3 592.482 1401.07 606.343 1399.05C610.963 1398.04 617.124 1406.11 625.338 1405.1C634.578 1404.6 637.145 1399.55 642.792 1394C654.6 1382.39 661.273 1371.29 676.161 1363.72C686.942 1358.17 710.044 1343.02 721.851 1343.53C733.658 1343.53 748.033 1366.24 760.867 1351.6C764.974 1347.57 762.921 1337.47 767.541 1331.92C773.188 1323.85 778.321 1324.35 786.535 1319.3C799.37 1311.23 799.883 1300.12 799.883 1285.49C799.883 1253.19 787.049 1229.97 774.215 1201.71C767.027 1185.56 762.407 1168.9 766.001 1151.24C769.081 1137.1 778.835 1123.98 783.969 1110.35C788.589 1096.73 793.723 1083.1 799.37 1069.47C806.043 1052.82 806.043 1041.21 804.503 1023.04C802.963 1008.91 801.423 995.786 795.263 983.168C792.182 976.607 778.322 961.466 782.942 957.933H783.455C777.808 945.315 777.808 940.773 762.92 935.221C762.407 913.519 762.921 891.817 759.84 870.619C757.787 856.992 749.573 855.478 747.006 841.346C744.439 828.728 743.926 819.139 753.68 811.063C764.974 801.979 773.701 803.997 776.781 787.342C778.835 775.734 779.862 763.621 777.808 752.013C776.268 741.414 774.215 731.32 771.134 721.226C767.541 710.122 760.867 700.533 767.027 688.42C771.134 692.457 779.862 707.599 784.482 706.589C793.723 705.075 782.942 687.915 780.888 682.868C776.268 673.783 774.215 664.194 765.487 656.119C763.434 654.1 758.3 653.09 754.707 649.557C749.06 644.51 745.466 641.482 746.493 633.911C748.546 614.228 768.568 626.845 779.862 617.761C783.969 614.733 790.642 604.134 794.749 599.591C801.936 590.002 786.535 563.757 774.215 551.644C763.434 540.036 758.3 515.305 744.953 507.23C733.145 500.669 716.717 500.669 705.423 494.108C691.049 486.032 698.749 470.386 691.049 458.273C684.375 447.675 667.947 431.019 675.134 416.383C680.268 404.27 697.723 411.84 710.043 410.326C710.043 402.251 707.99 391.147 716.717 386.1C723.904 382.063 735.712 388.624 743.926 384.586C757.273 377.52 759.327 345.724 754.707 331.592C750.086 333.106 743.412 338.658 738.792 339.163C729.038 339.667 731.605 334.621 725.958 330.078C714.15 322.003 704.396 330.078 695.669 322.003C693.616 319.984 692.589 312.918 690.022 311.404C686.942 309.385 685.402 312.918 682.322 311.404C675.134 308.376 674.108 311.404 667.434 304.338C658.193 294.244 662.3 282.636 647.412 277.084C636.632 273.046 623.284 278.598 613.53 274.056C603.263 269.513 593.509 252.858 590.428 242.764C587.862 232.165 590.428 215.005 572.974 224.594C562.193 231.156 565.787 242.259 563.733 252.858C560.653 269.009 547.819 276.075 532.418 265.98C518.557 256.896 524.204 241.754 514.963 229.641C509.316 222.576 504.183 224.09 505.723 212.481C506.236 205.92 512.396 197.845 514.963 191.788C520.61 177.657 524.717 162.011 526.257 147.374C527.284 136.775 530.364 107.503 523.177 98.4178C519.584 93.8755 506.236 90.3425 500.589 91.8566C493.402 93.8754 494.429 103.97 485.701 103.465C476.461 102.96 456.439 75.706 452.332 67.6307C448.225 58.0413 451.306 33.8153 443.092 29.7776L527.797 0C542.685 13.1224 556.033 23.7212 574.514 33.3106C590.429 41.3859 605.316 51.9847 620.717 60.06C636.632 68.1353 660.76 68.64 657.167 91.3518C654.6 106.998 648.439 95.3895 661.273 106.998C668.461 113.559 668.461 114.064 669.487 123.653C669.487 129.205 664.354 143.841 669.487 147.879C676.675 153.431 680.781 138.289 686.429 137.28C697.723 135.261 726.985 160.497 735.199 167.563C750.086 180.685 773.188 193.807 771.134 215.005C755.22 212.986 737.765 198.35 721.851 199.359C728.525 240.24 782.428 214.5 804.503 226.613C814.771 232.165 841.466 247.306 841.466 257.905C841.466 266.485 827.605 270.523 840.439 279.103C845.06 282.131 855.84 280.617 859.947 279.103C857.894 272.037 845.573 270.523 850.707 260.933C864.054 261.943 867.648 278.598 880.482 279.607C896.396 280.112 888.182 270.523 890.236 260.429C899.99 261.943 904.097 263.962 910.257 270.523C915.904 276.075 916.931 283.14 925.145 286.169C934.899 290.206 962.108 282.131 941.06 298.282C935.926 302.319 923.092 303.833 920.525 309.89C917.445 316.956 925.145 325.031 931.306 326.04C949.273 329.069 951.327 300.3 962.621 293.234C970.835 288.187 1003.18 295.758 997.017 308.88C995.477 312.918 979.562 315.946 975.455 319.479C970.835 323.517 967.755 331.087 967.241 336.639C965.701 354.809 986.236 359.856 990.343 372.473C992.396 378.53 987.263 386.605 990.343 393.671C992.91 399.728 999.584 402.251 1003.69 406.793C1018.58 423.449 1026.79 447.17 1035.52 466.349H1034.49C1039.63 472.91 1042.19 481.995 1048.87 486.032C1067.35 497.641 1057.59 474.929 1071.46 472.91C1084.8 470.891 1090.96 491.584 1090.45 500.669C1089.42 511.268 1080.7 523.381 1098.66 527.418C1100.72 517.829 1103.8 486.032 1122.79 497.136C1121.25 506.221 1113.55 512.782 1113.55 521.867C1113.55 530.951 1125.87 539.027 1128.44 547.102C1133.57 565.776 1112.52 577.889 1122.79 595.049C1128.44 604.134 1133.57 607.667 1137.17 618.77C1140.25 628.864 1144.87 636.435 1148.97 645.015C1160.27 668.231 1168.48 677.316 1195.69 681.354C1199.8 687.915 1201.34 694.476 1200.31 702.551C1198.77 713.15 1189.53 720.216 1188.5 728.796C1194.15 730.31 1200.31 732.834 1204.42 736.872C1212.63 745.956 1206.47 744.947 1205.44 753.022C1203.9 765.64 1206.98 778.257 1191.07 781.79C1193.64 797.436 1209.04 809.549 1210.06 826.709C1211.6 844.374 1204.42 841.851 1189.53 842.355C1201.34 856.487 1216.23 869.609 1223.93 885.76C1229.06 896.864 1246 917.052 1239.84 930.679C1234.19 925.632 1224.95 918.566 1223.93 909.986C1224.44 919.071 1220.85 927.146 1220.85 936.231C1220.85 946.829 1225.47 954.905 1229.06 963.99C1232.65 975.598 1235.22 986.701 1241.38 997.3C1247.54 1007.9 1253.7 1013.96 1252.16 1027.58C1241.38 1024.55 1229.06 1014.96 1220.33 1008.91C1218.28 1014.46 1216.74 1024.55 1220.33 1030.11C1224.44 1036.67 1233.17 1035.66 1236.76 1041.71C1243.43 1051.81 1238.81 1059.38 1232.14 1065.44H1232.65C1232.65 1065.44 1235.73 1065.44 1237.79 1064.93C1250.62 1062.41 1274.75 1063.42 1260.89 1080.58C1254.21 1089.16 1249.08 1087.14 1248.57 1099.76C1248.57 1109.35 1250.11 1111.36 1257.81 1115.4C1266.02 1119.44 1272.18 1114.9 1272.7 1125.5C1273.21 1134.08 1263.46 1135.59 1269.62 1144.17C1279.88 1157.29 1297.85 1142.15 1299.39 1164.36C1301.44 1192.12 1278.34 1169.41 1271.16 1187.07C1264.48 1203.73 1289.64 1213.31 1298.36 1221.39C1313.77 1236.03 1300.42 1251.17 1285.02 1236.03C1282.45 1233 1283.48 1229.47 1279.37 1226.94C1276.8 1224.92 1271.16 1228.46 1268.59 1226.94C1263.46 1223.91 1260.37 1216.85 1260.37 1211.3C1258.83 1230.98 1224.95 1236.03 1214.69 1246.12C1226.49 1264.29 1272.7 1271.36 1271.16 1297.6C1254.21 1293.56 1239.33 1287.51 1223.41 1278.93C1229.06 1292.55 1236.76 1317.28 1231.11 1330.91C1227.01 1341.01 1220.33 1341.51 1224.44 1354.13C1226.49 1362.2 1234.19 1371.79 1239.33 1378.35C1247.03 1389.46 1257.29 1396.02 1266.02 1406.11C1270.64 1411.66 1280.4 1435.39 1266.02 1433.87C1244.46 1431.85 1245.49 1380.37 1216.74 1384.91C1220.85 1391.48 1227.01 1398.54 1228.55 1406.62C1230.09 1418.73 1221.36 1420.75 1218.79 1430.34C1214.17 1450.02 1241.38 1452.04 1248.57 1467.69C1255.24 1482.32 1243.95 1498.47 1232.65 1507.56C1216.23 1520.18 1208.01 1505.03 1189.53 1507.56C1185.94 1533.8 1205.96 1563.58 1181.32 1586.8C1170.54 1596.89 1152.05 1593.36 1138.71 1599.42C1132.03 1601.94 1125.87 1603.45 1121.25 1609.51C1114.58 1618.09 1120.74 1620.11 1110.47 1623.14C1097.12 1626.67 1082.75 1621.12 1068.89 1627.68C1062.21 1630.71 1054 1637.77 1049.38 1643.32C1044.76 1649.89 1046.81 1656.45 1042.71 1662C1040.14 1665.03 1027.82 1668.06 1023.2 1672.6C1020.63 1675.63 1017.55 1676.64 1015.5 1680.17C1013.96 1682.19 1017.04 1687.23 1015.5 1689.25C1009.34 1696.82 997.53 1691.27 987.263 1690.77C981.616 1683.7 956.461 1687.74 950.814 1697.33C944.14 1708.94 947.733 1729.63 942.6 1743.26C932.332 1769.5 884.589 1779.6 858.407 1787.17C825.552 1796.25 794.236 1808.87 763.434 1821.99C749.573 1827.54 687.969 1877 680.268 1852.27C677.188 1842.18 689.509 1841.17 689.509 1835.62C690.022 1825.52 681.808 1829.56 676.674 1824.51C663.84 1812.91 678.728 1795.24 658.707 1787.67C646.899 1783.13 627.904 1790.7 619.69 1779.6C610.45 1766.98 621.231 1745.78 629.958 1736.19C610.963 1751.33 594.535 1761.43 590.428 1786.16C588.375 1797.76 594.022 1805.84 584.268 1813.92C575.541 1820.98 563.22 1816.44 555.519 1823C571.947 1832.08 637.145 1836.12 609.423 1869.43C583.755 1900.22 532.418 1850.25 501.616 1853.79C510.856 1881.55 551.926 1892.65 577.081 1901.73C586.835 1905.27 614.043 1911.32 611.99 1925.46C609.937 1939.59 583.755 1928.99 575.541 1938.58C593.509 1957.25 566.814 1958.26 553.979 1952.71C539.605 1946.65 525.744 1937.06 513.937 1926.97C486.728 1904.26 464.653 1870.95 425.124 1873.98C432.311 1877.51 439.498 1883.06 446.685 1888.11C474.921 1909.81 504.183 1932.02 532.931 1954.22C543.712 1962.3 569.894 1970.88 577.081 1982.49C589.915 2003.68 563.733 1999.14 552.439 1994.1C522.664 1979.96 485.701 1959.27 463.626 1934.54C438.471 1906.78 412.29 1879.02 370.707 1881.55C388.161 1904.76 421.53 1914.86 442.065 1937.06C453.359 1949.18 461.059 1964.32 470.3 1976.94C480.054 1990.06 494.429 1998.13 506.749 2008.73C518.557 2019.33 530.878 2027.41 543.712 2037.5C553.979 2045.58 558.6 2059.2 543.199 2066.27C517.017 2077.88 490.322 2053.65 477.487 2033.97C458.493 2005.2 430.771 1984.51 400.482 1965.33C393.808 1961.29 354.792 1934.04 348.632 1946.65C344.525 1954.22 372.76 1978.95 377.894 1985.52C399.969 2014.79 421.017 2043.56 442.578 2072.83C447.199 2079.39 451.819 2085.45 455.926 2092.01C458.493 2096.05 469.787 2104.63 470.814 2106.14C480.568 2128.35 450.279 2116.74 441.038 2120.27C426.664 2125.82 415.883 2140.97 404.589 2150.55C390.215 2163.68 373.273 2168.72 354.792 2174.78C321.937 2185.38 295.755 2198.5 273.68 2224.75C262.899 2237.87 249.038 2252.51 241.338 2268.66C235.177 2282.28 242.878 2299.44 230.557 2309.03C224.91 2313.57 215.156 2314.58 209.509 2318.62C202.835 2323.67 202.322 2329.73 197.188 2334.27C186.92 2343.35 164.846 2344.87 152.011 2345.37C136.097 2345.37 122.749 2343.35 107.862 2341.33C95.0274 2339.82 73.9793 2341.33 62.1718 2334.77C47.2841 2327.2 57.5515 2330.74 63.1986 2325.69C67.8189 2322.16 71.9258 2315.09 77.5729 2312.06C83.22 2309.03 91.9472 2310.55 96.5675 2307.52C103.755 2302.47 99.1344 2297.42 104.781 2291.87C109.402 2286.83 122.749 2290.36 125.83 2286.32C130.963 2279.76 124.29 2273.2 119.669 2272.19C104.268 2268.66 94.5141 2291.37 89.3804 2265.63C87.3269 2254.02 93.4874 2239.38 89.3804 2228.28C84.7601 2214.65 76.0328 2211.62 76.0328 2195.47L71.4125 2193.96C75.5194 2178.82 73.4659 2156.11 75.5194 2140.97C77.5729 2117.75 80.1397 2092.51 86.3002 2069.8C97.0809 2029.43 114.022 1976.43 160.739 1964.82C154.578 1957.25 155.092 1947.16 146.364 1941.1C137.124 1934.04 127.883 1935.55 118.129 1932.52C99.6478 1926.47 84.76 1906.28 64.2253 1914.86C46.2574 1922.43 24.1825 1936.56 22.6424 1907.29C22.1291 1895.17 20.0756 1894.67 14.9419 1884.57C10.835 1876.5 9.29485 1873.98 16.9954 1864.39C12.8884 1860.85 -0.972575 1859.84 0.0541632 1855.3C0.0541632 1851.77 7.24135 1850.76 11.8617 1850.25L11.3483 1850.76Z" fill="var(--fill-0, #DA251D)" fill-opacity="0.09"/>
</svg>
