<svg preserveAspectRatio="none" width="100%" height="100%" overflow="visible" style="display: block;" viewBox="0 0 1342.23 402.532" fill="none" xmlns="http://www.w3.org/2000/svg">
<g id="image 11 [Vectorized]" clip-path="url(#clip0_0_351)">
<path id="Vector" d="M794.515 0H829.474C833.989 2.30233 846.022 3.17938 851.095 7.77725C877.893 22.1444 893.151 42.9386 902.516 75.1283C903.525 79.01 904.869 77.6071 907.667 77.2345C918.376 75.8077 931.078 75.3595 941.793 76.7564C980.487 81.7985 1009.86 122.143 1005.37 166.576C1003.18 188.284 993.254 201.416 977.223 211.009C979.819 211.167 986.386 211.106 988.122 212.968C1024.36 220.513 1068.66 200.774 1105.31 200.899C1109.95 200.915 1115.35 199.266 1119.99 199.39C1160.01 200.464 1196.9 214.089 1231.41 237.037C1238.16 241.502 1274.72 267.251 1277.41 273.253C1299.67 291.946 1319.96 320.859 1334.47 347.565C1337.17 352.518 1340.57 363.72 1342.23 366.108V366.407C1341.08 368.198 1339.47 373.765 1337.5 373.46C1329.22 372.122 1321.18 364.249 1313.72 359.588C1245.18 316.761 1165.26 315.961 1092.65 345.337C1052.96 361.394 1008.05 365.982 967.878 348.782C950.949 374.305 933.975 391.25 906.468 399.842C903.689 400.709 899.049 401.428 896.808 402.532H861.928C860.637 401.434 858.042 401.16 856.41 400.767C835.916 395.827 815.219 382.169 801.869 363.624C800.25 361.379 798.677 359.204 796.934 356.967C759.302 394.304 706.412 401.134 662.403 373.608C635.507 356.79 610.47 321.29 605.958 286.003C603.941 285.384 599.037 285.516 596.736 285.491C598.087 281.894 599.848 276.319 600.048 272.492C599.888 271.577 600.279 268.915 600.41 267.883C602.799 249.073 599.231 218.21 589.296 202.827C591.847 200.507 593.199 199.007 594.37 195.582C595.222 192.295 597.948 180.179 599.44 178.705C600.36 162.276 600.383 147.219 594.473 132.206C592.968 128.381 589.832 122.941 589.314 119.875C587.157 118.028 581.97 111.985 580.388 109.507C581.307 97.7457 590.479 75.8563 597.445 67.3044C597.66 66.3748 597.872 65.9777 598.341 65.1947C610.147 45.5 634.38 30.0471 654.675 25.6528C662.79 23.8954 666.919 24.2323 674.737 24.0157C698.41 23.3596 715.175 30.9888 734.692 45.923L735.223 44.8803C748.396 19.3504 770.496 7.13934 794.515 0Z" fill="var(--fill-0, #002534)"/>
<path id="Vector_2" d="M600.048 272.492C603.455 272.213 612.095 271.235 614.938 272.887C618.311 279.181 619.191 291.726 621.965 299.619C635.028 336.778 661.066 363.057 694.818 373.41C724.553 382.532 749.792 375.041 775.857 357.56C784.403 351.823 786.939 346.218 793.893 339.416C794.43 339.145 795.492 338.551 795.984 338.361C799.365 337.057 803.697 344.723 806.017 346.946L806.614 347.054C818.974 370.182 847.195 387.194 870.442 389.589C895.176 392.168 919.785 383.355 938.798 365.114C956.5 348.2 966.534 324.167 970.624 298.588C971.443 293.482 969.208 286.207 973.206 282.394C977.852 282.107 981.411 282.2 981.916 288.764C982.958 302.264 978.764 325.392 971.928 335.875C991.013 342.283 1009.02 347.606 1029.21 346.767C1030.13 348.177 1038.77 344.634 1036.92 344.623C1064.02 344.777 1091.11 329.647 1116.53 322.515C1174 306.397 1233.81 306.679 1289.36 331.498C1299.09 335.845 1310.83 341.476 1319.73 347.674C1312.68 333.933 1297.18 314.241 1287.51 302.517C1282.96 297.004 1279.79 296.512 1273.57 287.648C1275.9 286.601 1279.85 283.192 1280.02 279.98C1280.17 277.04 1278.71 275.945 1277.41 273.253C1299.67 291.946 1319.96 320.859 1334.47 347.565C1337.17 352.518 1340.57 363.72 1342.23 366.108V366.407C1341.08 368.198 1339.47 373.765 1337.5 373.46C1329.22 372.122 1321.18 364.249 1313.72 359.588C1245.18 316.761 1165.26 315.961 1092.65 345.337C1052.96 361.394 1008.05 365.981 967.878 348.782C950.949 374.304 933.975 391.25 906.468 399.842C903.689 400.708 899.049 401.427 896.808 402.532H861.928C860.637 401.434 858.042 401.16 856.41 400.767C835.916 395.826 815.219 382.169 801.869 363.624C800.25 361.378 798.677 359.204 796.934 356.967C759.302 394.304 706.412 401.133 662.403 373.608C635.508 356.79 610.47 321.29 605.958 286.003C603.941 285.384 599.037 285.515 596.736 285.491C598.087 281.894 599.848 276.319 600.048 272.492Z" fill="var(--fill-0, #E8CB5B)"/>
<path id="Vector_3" d="M794.515 0H829.474C833.989 2.30233 846.022 3.17938 851.095 7.77725C852.386 10.3766 861.974 15.9166 865.094 19.1497L864.805 19.73C860.801 18.0078 854.994 22.2569 852.831 21.8271C846.717 20.6102 846.828 16.0247 839.252 16.9812C813.567 8.90261 796.147 9.41461 772.396 24.4909C756.595 34.5219 748.606 46.9588 738.657 63.6053C737.989 63.7822 735.806 63.6641 735.262 63.4017C728.256 60.0178 722.279 54.1706 715.64 49.5619C684.05 27.6236 642.076 34.8464 615.839 64.4277C607.201 74.347 600.335 86.0895 595.623 99.0004C593.132 105.844 593.108 115.342 589.314 119.875C587.157 118.028 581.97 111.985 580.388 109.507C581.307 97.7457 590.479 75.8563 597.445 67.3044C597.66 66.3748 597.872 65.9777 598.341 65.1947C610.147 45.5 634.38 30.0471 654.675 25.6528C662.79 23.8954 666.919 24.2323 674.737 24.0157C698.41 23.3596 715.175 30.9888 734.692 45.923L735.223 44.8803C748.396 19.3504 770.496 7.13934 794.515 0Z" fill="var(--fill-0, #F7DE6C)"/>
<path id="Vector_4" d="M597.445 67.3044C596.948 71.9671 588.903 82.6836 587.786 89.7369C589.893 88.6318 592.095 88.9498 594.172 89.9412C596.51 91.0582 595.142 92.1274 596.112 93.5378C601.627 85.8717 606.195 67.1252 615.839 64.4277C607.201 74.347 600.335 86.0894 595.623 99.0004C593.132 105.844 593.108 115.342 589.314 119.875C587.157 118.028 581.97 111.985 580.388 109.507C581.307 97.7457 590.479 75.8563 597.445 67.3044Z" fill="var(--fill-0, #D3AB40)"/>
<path id="Vector_5" d="M851.095 7.77711C877.893 22.1443 893.151 42.9384 902.516 75.1282C903.525 79.0098 904.869 77.607 907.667 77.2344C918.376 75.8075 931.078 75.3594 941.793 76.7563C980.487 81.7984 1009.86 122.143 1005.37 166.576C1003.18 188.284 993.254 201.416 977.223 211.009C979.819 211.167 986.386 211.106 988.122 212.968L987.565 213.656C989.617 215.769 990.233 221.67 988.24 224.566C986.74 225.133 986.137 225.499 984.629 225.049L983.292 223.012C982.499 223.017 980.592 222.841 980.166 223.313C981.352 223.663 981.529 223.465 982.198 224.378C967.779 223.835 958.918 217.225 945.463 213.691C945.306 207.163 944.415 204.506 948.137 199.89C960.688 207.448 977.479 196.455 985.658 185.177C1003.35 160.791 990.914 124.351 971.941 106.209C957.28 92.1954 936.229 86.5824 917.498 89.1674C909.811 90.3047 902.844 92.3413 894.986 93.1202C891.571 85.8364 889.861 75.7499 886.944 68.1399C876.563 41.0172 861.882 28.1417 839.252 16.9811C846.828 16.0246 846.717 20.6101 852.831 21.827C854.994 22.2568 860.801 18.0076 864.805 19.7298L865.094 19.1495C861.974 15.9165 852.386 10.3764 851.095 7.77711Z" fill="var(--fill-0, #D2AF43)"/>
<path id="Vector_6" d="M988.122 212.968C1024.36 220.513 1068.66 200.774 1105.3 200.899C1109.95 200.915 1115.35 199.266 1119.99 199.39C1160.01 200.464 1196.89 214.089 1231.41 237.037C1238.16 241.502 1274.72 267.25 1277.41 273.253C1278.71 275.945 1280.17 277.04 1280.02 279.98C1279.85 283.192 1275.9 286.601 1273.57 287.648C1238.73 254.972 1194.39 225.822 1149.69 216.032C1102.03 205.591 1054.63 227.864 1007.21 227.313C1002.99 227.264 984.741 227.4 982.198 224.378C981.529 223.465 981.352 223.663 980.166 223.313C980.592 222.841 982.499 223.017 983.292 223.012L984.629 225.049C986.137 225.499 986.739 225.133 988.24 224.566C990.233 221.67 989.617 215.769 987.565 213.656L988.122 212.968Z" fill="var(--fill-0, #F5DC6A)"/>
<path id="Vector_7" d="M599.44 178.705C618.901 211.882 653.232 231.308 685.584 208.309C688.848 208.59 691.686 209.246 691.24 214.416C690.722 220.376 686.41 221.601 683.998 225.565C658.123 244.231 610.642 223.109 594.37 195.582C595.222 192.295 597.948 180.179 599.44 178.705Z" fill="var(--fill-0, #F4DB69)"/>
<path id="Vector_8" d="M667.286 132.903C671.211 129.128 677.733 129.931 682.766 130.615C727.653 136.714 718.379 210.59 683.998 225.564C686.41 221.601 690.722 220.376 691.24 214.416C691.686 209.246 688.848 208.59 685.584 208.309C685.82 208.128 686.049 207.944 686.285 207.757C699.17 197.318 706.93 170.002 696.706 154.048C692.839 148.132 687.072 144.21 680.675 143.147C671.172 141.553 665.883 146.544 664.585 157.056C663.504 156.617 662.698 155.871 661.839 155.564C661.545 154.343 661.25 153.908 661.604 152.72C663.622 145.978 662.973 144.564 661.977 138.152C662.999 135.115 664.527 134.733 667.286 132.903Z" fill="var(--fill-0, #D4B244)"/>
<path id="Vector_9" d="M800.113 239.816C815.613 246.876 826.721 290.119 822.435 307.305C821.138 312.524 819.945 318.74 818.686 323.56C817.487 328.166 806.791 345.833 806.614 347.054L806.018 346.946C803.698 344.723 799.366 337.057 795.984 338.361C795.492 338.551 794.431 339.145 793.893 339.416L801.955 330.089C811.11 311.775 814.4 289.792 806.254 270.116C812.506 259.73 806.378 247.725 800.113 239.816Z" fill="var(--fill-0, #CBA539)"/>
<path id="Vector_10" d="M801.955 330.089C805.959 334.255 805.402 340.322 806.018 346.946C803.698 344.723 799.366 337.057 795.984 338.361C795.492 338.551 794.431 339.145 793.893 339.416L801.955 330.089Z" fill="var(--fill-0, #FDE975)"/>
<path id="Vector_11" d="M767.724 230.449C778.558 230.207 791.377 230.741 800.113 239.816C806.379 247.725 812.506 259.73 806.254 270.115C796.312 248.842 776.323 233.23 756.025 250.412C753.725 252.361 752.008 254.908 749.557 256.714L749.432 256.803L747.951 256.053C746.444 253.662 746.686 246.869 746.411 243.262C749.924 236.847 762.494 235.213 767.724 230.449Z" fill="var(--fill-0, #F4DA69)"/>
<path id="Vector_12" d="M945.464 213.691C937.658 209.991 931.537 203.963 927.316 195.481C920.494 181.75 922.643 161.928 935.686 154.185C938.045 152.783 943.019 150.436 945.733 151.392C960.19 165.101 940.765 162.776 936.878 171.866C932.684 181.686 939.854 194.97 947.941 199.774L948.138 199.89C944.415 204.506 945.307 207.163 945.464 213.691Z" fill="var(--fill-0, #D3AB40)"/>
<path id="Vector_13" d="M737.72 284.28C731.121 256.203 741.253 234.247 767.724 230.45C762.494 235.213 749.924 236.847 746.411 243.263C746.686 246.87 746.444 253.663 747.951 256.053L749.432 256.803C747.492 261.509 746.87 267.331 747.315 272.491C747.82 278.385 749.013 277.463 752.29 280.542C754.885 291.318 747.44 296.894 741.548 288.785C739.608 286.114 740.971 286.266 737.72 284.28Z" fill="var(--fill-0, #D4A943)"/>
<path id="Vector_14" d="M664.585 157.055C663.726 160.813 661.302 166.525 657.612 166.052C644.71 164.397 655.501 139.887 661.229 135.197C664.375 132.617 663.864 132.72 667.285 132.903C664.526 134.733 662.999 135.114 661.977 138.152C662.973 144.563 663.622 145.977 661.603 152.72C661.249 153.908 661.544 154.342 661.839 155.564C662.697 155.871 663.504 156.617 664.585 157.055Z" fill="var(--fill-0, #FDE975)"/>
<path id="Vector_15" d="M302.268 174.485C299.501 169.26 295.324 164.037 292.291 159.094C254.507 97.5032 297.86 15.672 363.486 26.0257C379.397 28.5359 398.666 38.1897 408.513 53.2085C411.493 57.4984 413.682 60.6711 416.245 65.2937C420.725 61.6091 435.206 56.363 440.925 56.8368C455.212 52.7718 478.474 58.9926 491.02 67.7932C501.071 74.8439 506.937 82.2256 515.203 91.4854C522.391 88.1492 526.653 88.7694 534.227 88.5128C547.721 88.0556 560.187 92.0233 571.538 100.417C573.452 101.832 579.008 108.886 580.388 109.507C581.97 111.985 587.157 118.028 589.314 119.875C589.832 122.94 592.968 128.381 594.473 132.205C600.383 147.219 600.36 162.276 599.44 178.705C597.948 180.179 595.222 192.295 594.37 195.582C593.199 199.007 591.847 200.507 589.296 202.827C599.231 218.21 602.799 249.073 600.41 267.883C600.279 268.914 599.888 271.577 600.048 272.492C599.848 276.319 598.087 281.894 596.736 285.491C599.037 285.515 603.941 285.384 605.957 286.003C602.371 286.639 599.611 286.463 596.026 286.356C593.01 305.07 577.663 325.26 563.793 335.739C545.88 349.273 529.529 354.752 507.748 352.931C501.959 352.448 496.544 350.663 491.275 349.973C480.663 347.505 474.737 343.507 465.387 337.792C455.046 350.89 432.619 357.855 417.712 358.639C411.614 358.96 409.123 357.97 403.393 357.376C392.434 355.103 380.262 350.526 371.093 343.203C367.052 345.473 362.949 347.597 358.791 349.573C350.946 353.248 333.402 358.981 325.193 359.878C304.573 362.13 265.069 362.623 246.356 353.705C231.577 351.941 204.671 337.181 191.039 329.037C142.715 300.164 87.4774 273.181 32.0991 289.816C21.0492 293.135 11.7324 299.211 0 298.949V288.789C0.281071 288.274 0.574422 287.768 0.879722 287.271C6.0984 278.827 13.5366 271.942 20.4872 265.285C49.5043 237.497 93.1274 211.046 130.178 202.45C152.223 197.334 181.971 197.048 203.906 202.512C207.992 203.529 215.829 204.551 219.29 207.335C246.006 207.352 271.271 210.402 292.594 187.108C296.113 183.265 298.896 178.625 302.268 174.485Z" fill="var(--fill-0, #002534)"/>
<path id="Vector_16" d="M0 288.789C0.281071 288.274 0.574422 287.768 0.879722 287.271C6.0984 278.827 13.5366 271.942 20.4872 265.285C49.5043 237.497 93.1274 211.046 130.178 202.45C152.223 197.334 181.971 197.048 203.906 202.512C207.992 203.529 215.829 204.551 219.29 207.335C224.045 212.092 251.565 205.958 252.69 210.045C249.592 212.519 247.083 209.644 245.782 212.437L247.242 212.968C246.097 213.847 243.107 215.945 242.484 217.063C243.571 219.943 243.679 217.684 243.534 219.806C240.851 221.143 230.804 219.966 226.712 220.719C209.395 219.946 192.962 212.812 176.544 211.619C133.141 208.465 88.5273 229.647 52.8852 256.535C48.748 259.655 37.0386 268 33.8044 271.406C32.9602 272.279 32.2432 273.3 31.6805 274.431L31.662 275.567C32.2145 275.538 32.2532 275.573 32.7522 275.394C46.3791 270.472 72.8551 271.046 87.3928 272.355C153.067 278.268 199.681 329.822 263.15 344.17L263.285 344.29C269.763 350 277.519 346.725 283.336 349.558C282.46 353.329 274.793 352.053 272.141 351.992C273.679 352.028 264.961 350.404 267.128 351.391C263.828 349.888 259.95 348.941 256.633 347.309C253.278 345.719 250.669 346.208 247.232 346.837L247.229 347.503C249.869 349.342 255.975 351.648 256.522 353.255C253.473 355.661 250.399 353.081 246.356 353.705C231.577 351.941 204.671 337.181 191.039 329.037C142.715 300.164 87.4774 273.181 32.0991 289.816C21.0492 293.135 11.7324 299.211 0 298.949L0 288.789Z" fill="var(--fill-0, #E8C85C)"/>
<path id="Vector_17" d="M302.267 174.485C299.501 169.26 295.323 164.037 292.291 159.094C254.507 97.5031 297.86 15.672 363.486 26.0257C379.396 28.5359 398.666 38.1897 408.513 53.2085C408.903 55.7277 409.242 57.1606 410.047 59.4362C410.609 61.0249 408.143 63.0669 408.678 66.6245C410.297 67.1132 410.066 66.7558 411.045 67.9961C411.266 71.0213 409.872 74.6981 408.959 77.6422C406.952 72.1296 406.236 68.593 401.977 65.1304L400.93 65.1137C385.579 47.7347 374.789 39.0112 352.005 39.1393C335.497 39.1545 319.696 46.7902 308.195 60.3099C285.048 87.056 284.295 132.806 308.935 159.924C310.877 162.062 312.889 164.111 314.913 166.156C315.874 195.135 280.436 217.015 258.854 219.9C251.642 220.863 233.678 223.28 226.712 220.719C230.804 219.966 240.851 221.143 243.534 219.806C243.679 217.684 243.571 219.942 242.484 217.063C243.107 215.945 246.096 213.847 247.242 212.968L245.782 212.437C247.083 209.644 249.591 212.519 252.69 210.044C251.564 205.958 224.045 212.092 219.29 207.335C246.006 207.352 271.271 210.402 292.594 187.108C296.113 183.265 298.895 178.625 302.267 174.485Z" fill="var(--fill-0, #FDE975)"/>
<path id="Vector_18" d="M440.925 56.8371C455.212 52.7721 478.474 58.9929 491.02 67.7935C501.071 74.8442 506.937 82.2259 515.203 91.4856C522.391 88.1494 526.653 88.7697 534.227 88.513C547.721 88.0559 560.187 92.0236 571.538 100.417C573.452 101.833 579.008 108.887 580.388 109.507C581.97 111.986 587.157 118.028 589.314 119.875C589.832 122.941 592.968 128.382 594.473 132.206C600.383 147.219 600.36 162.276 599.44 178.706C597.948 180.179 595.222 192.295 594.37 195.582C593.199 199.007 591.847 200.507 589.296 202.828C589.158 206.735 584.097 211.294 581.795 214.869L578.926 216.905C580.128 211.279 581.345 207.621 580.636 201.896L580.478 202.374L579.601 200.708C579.721 199.31 579.637 199.131 579.116 197.878C579.183 197.581 579.226 197.5 579.344 197.233C583.656 187.448 588.478 175.475 588.573 164.49C588.885 128.773 561.618 98.7447 530.253 101.7C523.068 102.377 515.71 106.015 508.74 105.122C505.987 104.77 501.982 95.8207 500.211 93.5746C486.186 78.3585 468.717 68.5649 449.004 70.1267C446.541 70.3217 441.247 70.1895 439.082 69.334C436.359 71.7757 424.275 76.5658 420.95 76.7162C419.264 73.0535 417.357 69.2125 416.245 65.294C420.725 61.6093 435.206 56.3632 440.925 56.8371Z" fill="var(--fill-0, #CDA93D)"/>
<path id="Vector_19" d="M416.245 65.2937C420.725 61.6091 435.206 56.363 440.925 56.8368C443.369 57.0438 445.932 57.3293 448.37 57.2301C447.82 59.9413 446.779 66.4104 445.976 68.4183C444.159 67.4764 440.446 67.8562 439.082 69.3338C436.359 71.7755 424.275 76.5655 420.95 76.7159C419.264 73.0532 417.357 69.2123 416.245 65.2937Z" fill="var(--fill-0, #FDE975)"/>
<path id="Vector_20" d="M581.794 214.869C584.096 211.294 589.157 206.735 589.296 202.828C599.23 218.21 602.799 249.073 600.41 267.884C600.279 268.915 599.887 271.577 600.047 272.492C599.847 276.319 598.086 281.894 596.736 285.491C599.037 285.516 603.94 285.384 605.957 286.004C602.371 286.64 599.61 286.463 596.025 286.356C593.009 305.071 577.662 325.26 563.793 335.739C545.88 349.273 529.529 354.753 507.747 352.932C501.959 352.448 496.544 350.663 491.274 349.973C493.633 345.514 492.719 340.864 491.883 336.064C497.325 337.176 507.803 340.209 512.906 340.177C564.329 339.858 603.818 280.297 584.536 224.311C583.477 221.236 583.118 217.765 581.794 214.869Z" fill="var(--fill-0, #C29D32)"/>
<path id="Vector_21" d="M263.15 344.17C270.856 345.58 278.256 347.342 286.265 348.179C314.302 351.106 344.408 343.15 369.037 328.022C372.081 326.151 386.146 336.197 389.203 337.951C395.973 342.069 401.35 344.029 409.157 344.432L409.407 344.603C410.473 345.325 410.739 345.426 411.93 345.755C410.226 345.685 406.809 345.339 405.409 346.037C407.318 348.173 407.176 347.458 407.872 350.175C407.426 353.011 405.47 355.81 403.393 357.376C392.434 355.103 380.262 350.526 371.093 343.203C367.052 345.473 362.949 347.597 358.791 349.573C350.946 353.248 333.402 358.981 325.193 359.878C304.573 362.13 265.069 362.623 246.356 353.705C250.399 353.081 253.473 355.661 256.522 353.255C255.975 351.647 249.869 349.342 247.229 347.503L247.232 346.837C250.669 346.208 253.278 345.719 256.633 347.309C259.95 348.94 263.828 349.888 267.128 351.391C264.961 350.404 273.679 352.028 272.141 351.992C274.793 352.053 282.46 353.329 283.336 349.558C277.519 346.725 269.763 350 263.285 344.29L263.15 344.17Z" fill="var(--fill-0, #FDE975)"/>
<path id="Vector_22" d="M450.264 251.705C449.488 256.606 451.509 270.659 453.314 274.987C453.885 294.659 454.302 299.94 464.263 316.752L463.879 318.123C468.387 325.24 470.178 320.365 466.625 331.722C466.189 333.116 465.887 335.799 464.967 336.692L465.387 337.792C455.047 350.89 432.619 357.855 417.713 358.64C411.614 358.961 409.123 357.971 403.393 357.376C405.471 355.811 407.427 353.011 407.872 350.175C407.177 347.458 407.318 348.173 405.41 346.038C406.81 345.34 410.227 345.685 411.931 345.756C410.74 345.426 410.473 345.325 409.408 344.603L409.158 344.432C433.542 343.608 435.593 344.095 456.228 328.693C453.65 324.198 451.105 319.999 449.097 315.13C449.238 310.394 447.971 308.867 447.962 307.062C447.931 301.032 448.18 295.182 447.955 289.05C447.637 280.379 445.845 269.272 445.806 260.952C446.619 257.609 448.352 254.364 450.264 251.705Z" fill="var(--fill-0, #EDCF61)"/>
<path id="Vector_23" d="M408.513 53.2087C411.492 57.4986 413.682 60.6713 416.245 65.2939C417.356 69.2125 419.264 73.0534 420.95 76.7161C423.756 102.26 424.656 117.919 410.076 139.184C409.512 140.007 408.919 140.803 408.298 141.572C408.272 133.417 412.044 122.365 407.313 117.405C415.144 98.4453 411.641 81.4477 400.93 65.1139L401.977 65.1307C406.236 68.5932 406.952 72.1298 408.959 77.6424C409.871 74.6983 411.265 71.0215 411.044 67.9963C410.065 66.756 410.297 67.1134 408.678 66.6247C408.142 63.0671 410.609 61.0251 410.047 59.4364C409.242 57.1608 408.903 55.7279 408.513 53.2087Z" fill="var(--fill-0, #CBA439)"/>
<path id="Vector_24" d="M407.313 117.405C412.044 122.364 408.271 133.417 408.298 141.571C400.934 149.016 394.191 153.153 384.049 153.372C381.918 153.418 376 153.254 374.221 153.469C372.671 150.993 361.742 146.572 360.114 143.286C358.26 139.545 360.397 131.439 361.461 127.582C378.417 151.745 396.72 140.753 407.313 117.405Z" fill="var(--fill-0, #F5DC6B)"/>
<path id="Vector_25" d="M528.18 213.332C532.243 198.668 528.12 198.79 529.663 189.68C533.068 221.967 564.721 217.512 579.116 197.877C579.636 199.13 579.72 199.31 579.6 200.708L580.477 202.374L580.635 201.896C581.344 207.621 580.127 211.279 578.925 216.905C570.255 222.624 554.992 229.685 544.969 226.438C544.581 226.311 544.199 226.16 543.826 225.984L543.497 224.76C541.853 221.989 537.18 222.16 533.906 219.306C531.368 217.093 530.413 215.996 528.18 213.332Z" fill="var(--fill-0, #F7DE6D)"/>
<path id="Vector_26" d="M359.371 99.733C372.479 96.1641 380.943 96.3115 380.393 114.048C374.547 114.25 369.588 111.626 366.755 112.268C362.399 114.762 359.461 122.27 361.461 127.582C360.398 131.439 358.261 139.545 360.115 143.286C361.742 146.572 372.672 150.993 374.222 153.469C368.694 153.027 358.979 146.393 355.202 141.653C350.936 136.302 348.755 129.202 349.16 121.982C349.634 112.607 353.45 105.775 359.371 99.733Z" fill="var(--fill-0, #E0BC53)"/>
<path id="Vector_27" d="M532.973 165.964C542.801 165.649 549.035 162.934 548.523 177.048C543.402 184.32 536.189 170.565 529.664 189.68C528.12 198.79 532.244 198.668 528.18 213.332C530.414 215.997 531.368 217.094 533.906 219.307C537.18 222.16 541.854 221.99 543.498 224.76C526.817 222.882 517.035 205.717 518.699 187.308C519.424 179.281 521.247 177.606 524.287 170.564C527.357 169.634 530.506 168.267 532.973 165.964Z" fill="var(--fill-0, #DEB850)"/>
<path id="Vector_28" d="M450.264 251.704C460.375 239.532 469.582 232.803 484.988 234.37L485.601 235.475C487.006 238.508 488.724 246.341 487.715 249.568C476.838 248.736 471.95 248.221 462.555 256.134C455.02 262.48 456.745 271.012 453.314 274.987C451.509 270.659 449.488 256.606 450.264 251.704Z" fill="var(--fill-0, #F7DD6C)"/>
<path id="Vector_29" d="M494.408 237.436C497.092 237.769 498.254 240.433 500.165 242.309C511.544 253.479 510.623 283.139 493.026 285.188C495.527 283.088 495.525 276.786 494.592 273.758C492.845 271.887 489.772 272.409 486.871 272.261C497.031 271.114 497.141 265.786 494.047 255.736C497.103 251.265 496.666 242.387 494.408 237.436Z" fill="var(--fill-0, #D3AB40)"/>
<path id="Vector_30" d="M464.262 316.751C475.259 328.111 478.028 329.619 491.884 336.064C492.72 340.864 493.633 345.514 491.274 349.973C480.663 347.505 474.737 343.507 465.387 337.792L464.966 336.692C465.887 335.799 466.188 333.116 466.625 331.721C470.177 320.364 468.386 325.24 463.878 318.123L464.262 316.751Z" fill="var(--fill-0, #FDE975)"/>
<path id="Vector_31" d="M445.806 260.952C445.845 269.272 447.636 280.379 447.955 289.05C448.18 295.182 447.931 301.032 447.961 307.062C447.971 308.867 449.238 310.394 449.096 315.13C440.725 301.328 439.899 275.97 445.806 260.952Z" fill="var(--fill-0, #D3AB40)"/>
<path id="Vector_32" d="M482.242 284.3C482.155 281.203 481.756 276.873 482.772 274.155C484.716 272.279 484.173 272.803 486.872 272.261C489.773 272.409 492.845 271.887 494.593 273.758C495.525 276.786 495.527 283.088 493.027 285.188C489.994 286.581 485.736 285.006 482.242 284.3Z" fill="var(--fill-0, #FDE975)"/>
<path id="Vector_33" d="M485.601 235.475C489.414 237.254 492.061 236.178 494.408 237.436C496.666 242.387 497.103 251.264 494.047 255.736C491.435 250.283 491.293 252.272 487.983 249.772L487.715 249.567C488.723 246.34 487.006 238.507 485.601 235.475Z" fill="var(--fill-0, #FDE975)"/>
</g>
<defs>
<clipPath id="clip0_0_351">
<rect width="1342.23" height="402.532" fill="white"/>
</clipPath>
</defs>
</svg>
