<svg width="30" height="33" viewBox="0 0 30 33" fill="none" xmlns="http://www.w3.org/2000/svg">
<g clip-path="url(#clip0_2992_8892)">
<path d="M19.156 2.33546C18.8379 2.32307 18.7198 2.34785 18.7198 2.34785H18.7178L15.5046 3.00038C15.3746 2.98592 15.2425 2.9756 15.1145 2.9694C14.7383 2.94875 14.3722 2.95908 14.024 2.99212C13.966 2.99625 13.91 3.00244 13.854 3.00864C13.828 3.00864 13.8019 3.01483 13.7779 3.0169C13.7459 3.02103 13.7159 3.02516 13.6859 3.02929C13.6319 3.03548 13.5779 3.04374 13.5238 3.052C13.4358 3.06439 13.3518 3.07884 13.2697 3.0933C13.2497 3.09743 13.2277 3.10156 13.2077 3.10569C13.1897 3.10982 13.1697 3.11188 13.1517 3.11601C13.1197 3.12221 13.0877 3.1284 13.0557 3.1346H13.0537L12.9096 3.16557C12.8856 3.17177 12.8616 3.17796 12.8376 3.18209C12.8136 3.18622 12.7896 3.19242 12.7656 3.19861H12.7636C12.7515 3.20068 12.7395 3.20481 12.7295 3.20687C12.7215 3.20894 12.7155 3.211 12.7075 3.21307C12.6455 3.22752 12.5855 3.24198 12.5275 3.25849C12.5055 3.26262 12.4834 3.27088 12.4614 3.27501C12.4514 3.27914 12.4414 3.27914 12.4334 3.28327C12.3814 3.29773 12.3294 3.31425 12.2814 3.32664C12.2193 3.34316 12.1593 3.36174 12.1033 3.38033C12.0473 3.39891 11.9953 3.41543 11.9452 3.43195C11.9432 3.43195 11.9392 3.43402 11.9372 3.43402C11.8852 3.45054 11.8372 3.46706 11.7912 3.48357C11.7352 3.50422 11.6851 3.52281 11.6391 3.53933C11.5951 3.55585 11.5551 3.5703 11.5191 3.58682C11.4831 3.59921 11.449 3.61367 11.419 3.62606C11.369 3.64671 11.329 3.66323 11.297 3.67562C11.255 3.6942 11.229 3.70865 11.217 3.71278C11.215 3.71485 11.213 3.71485 11.213 3.71485L7.48353 4.70809L6.92331 4.88981C6.85729 4.79895 6.8833 4.6957 6.92731 4.61517C6.93532 4.59865 6.94332 4.58626 6.95132 4.57387C6.96733 4.54909 6.98333 4.52844 6.99734 4.51399C7.00934 4.4954 7.02135 4.48508 7.02135 4.48508L12.1373 0L18.7959 2.04224C18.9479 2.08767 19.084 2.18885 19.156 2.33546Z" fill="white"/>
<path d="M11.2128 3.71484V4.30749L10.6386 4.71015C10.5746 4.73493 10.5086 4.76177 10.4445 4.78242C10.4045 4.79688 10.3645 4.81133 10.3265 4.82166C10.3205 4.82372 10.3165 4.82372 10.3105 4.82579C10.2585 4.84231 10.2084 4.85676 10.1564 4.86915C10.1104 4.88154 10.0644 4.89393 10.0184 4.90426C10.0144 4.90426 10.0104 4.90632 10.0064 4.90632C9.95435 4.91871 9.90433 4.92904 9.85231 4.9373C9.81429 4.94349 9.77828 4.94969 9.74026 4.95381C9.70425 4.96001 9.67024 4.96414 9.63422 4.96827C9.59021 4.97446 9.54619 4.97859 9.50217 4.98272C9.49017 4.98479 9.48016 4.98479 9.47016 4.98479C9.41414 4.99098 9.35812 4.99305 9.3041 4.99511C9.24607 4.99718 9.18805 4.99924 9.13003 4.99924C9.058 4.99924 8.98798 4.99924 8.91995 4.99511C8.91395 4.99511 8.90794 4.99511 8.90194 4.99305C8.88594 4.99305 8.86993 4.99305 8.85392 4.99098C8.83192 4.99098 8.80991 4.98892 8.7879 4.98685C8.77389 4.98685 8.75989 4.98685 8.74588 4.98272C8.70587 4.98066 8.66585 4.97653 8.62784 4.9724C8.58782 4.96827 8.54981 4.96414 8.51179 4.95794C8.47578 4.95382 8.43776 4.94969 8.40175 4.94349C8.37774 4.93936 8.35373 4.93523 8.33172 4.9311C8.2837 4.92491 8.23969 4.91665 8.19567 4.90632C8.17366 4.90219 8.15165 4.89806 8.13165 4.89393C8.10964 4.8898 8.08963 4.88567 8.06962 4.88154C8.02961 4.87328 7.99159 4.86296 7.95358 4.8547C7.93557 4.85057 7.91756 4.84644 7.90156 4.84024C7.86554 4.83198 7.83353 4.82166 7.80152 4.8134C7.78551 4.80927 7.77151 4.80514 7.7575 4.80101C7.72749 4.79275 7.70148 4.78449 7.67547 4.77623C7.64546 4.7659 7.61745 4.75558 7.59344 4.74938C7.54542 4.7308 7.51141 4.71841 7.4954 4.71428C7.4874 4.71428 7.4834 4.71015 7.4834 4.71015L11.2128 3.71484Z" fill="white"/>
<path d="M18.7176 2.3479L18.6696 2.52136C18.6456 2.60395 18.6096 2.68036 18.5596 2.74644C18.5516 2.75883 18.5416 2.76915 18.5316 2.78154C18.5236 2.79187 18.5115 2.80219 18.5015 2.81458C18.4755 2.84142 18.4475 2.86414 18.4175 2.88685C18.3455 2.93641 18.2715 2.98391 18.1974 3.02727C18.1314 3.06857 18.0634 3.10574 17.9953 3.14291C17.9873 3.14704 17.9793 3.15117 17.9713 3.1553C17.9313 3.17595 17.8933 3.1966 17.8533 3.21518C17.7993 3.24202 17.7453 3.2668 17.6912 3.29365C17.6412 3.31636 17.5912 3.33701 17.5412 3.35973C17.5332 3.36179 17.5272 3.36592 17.5192 3.36799C17.5172 3.37005 17.5132 3.37005 17.5112 3.37212C17.4892 3.38038 17.4691 3.3907 17.4471 3.39896C17.3891 3.42168 17.3331 3.44439 17.2731 3.46504C17.2371 3.47949 17.197 3.49188 17.159 3.50634C17.083 3.53318 17.009 3.55796 16.9329 3.58274C16.7629 3.63643 16.5988 3.68186 16.4468 3.71903C16.3667 3.73968 16.2907 3.7562 16.2187 3.77272C16.1887 3.77891 16.1586 3.78511 16.1306 3.7913C16.0166 3.81402 15.9126 3.8326 15.8265 3.84706C15.7825 3.85325 15.7425 3.85945 15.7065 3.86564C15.6705 3.87183 15.6384 3.87596 15.6124 3.8801C15.5984 3.8801 15.5864 3.88216 15.5744 3.88422C15.5524 3.88629 15.5364 3.88835 15.5244 3.89042C15.5104 3.89248 15.5044 3.89248 15.5044 3.89248V3.00043L18.7176 2.3479Z" fill="white"/>
<path d="M27.5693 29.2666H27.5713C27.6033 29.2171 27.6353 29.1675 27.6633 29.118C27.6333 29.1675 27.6013 29.2171 27.5693 29.2666ZM16.297 3.75415C16.271 3.76035 16.245 3.76654 16.2189 3.77274C16.291 3.75622 16.367 3.7397 16.447 3.71905C16.395 3.73144 16.345 3.74383 16.297 3.75415ZM15.8268 3.84708C15.9128 3.83262 16.0169 3.81404 16.1309 3.79132C16.1029 3.79545 16.0749 3.80165 16.0469 3.80578C15.9669 3.8223 15.8928 3.83469 15.8268 3.84708ZM15.5087 3.89044H15.5047C15.5047 3.89044 15.5107 3.89251 15.5247 3.89044C15.5367 3.88838 15.5527 3.88631 15.5747 3.88425C15.5527 3.88631 15.5347 3.88838 15.5247 3.88838C15.5167 3.88838 15.5127 3.89044 15.5087 3.89044ZM13.854 3.00871C13.9101 3.00251 13.9661 2.99632 14.0241 2.99219C14.0041 2.99219 13.9821 2.99425 13.9621 2.99632C13.9261 3.00045 13.8901 3.00458 13.854 3.00871ZM13.5239 3.05207C13.5779 3.04381 13.632 3.03555 13.686 3.02936C13.656 3.03142 13.628 3.03555 13.5999 3.03968C13.5739 3.04381 13.5479 3.04794 13.5239 3.05207ZM13.2078 3.10576C13.2278 3.10163 13.2498 3.0975 13.2698 3.09337C13.2658 3.09544 13.2578 3.09544 13.2538 3.09544C13.2378 3.09957 13.2238 3.10163 13.2078 3.10576ZM12.7656 3.19868C12.7896 3.19249 12.8136 3.18629 12.8377 3.18216C12.8136 3.18629 12.7896 3.19042 12.7676 3.19662H12.7656V3.19868Z" fill="white"/>
<path d="M26.8788 30.5572C26.7447 30.5613 26.6007 30.5634 26.4486 30.5634H26.4466C26.0424 30.5613 25.5843 30.5345 25.0941 30.4663C24.5199 30.3899 23.9036 30.2537 23.2854 30.0306C23.2854 30.0306 22.4471 29.7292 21.4067 29.0188C20.9165 28.6884 20.3843 28.2672 19.8701 27.7447C19.5099 27.4742 19.1638 27.1129 18.8357 26.6606C18.1654 25.7293 17.6092 24.5833 17.1951 23.0841C16.7629 21.5065 16.4848 19.5531 16.3847 17.0751C16.1947 12.2431 15.3904 11.254 16.3087 9.66608C16.8849 8.67903 15.6965 8.0802 15.6965 8.0802C15.6965 8.0802 15.0882 7.4793 14.8382 6.90937C14.7401 6.68222 14.536 6.51703 14.3039 6.44682L13.9378 6.33944V5.46803C13.9378 5.46803 14.9722 5.50727 15.3924 4.67509C15.7865 3.89247 19.71 3.46296 19.1578 2.3355C18.8397 2.32311 18.7216 2.34789 18.7216 2.34789L18.6716 2.52135C18.6476 2.60394 18.6116 2.68035 18.5616 2.74643C18.5536 2.75882 18.5436 2.76914 18.5336 2.78153C18.5256 2.79185 18.5136 2.80218 18.5036 2.81457C18.4775 2.84141 18.4495 2.86413 18.4195 2.88684C18.3475 2.9364 18.2755 2.9839 18.1994 3.02726C18.1874 3.03552 18.1734 3.04378 18.1594 3.05204C18.1534 3.05617 18.1454 3.0603 18.1374 3.06443C18.0914 3.09127 18.0454 3.11605 17.9974 3.1429C17.9894 3.14703 17.9814 3.15116 17.9734 3.15529C17.9353 3.17594 17.8953 3.19452 17.8573 3.21517H17.8553C17.8013 3.24201 17.7473 3.26679 17.6932 3.29364C17.6712 3.30396 17.6472 3.31429 17.6252 3.32461H17.6232C17.5972 3.337 17.5692 3.34939 17.5432 3.35972C17.5352 3.36178 17.5292 3.36591 17.5212 3.36798C17.5192 3.37004 17.5152 3.37004 17.5132 3.37211C17.4912 3.38037 17.4712 3.39069 17.4492 3.39895C17.3911 3.42166 17.3351 3.44438 17.2751 3.46503C17.2391 3.47948 17.1991 3.49187 17.161 3.50633C17.085 3.53317 17.011 3.55795 16.935 3.58273C16.7649 3.63642 16.6008 3.68185 16.4488 3.71902C16.3687 3.73967 16.2927 3.75619 16.2207 3.77271C16.1907 3.7789 16.1607 3.7851 16.1326 3.79129C16.0186 3.81401 15.9146 3.83259 15.8285 3.84705C15.7845 3.8553 15.7445 3.8615 15.7085 3.86563C15.6725 3.87182 15.6405 3.87595 15.6144 3.88008C15.6004 3.88008 15.5884 3.88215 15.5764 3.88421C15.5544 3.88628 15.5384 3.88834 15.5264 3.89041C15.5124 3.89247 15.5064 3.89247 15.5064 3.89247V3.00248C15.3764 2.98803 15.2463 2.9777 15.1163 2.96944C14.7401 2.95086 14.374 2.96118 14.0258 2.99216C13.9678 2.99628 13.9118 3.00248 13.8558 3.00867C13.8298 3.00867 13.8038 3.01487 13.7797 3.01693C13.7477 3.02106 13.7177 3.02519 13.6877 3.02932C13.6337 3.03552 13.5797 3.04378 13.5256 3.05204C13.4376 3.06443 13.3536 3.07888 13.2716 3.09334C13.2515 3.09747 13.2295 3.1016 13.2095 3.10573C13.1915 3.10986 13.1715 3.11192 13.1535 3.11605C13.1215 3.12225 13.0895 3.12844 13.0575 3.13464H13.0555L12.9114 3.16561C12.8874 3.17181 12.8634 3.178 12.8394 3.18213C12.8154 3.18626 12.7914 3.19246 12.7674 3.19865H12.7654C12.7534 3.20072 12.7413 3.20485 12.7313 3.20691C12.7233 3.20898 12.7173 3.21104 12.7093 3.21311C12.6493 3.22756 12.5873 3.24201 12.5293 3.25853C12.5073 3.26266 12.4852 3.27092 12.4632 3.27505C12.4532 3.27918 12.4432 3.27918 12.4352 3.28331C12.3832 3.29777 12.3312 3.31429 12.2832 3.32668C12.2211 3.3432 12.1611 3.36178 12.1051 3.38037C12.0491 3.39895 11.9971 3.41547 11.947 3.43199C11.945 3.43199 11.941 3.43405 11.939 3.43405C11.887 3.45057 11.839 3.46709 11.793 3.48361C11.737 3.50426 11.6869 3.52285 11.6409 3.53937C11.5989 3.55589 11.5589 3.57034 11.5209 3.58686C11.4849 3.59925 11.4509 3.61371 11.4208 3.6261C11.3708 3.64674 11.3308 3.66326 11.2988 3.67565C11.2568 3.69424 11.2308 3.70869 11.2188 3.71282C11.2168 3.71489 11.2148 3.71489 11.2148 3.71489V4.30753L10.6405 4.7102C10.5765 4.73704 10.5125 4.76182 10.4465 4.78247C10.4085 4.79692 10.3684 4.81138 10.3284 4.8217C10.3224 4.82377 10.3184 4.82377 10.3124 4.82583C10.2604 4.84442 10.2084 4.85887 10.1584 4.8692C10.1123 4.88159 10.0663 4.89398 10.0203 4.9043C10.0163 4.9043 10.0123 4.90637 10.0083 4.90637C9.95628 4.91876 9.90626 4.92908 9.85424 4.93734C9.81623 4.94353 9.78021 4.94973 9.7422 4.95386C9.70618 4.96005 9.67017 4.96625 9.63616 4.96831C9.59214 4.97451 9.54812 4.97864 9.50411 4.98277C9.4921 4.98483 9.4821 4.98483 9.47209 4.98483C9.41607 4.99103 9.36005 4.99309 9.30603 4.99516C9.24801 4.99722 9.18999 4.99929 9.13196 4.99929C9.05994 4.99929 8.98991 4.99929 8.92188 4.99516C8.91588 4.99516 8.90988 4.99516 8.90388 4.99309C8.88787 4.99309 8.87187 4.99309 8.85586 4.99103C8.83385 4.99103 8.81184 4.98896 8.78983 4.9869C8.77583 4.9869 8.76182 4.9869 8.74782 4.98277C8.7078 4.9807 8.66779 4.97657 8.62977 4.97244C8.58976 4.96831 8.55174 4.96418 8.51373 4.95799C8.47771 4.95386 8.4397 4.94973 8.40369 4.94354C8.37968 4.93941 8.35567 4.93528 8.33366 4.93115C8.28564 4.92495 8.23962 4.91669 8.19761 4.90637C8.1756 4.90224 8.15359 4.89811 8.13358 4.89398C8.11157 4.88985 8.09156 4.88572 8.07156 4.88159C8.03154 4.87333 7.99353 4.863 7.95551 4.85474C7.93751 4.85061 7.9195 4.84648 7.90349 4.84029C7.86748 4.83203 7.83347 4.82377 7.80345 4.81344C7.78745 4.80931 7.77344 4.80518 7.75944 4.80105C7.72943 4.79279 7.70342 4.78453 7.67741 4.77627C7.6474 4.76801 7.61938 4.75769 7.59538 4.74943C7.54936 4.73497 7.51535 4.72258 7.49734 4.71433C7.48934 4.71433 7.48533 4.7102 7.48533 4.7102L6.92512 4.88985C7.07318 5.2285 7.72943 5.67453 10.3784 5.18926L10.2504 5.41228C10.1384 5.60019 9.97029 5.74474 9.77621 5.8232C8.6958 6.26097 5.07841 7.84686 5.17645 9.42861C5.28649 11.2458 6.74705 11.7063 6.81908 11.7248C6.75505 11.6154 4.70827 8.26811 8.80984 7.40909C8.80984 7.40909 5.75067 9.90149 7.96752 11.2478C7.94151 11.1549 7.37129 9.03834 9.76821 7.44832C12.2151 5.8232 12.1771 3.80368 12.4072 4.71639C12.6353 5.62497 12.5593 6.06067 12.5593 6.06067L11.903 6.59343C11.6509 6.7958 11.4689 7.0725 11.3608 7.38431C11.1727 7.92946 10.7346 8.79054 10.7006 9.38938C10.6285 10.6077 10.2384 10.8596 10.2984 11.6195C10.4105 13.1022 12.8654 12.8358 12.1011 13.7857C11.3368 14.7376 10.9867 16.1025 10.4545 17.3105C7.98753 22.9355 5.98076 26.737 0.124512 28.5212C0.124512 28.5212 3.16768 28.581 3.56783 28.9982C3.56783 28.9982 7.98753 27.4556 10.8566 20.2077C10.4245 23.5446 8.63777 26.5698 6.17083 28.8392C6.17083 28.8392 5.42654 29.7498 6.47695 30.0472C7.87148 30.01 9.69418 32.9402 14.394 32.9402C16.5368 32.9402 18.5096 32.7791 18.5096 32.7791C18.5096 32.7791 16.1827 31.7859 15.2783 29.948C13.8598 27.0757 13.6697 22.2231 15.3924 18.4628C14.41 23.0305 14.7401 26.8816 15.7605 28.899C16.5708 30.5056 17.7293 31.4761 17.7293 31.4761C18.6836 32.2732 19.568 32.5767 19.776 32.649C20.4483 32.8699 20.9845 32.9505 21.4427 32.9381C21.7668 32.9298 22.1089 32.934 22.4691 32.9278C22.6231 32.9402 22.7772 32.9464 22.9333 32.9464C24.966 32.9464 26.7787 31.9779 27.9652 30.4622C27.7731 30.4911 27.389 30.5407 26.8808 30.5572H26.8788ZM13.1215 12.301C12.2612 12.3299 11.5149 11.2912 11.5149 11.2912C11.803 10.8163 11.917 9.62478 11.917 9.62478C11.9671 9.22625 12.3752 9.38938 12.3752 9.38938C12.7473 9.77552 13.2375 10.9649 13.2375 10.9649L13.1215 12.301Z" fill="white"/>
</g>
<defs>
<clipPath id="clip0_2992_8892">
<rect width="30" height="33" fill="white"/>
</clipPath>
</defs>
</svg>
