<svg width="96" height="40" viewBox="0 0 96 40" fill="none" xmlns="http://www.w3.org/2000/svg">
<path d="M0 20C0 8.95431 8.95431 0 20 0C31.0457 0 40 8.95431 40 20C40 31.0457 31.0457 40 20 40C8.95431 40 0 31.0457 0 20Z" fill="white" fill-opacity="0.1"/>
<path d="M24.9999 11.6667H22.4999C21.3948 11.6667 20.335 12.1057 19.5536 12.8871C18.7722 13.6685 18.3333 14.7283 18.3333 15.8334V18.3334H15.8333V21.6667H18.3333V28.3334H21.6666V21.6667H24.1666L24.9999 18.3334H21.6666V15.8334C21.6666 15.6123 21.7544 15.4004 21.9107 15.2441C22.0669 15.0878 22.2789 15 22.4999 15H24.9999V11.6667Z" stroke="white" stroke-width="1.66667" stroke-linecap="round" stroke-linejoin="round"/>
<path d="M56 20C56 8.95431 64.9543 0 76 0C87.0457 0 96 8.95431 96 20C96 31.0457 87.0457 40 76 40C64.9543 40 56 31.0457 56 20Z" fill="white" fill-opacity="0.1"/>
<path d="M80.1667 11.6667H71.8334C69.5322 11.6667 67.6667 13.5322 67.6667 15.8334V24.1667C67.6667 26.4679 69.5322 28.3334 71.8334 28.3334H80.1667C82.4679 28.3334 84.3334 26.4679 84.3334 24.1667V15.8334C84.3334 13.5322 82.4679 11.6667 80.1667 11.6667Z" stroke="white" stroke-width="1.66667" stroke-linecap="round" stroke-linejoin="round"/>
<path d="M79.3333 19.475C79.4361 20.1685 79.3176 20.8769 78.9947 21.4992C78.6718 22.1215 78.1609 22.6262 77.5346 22.9414C76.9083 23.2566 76.1986 23.3663 75.5064 23.255C74.8142 23.1436 74.1747 22.8167 73.679 22.321C73.1832 21.8252 72.8564 21.1857 72.745 20.4935C72.6336 19.8013 72.7433 19.0916 73.0585 18.4653C73.3737 17.8391 73.8784 17.3281 74.5007 17.0052C75.1231 16.6823 75.8314 16.5638 76.5249 16.6667C77.2324 16.7716 77.8873 17.1012 78.393 17.6069C78.8987 18.1126 79.2283 18.7676 79.3333 19.475Z" stroke="white" stroke-width="1.66667" stroke-linecap="round" stroke-linejoin="round"/>
<path d="M80.5833 15.4167H80.5916" stroke="white" stroke-width="1.66667" stroke-linecap="round" stroke-linejoin="round"/>
</svg>
