<svg preserveAspectRatio="none" width="100%" height="100%" overflow="visible" style="display: block;" viewBox="0 0 76.7523 31.83" fill="none" xmlns="http://www.w3.org/2000/svg">
<g id="Group">
<path id="Vector" d="M76.7523 14.8698C74.7628 14.7909 74.0245 14.9487 74.0245 14.9487H74.012L53.9168 19.1033C53.1034 19.0112 52.2776 18.9455 51.4768 18.906C49.1244 18.7746 46.8346 18.8403 44.6574 19.0507C44.2946 19.077 43.9442 19.1164 43.5939 19.1558C43.4312 19.1558 43.2685 19.1953 43.1184 19.2084C42.9182 19.2347 42.7305 19.261 42.5428 19.2873C42.205 19.3268 41.8671 19.3794 41.5293 19.4319C40.9787 19.5108 40.4532 19.6029 39.9402 19.6949C39.8151 19.7212 39.6774 19.7475 39.5523 19.7738C39.4397 19.8001 39.3146 19.8132 39.202 19.8395C39.0017 19.879 38.8015 19.9184 38.6013 19.9578H38.5888L37.6879 20.1551C37.5378 20.1945 37.3876 20.2339 37.2375 20.2602C37.0873 20.2865 36.9372 20.326 36.787 20.3654H36.7745C36.6994 20.3786 36.6244 20.4049 36.5618 20.418C36.5117 20.4312 36.4742 20.4443 36.4242 20.4574C36.0363 20.5495 35.6609 20.6415 35.298 20.7467C35.1604 20.773 35.0227 20.8256 34.8851 20.8519C34.8225 20.8782 34.76 20.8782 34.7099 20.9045C34.3846 20.9965 34.0593 21.1017 33.759 21.1806C33.3711 21.2857 32.9957 21.4041 32.6453 21.5224C32.295 21.6407 31.9697 21.7459 31.6568 21.8511C31.6443 21.8511 31.6193 21.8642 31.6068 21.8642C31.2815 21.9694 30.9812 22.0746 30.6934 22.1798C30.343 22.3112 30.0302 22.4296 29.7424 22.5347C29.4671 22.6399 29.2169 22.732 28.9917 22.8371C28.7664 22.916 28.5537 23.0081 28.366 23.0869C28.0532 23.2184 27.803 23.3236 27.6028 23.4025C27.34 23.5208 27.1773 23.6128 27.1023 23.6391C27.0897 23.6523 27.0772 23.6523 27.0772 23.6523L3.75375 29.9762L0.250219 31.1332C-0.162697 30.5547 -2.76322e-05 29.8973 0.27525 29.3846C0.3253 29.2794 0.375344 29.2005 0.425395 29.1216C0.525495 28.9639 0.6256 28.8324 0.713189 28.7403C0.788264 28.622 0.863334 28.5563 0.863334 28.5563L32.8581 0L74.5 13.0028C75.4509 13.2921 76.3018 13.9363 76.7523 14.8698Z" fill="url(#paint0_linear_0_50)"/>
<g id="Group_2">
<path id="Vector_2" d="M27.0772 23.6523V27.4256L23.4861 29.9894C23.0857 30.1471 22.6728 30.318 22.2724 30.4495C22.0221 30.5415 21.7719 30.6336 21.5342 30.6993C21.4966 30.7125 21.4716 30.7125 21.434 30.7256C21.1087 30.8308 20.7959 30.9228 20.4706 31.0017C20.1828 31.0806 19.895 31.1595 19.6072 31.2252C19.5822 31.2252 19.5572 31.2384 19.5321 31.2384C19.2068 31.3172 18.894 31.383 18.5687 31.4356C18.3309 31.475 18.1057 31.5145 17.868 31.5408C17.6427 31.5802 17.43 31.6065 17.2048 31.6328C16.9295 31.6722 16.6542 31.6985 16.379 31.7248C16.3039 31.738 16.2413 31.738 16.1788 31.738C15.8284 31.7774 15.4781 31.7906 15.1402 31.8037C14.7773 31.8169 14.4145 31.83 14.0516 31.83C13.6012 31.83 13.1632 31.83 12.7378 31.8037C12.7003 31.8037 12.6627 31.8037 12.6252 31.7906C12.5251 31.7906 12.425 31.7906 12.3249 31.7774C12.1872 31.7774 12.0496 31.7643 11.912 31.7511C11.8244 31.7511 11.7368 31.7511 11.6492 31.7248C11.3989 31.7117 11.1487 31.6854 10.911 31.6591C10.6607 31.6328 10.423 31.6065 10.1852 31.5671C9.96 31.5408 9.72225 31.5145 9.49703 31.475C9.34688 31.4487 9.19673 31.4224 9.05909 31.3961C8.75879 31.3567 8.48351 31.3041 8.20823 31.2384C8.07059 31.2121 7.93295 31.1858 7.80783 31.1595C7.67019 31.1332 7.54507 31.1069 7.41994 31.0806C7.16969 31.028 6.93195 30.9623 6.69421 30.9097C6.58159 30.8834 6.46898 30.8571 6.36888 30.8176C6.14365 30.7651 5.94345 30.6993 5.74325 30.6467C5.64315 30.6204 5.55556 30.5941 5.46797 30.5678C5.28028 30.5153 5.11762 30.4627 4.95496 30.4101C4.76727 30.3443 4.59209 30.2786 4.44194 30.2392C4.14163 30.1208 3.92892 30.0419 3.82882 30.0156C3.77877 30.0156 3.75375 29.9894 3.75375 29.9894L27.0772 23.6523Z" fill="url(#paint1_linear_0_50)"/>
<path id="Vector_3" d="M74.012 14.9487L73.7117 16.053C73.5616 16.5789 73.3363 17.0654 73.0235 17.4861C72.9735 17.565 72.9109 17.6307 72.8483 17.7096C72.7983 17.7754 72.7232 17.8411 72.6606 17.92C72.498 18.0909 72.3228 18.2355 72.1351 18.3801C71.6846 18.6957 71.2217 18.9981 70.7587 19.2742C70.3458 19.5371 69.9204 19.7738 69.4949 20.0104C69.4449 20.0367 69.3948 20.063 69.3448 20.0893C69.0945 20.2208 68.8568 20.3523 68.6066 20.4706C68.2687 20.6415 67.9309 20.7993 67.593 20.9702C67.2802 21.1148 66.9674 21.2463 66.6546 21.3909C66.6045 21.4041 66.567 21.4304 66.517 21.4435C66.5044 21.4567 66.4794 21.4567 66.4669 21.4698C66.3293 21.5224 66.2041 21.5881 66.0665 21.6407C65.7036 21.7853 65.3533 21.93 64.9779 22.0614C64.7527 22.1535 64.5024 22.2324 64.2647 22.3244C63.7892 22.4953 63.3262 22.6531 62.8508 22.8108C61.7872 23.1527 60.7612 23.4419 59.8102 23.6786C59.3097 23.81 58.8342 23.9152 58.3838 24.0204C58.1961 24.0598 58.0084 24.0993 57.8332 24.1387C57.12 24.2834 56.4693 24.4017 55.9313 24.4937C55.656 24.5332 55.4058 24.5726 55.1805 24.612C54.9553 24.6515 54.7551 24.6778 54.5924 24.7041C54.5049 24.7041 54.4298 24.7172 54.3547 24.7304C54.2171 24.7435 54.117 24.7567 54.0419 24.7698C53.9543 24.783 53.9168 24.783 53.9168 24.783V19.1033L74.012 14.9487Z" fill="url(#paint2_linear_0_50)"/>
</g>
</g>
<defs>
<linearGradient id="paint0_linear_0_50" x1="14.0021" y1="1.26007e-06" x2="169.998" y2="26.4883" gradientUnits="userSpaceOnUse">
<stop stop-color="#FFD500"/>
<stop offset="0.397725" stop-color="#E2D48E"/>
<stop offset="0.560916" stop-color="#F6D948"/>
<stop offset="0.735577" stop-color="#E4C322"/>
<stop offset="0.837286" stop-color="#D7CC97"/>
<stop offset="1" stop-color="#BEA631"/>
</linearGradient>
<linearGradient id="paint1_linear_0_50" x1="8.00871" y1="23.6523" x2="54.9674" y2="32.8769" gradientUnits="userSpaceOnUse">
<stop stop-color="#FFD500"/>
<stop offset="0.397725" stop-color="#E2D48E"/>
<stop offset="0.560916" stop-color="#F6D948"/>
<stop offset="0.735577" stop-color="#E4C322"/>
<stop offset="0.837286" stop-color="#D7CC97"/>
<stop offset="1" stop-color="#BEA631"/>
</linearGradient>
<linearGradient id="paint2_linear_0_50" x1="57.5828" y1="14.9487" x2="98.7869" y2="20.7478" gradientUnits="userSpaceOnUse">
<stop stop-color="#FFD500"/>
<stop offset="0.397725" stop-color="#E2D48E"/>
<stop offset="0.560916" stop-color="#F6D948"/>
<stop offset="0.735577" stop-color="#E4C322"/>
<stop offset="0.837286" stop-color="#D7CC97"/>
<stop offset="1" stop-color="#BEA631"/>
</linearGradient>
</defs>
</svg>
