<svg width="321" height="321" viewBox="0 0 321 321" fill="none" xmlns="http://www.w3.org/2000/svg">
<circle cx="160.5" cy="160.5" r="158.5" fill="#721311" stroke="url(#paint0_linear_2440_10690)" stroke-width="4"/>
<g clip-path="url(#clip0_2440_10690)">
<path d="M198.494 70.7858C196.505 70.7069 195.767 70.8647 195.767 70.8647H195.754L175.659 75.0193C174.846 74.9272 174.02 74.8615 173.219 74.8221C170.867 74.6906 168.577 74.7563 166.4 74.9667C166.037 74.993 165.686 75.0324 165.336 75.0719C165.173 75.0719 165.011 75.1113 164.861 75.1245C164.66 75.1507 164.473 75.177 164.285 75.2033C163.947 75.2428 163.609 75.2954 163.271 75.348C162.721 75.4268 162.195 75.5189 161.682 75.6109C161.557 75.6372 161.42 75.6635 161.294 75.6898C161.182 75.7161 161.057 75.7292 160.944 75.7555C160.744 75.795 160.544 75.8344 160.344 75.8739H160.331L159.43 76.0711C159.28 76.1105 159.13 76.15 158.98 76.1763C158.829 76.2025 158.679 76.242 158.529 76.2814H158.517C158.442 76.2946 158.367 76.3209 158.304 76.334C158.254 76.3472 158.216 76.3603 158.166 76.3735C157.778 76.4655 157.403 76.5575 157.04 76.6627C156.903 76.689 156.765 76.7416 156.627 76.7679C156.565 76.7942 156.502 76.7942 156.452 76.8205C156.127 76.9125 155.801 77.0177 155.501 77.0966C155.113 77.2018 154.738 77.3201 154.388 77.4384C154.037 77.5567 153.712 77.6619 153.399 77.7671C153.387 77.7671 153.361 77.7802 153.349 77.7802C153.024 77.8854 152.723 77.9906 152.436 78.0958C152.085 78.2273 151.772 78.3456 151.485 78.4508C151.209 78.5559 150.959 78.648 150.734 78.7532C150.509 78.832 150.296 78.9241 150.108 79.003C149.795 79.1344 149.545 79.2396 149.345 79.3185C149.082 79.4368 148.92 79.5289 148.844 79.5551C148.832 79.5683 148.819 79.5683 148.819 79.5683L125.496 85.8922L121.992 87.0492C121.579 86.4707 121.742 85.8133 122.017 85.3006C122.067 85.1954 122.118 85.1165 122.168 85.0376C122.268 84.8799 122.368 84.7484 122.455 84.6564C122.53 84.538 122.606 84.4723 122.606 84.4723L154.6 55.916L196.242 68.9189C197.193 69.2081 198.044 69.8523 198.494 70.7858Z" fill="url(#paint1_linear_2440_10690)"/>
<path d="M148.82 79.5684V83.3417L145.228 85.9054C144.828 86.0632 144.415 86.2341 144.015 86.3656C143.764 86.4576 143.514 86.5497 143.276 86.6154C143.239 86.6285 143.214 86.6285 143.176 86.6417C142.851 86.7469 142.538 86.8389 142.213 86.9178C141.925 86.9967 141.637 87.0756 141.35 87.1413C141.325 87.1413 141.3 87.1544 141.274 87.1544C140.949 87.2333 140.636 87.2991 140.311 87.3517C140.073 87.3911 139.848 87.4305 139.61 87.4568C139.385 87.4963 139.172 87.5226 138.947 87.5489C138.672 87.5883 138.397 87.6146 138.121 87.6409C138.046 87.654 137.984 87.654 137.921 87.654C137.571 87.6935 137.22 87.7066 136.883 87.7198C136.52 87.7329 136.157 87.7461 135.794 87.7461C135.344 87.7461 134.906 87.7461 134.48 87.7198C134.443 87.7198 134.405 87.7198 134.368 87.7066C134.267 87.7066 134.167 87.7066 134.067 87.6935C133.93 87.6935 133.792 87.6803 133.654 87.6672C133.567 87.6672 133.479 87.6672 133.392 87.6409C133.141 87.6278 132.891 87.6015 132.653 87.5752C132.403 87.5489 132.165 87.5226 131.928 87.4831C131.702 87.4568 131.465 87.4305 131.239 87.3911C131.089 87.3648 130.939 87.3385 130.801 87.3122C130.501 87.2728 130.226 87.2202 129.951 87.1544C129.813 87.1281 129.675 87.1019 129.55 87.0756C129.413 87.0493 129.287 87.023 129.162 86.9967C128.912 86.9441 128.674 86.8783 128.437 86.8258C128.324 86.7995 128.211 86.7732 128.111 86.7337C127.886 86.6811 127.686 86.6154 127.486 86.5628C127.385 86.5365 127.298 86.5102 127.21 86.4839C127.023 86.4313 126.86 86.3787 126.697 86.3262C126.51 86.2604 126.334 86.1947 126.184 86.1552C125.884 86.0369 125.671 85.958 125.571 85.9317C125.521 85.9317 125.496 85.9054 125.496 85.9054L148.82 79.5684Z" fill="url(#paint2_linear_2440_10690)"/>
<path d="M195.754 70.8652L195.454 71.9696C195.304 72.4955 195.079 72.982 194.766 73.4027C194.716 73.4816 194.653 73.5473 194.591 73.6262C194.541 73.6919 194.466 73.7577 194.403 73.8366C194.24 74.0075 194.065 74.1521 193.878 74.2967C193.427 74.6123 192.964 74.9147 192.501 75.1907C192.088 75.4537 191.663 75.6904 191.237 75.927C191.187 75.9533 191.137 75.9796 191.087 76.0059C190.837 76.1374 190.599 76.2688 190.349 76.3872C190.011 76.5581 189.673 76.7159 189.335 76.8868C189.023 77.0314 188.71 77.1629 188.397 77.3075C188.347 77.3206 188.309 77.3469 188.259 77.3601C188.247 77.3732 188.222 77.3732 188.209 77.3864C188.072 77.439 187.947 77.5047 187.809 77.5573C187.446 77.7019 187.096 77.8465 186.72 77.978C186.495 78.07 186.245 78.1489 186.007 78.241C185.532 78.4119 185.069 78.5696 184.593 78.7274C183.53 79.0692 182.504 79.3585 181.553 79.5951C181.052 79.7266 180.577 79.8318 180.126 79.937C179.938 79.9764 179.751 80.0159 179.576 80.0553C178.862 80.1999 178.212 80.3183 177.674 80.4103C177.398 80.4497 177.148 80.4892 176.923 80.5286C176.698 80.5681 176.498 80.5944 176.335 80.6206C176.247 80.6206 176.172 80.6338 176.097 80.6469C175.959 80.6601 175.859 80.6732 175.784 80.6864C175.697 80.6995 175.659 80.6995 175.659 80.6995V75.0198L195.754 70.8652Z" fill="url(#paint3_linear_2440_10690)"/>
<path d="M251.11 242.255H251.123C251.323 241.94 251.523 241.624 251.698 241.308C251.51 241.624 251.31 241.94 251.11 242.255ZM180.614 79.8182C180.451 79.8577 180.289 79.8971 180.126 79.9365C180.576 79.8314 181.052 79.7262 181.552 79.5947C181.227 79.6736 180.914 79.7525 180.614 79.8182ZM177.674 80.4098C178.212 80.3178 178.862 80.1995 179.575 80.0549C179.4 80.0812 179.225 80.1206 179.05 80.1469C178.549 80.2521 178.086 80.331 177.674 80.4098ZM175.684 80.6859H175.659C175.659 80.6859 175.697 80.6991 175.784 80.6859C175.859 80.6728 175.959 80.6596 176.097 80.6465C175.959 80.6596 175.847 80.6728 175.784 80.6728C175.734 80.6728 175.709 80.6859 175.684 80.6859ZM165.336 75.072C165.686 75.0325 166.037 74.9931 166.4 74.9668C166.275 74.9668 166.137 74.9799 166.012 74.9931C165.787 75.0194 165.561 75.0457 165.336 75.072ZM163.272 75.3481C163.609 75.2955 163.947 75.2429 164.285 75.2035C164.097 75.2166 163.922 75.2429 163.747 75.2692C163.584 75.2955 163.422 75.3218 163.272 75.3481ZM161.295 75.6899C161.42 75.6636 161.557 75.6373 161.682 75.611C161.657 75.6242 161.607 75.6242 161.582 75.6242C161.482 75.6505 161.395 75.6636 161.295 75.6899ZM158.529 76.2815C158.679 76.2421 158.83 76.2027 158.98 76.1764C158.83 76.2027 158.679 76.229 158.542 76.2684H158.529V76.2815Z" fill="white"/>
<path d="M246.793 250.472C245.955 250.498 245.054 250.512 244.103 250.512H244.09C241.563 250.498 238.697 250.327 235.632 249.894C232.041 249.407 228.187 248.539 224.32 247.119C224.32 247.119 219.078 245.2 212.571 240.677C209.506 238.574 206.177 235.892 202.961 232.565C200.709 230.843 198.545 228.542 196.492 225.663C192.301 219.733 188.822 212.436 186.232 202.891C183.529 192.847 181.79 180.409 181.165 164.632C179.976 133.867 174.946 127.57 180.689 117.459C184.293 111.175 176.86 107.362 176.86 107.362C176.86 107.362 173.056 103.536 171.492 99.9074C170.879 98.4612 169.603 97.4094 168.151 96.9624L165.862 96.2787V90.7305C165.862 90.7305 172.331 90.9803 174.958 85.6818C177.423 80.6989 201.96 77.9643 198.507 70.7858C196.517 70.7069 195.779 70.8646 195.779 70.8646L195.466 71.969C195.316 72.4949 195.091 72.9814 194.778 73.4021C194.728 73.481 194.666 73.5467 194.603 73.6256C194.553 73.6913 194.478 73.7571 194.415 73.836C194.253 74.0069 194.078 74.1515 193.89 74.2961C193.439 74.6117 192.989 74.9141 192.513 75.1902C192.438 75.2427 192.351 75.2953 192.263 75.3479C192.226 75.3742 192.176 75.4005 192.126 75.4268C191.838 75.5977 191.55 75.7555 191.25 75.9264C191.2 75.9527 191.15 75.979 191.1 76.0053C190.862 76.1368 190.612 76.2551 190.374 76.3866H190.361C190.023 76.5575 189.686 76.7153 189.348 76.8862C189.21 76.9519 189.06 77.0177 188.922 77.0834H188.91C188.747 77.1623 188.572 77.2412 188.409 77.3069C188.359 77.32 188.322 77.3463 188.272 77.3595C188.259 77.3726 188.234 77.3726 188.222 77.3858C188.084 77.4384 187.959 77.5041 187.821 77.5567C187.458 77.7013 187.108 77.8459 186.733 77.9774C186.507 78.0695 186.257 78.1483 186.019 78.2404C185.544 78.4113 185.081 78.5691 184.605 78.7268C183.542 79.0687 182.516 79.3579 181.565 79.5946C181.064 79.726 180.589 79.8312 180.138 79.9364C179.951 79.9758 179.763 80.0153 179.588 80.0547C178.875 80.1993 178.224 80.3177 177.686 80.4097C177.411 80.4623 177.16 80.5017 176.935 80.528C176.71 80.5675 176.51 80.5938 176.347 80.6201C176.26 80.6201 176.184 80.6332 176.109 80.6464C175.972 80.6595 175.872 80.6726 175.797 80.6858C175.709 80.6989 175.671 80.6989 175.671 80.6989V75.0324C174.858 74.9404 174.045 74.8746 173.232 74.822C170.879 74.7037 168.589 74.7694 166.412 74.9667C166.049 74.9929 165.699 75.0324 165.349 75.0718C165.186 75.0718 165.023 75.1113 164.873 75.1244C164.673 75.1507 164.485 75.177 164.298 75.2033C163.96 75.2427 163.622 75.2953 163.284 75.3479C162.733 75.4268 162.208 75.5188 161.695 75.6109C161.57 75.6372 161.432 75.6635 161.307 75.6898C161.194 75.7161 161.069 75.7292 160.957 75.7555C160.756 75.7949 160.556 75.8344 160.356 75.8738H160.344L159.443 76.071C159.292 76.1105 159.142 76.1499 158.992 76.1762C158.842 76.2025 158.692 76.242 158.542 76.2814H158.529C158.454 76.2945 158.379 76.3208 158.317 76.334C158.266 76.3471 158.229 76.3603 158.179 76.3734C157.803 76.4655 157.416 76.5575 157.053 76.6627C156.915 76.689 156.777 76.7416 156.64 76.7679C156.577 76.7941 156.515 76.7941 156.465 76.8204C156.139 76.9125 155.814 77.0177 155.514 77.0965C155.126 77.2017 154.75 77.32 154.4 77.4384C154.05 77.5567 153.724 77.6619 153.412 77.7671C153.399 77.7671 153.374 77.7802 153.362 77.7802C153.036 77.8854 152.736 77.9906 152.448 78.0957C152.098 78.2272 151.785 78.3455 151.497 78.4507C151.234 78.5559 150.984 78.6479 150.746 78.7531C150.521 78.832 150.308 78.924 150.121 79.0029C149.808 79.1344 149.558 79.2396 149.357 79.3185C149.095 79.4368 148.932 79.5288 148.857 79.5551C148.844 79.5683 148.832 79.5683 148.832 79.5683V83.3416L145.241 85.9053C144.84 86.0763 144.44 86.234 144.027 86.3655C143.789 86.4575 143.539 86.5496 143.289 86.6153C143.251 86.6284 143.226 86.6284 143.189 86.6416C142.863 86.7599 142.538 86.852 142.225 86.9177C141.938 86.9966 141.65 87.0755 141.362 87.1412C141.337 87.1412 141.312 87.1543 141.287 87.1543C140.962 87.2332 140.649 87.299 140.323 87.3516C140.086 87.391 139.86 87.4304 139.623 87.4567C139.397 87.4962 139.172 87.5356 138.96 87.5488C138.684 87.5882 138.409 87.6145 138.134 87.6408C138.059 87.6539 137.996 87.6539 137.933 87.6539C137.583 87.6934 137.233 87.7065 136.895 87.7197C136.532 87.7328 136.169 87.746 135.806 87.746C135.356 87.746 134.918 87.746 134.493 87.7197C134.455 87.7197 134.417 87.7197 134.38 87.7065C134.28 87.7065 134.18 87.7065 134.08 87.6934C133.942 87.6934 133.804 87.6802 133.667 87.6671C133.579 87.6671 133.492 87.6671 133.404 87.6408C133.154 87.6277 132.903 87.6014 132.666 87.5751C132.415 87.5488 132.178 87.5225 131.94 87.483C131.715 87.4567 131.477 87.4304 131.252 87.391C131.102 87.3647 130.951 87.3384 130.814 87.3121C130.514 87.2727 130.226 87.2201 129.963 87.1543C129.825 87.1281 129.688 87.1018 129.563 87.0755C129.425 87.0492 129.3 87.0229 129.175 86.9966C128.924 86.944 128.687 86.8782 128.449 86.8257C128.336 86.7994 128.224 86.7731 128.124 86.7336C127.898 86.681 127.686 86.6284 127.498 86.5627C127.398 86.5364 127.31 86.5101 127.223 86.4838C127.035 86.4312 126.872 86.3786 126.71 86.3261C126.522 86.2735 126.347 86.2077 126.197 86.1551C125.909 86.0631 125.696 85.9842 125.584 85.9316C125.533 85.9316 125.508 85.9053 125.508 85.9053L122.005 87.0492C122.931 89.2053 127.035 92.0452 143.602 88.9555L142.801 90.3755C142.1 91.5719 141.049 92.4922 139.835 92.9918C133.079 95.7791 110.456 105.876 111.069 115.947C111.757 127.517 120.891 130.449 121.342 130.567C120.941 129.87 108.141 108.558 133.792 103.089C133.792 103.089 114.66 118.958 128.524 127.53C128.361 126.939 124.795 113.462 139.785 103.339C155.088 92.9918 154.851 80.1336 156.289 85.9448C157.716 91.7297 157.24 94.5038 157.24 94.5038L153.136 97.8958C151.56 99.1843 150.421 100.946 149.745 102.931C148.569 106.402 145.829 111.885 145.616 115.697C145.166 123.454 142.726 125.058 143.101 129.897C143.802 139.337 159.155 137.641 154.375 143.688C149.595 149.749 147.406 158.44 144.077 166.131C128.649 201.945 116.099 226.149 79.4746 237.509C79.4746 237.509 98.5063 237.89 101.009 240.546C101.009 240.546 128.649 230.725 146.592 184.577C143.889 205.823 132.716 225.084 117.288 239.533C117.288 239.533 112.633 245.331 119.202 247.225C127.923 246.988 139.322 265.644 168.714 265.644C182.115 265.644 194.453 264.619 194.453 264.619C194.453 264.619 179.901 258.295 174.245 246.594C165.374 228.305 164.185 197.409 174.958 173.467C168.815 202.55 170.879 227.07 177.261 239.915C182.328 250.143 189.573 256.323 189.573 256.323C195.541 261.398 201.072 263.33 202.373 263.79C206.578 265.197 209.931 265.71 212.796 265.631C214.823 265.579 216.963 265.605 219.215 265.565C220.179 265.644 221.142 265.684 222.118 265.684C234.831 265.684 246.167 259.518 253.587 249.867C252.386 250.051 249.984 250.367 246.806 250.472H246.793ZM160.756 134.235C155.376 134.419 150.709 127.806 150.709 127.806C152.511 124.782 153.224 117.196 153.224 117.196C153.537 114.659 156.089 115.697 156.089 115.697C158.417 118.156 161.482 125.729 161.482 125.729L160.756 134.235Z" fill="url(#paint4_linear_2440_10690)"/>
</g>
<defs>
<linearGradient id="paint0_linear_2440_10690" x1="58.5608" y1="7.29095e-06" x2="447.232" y2="-74.6569" gradientUnits="userSpaceOnUse">
<stop stop-color="#FFD500"/>
<stop offset="0.397725" stop-color="#E2D48E"/>
<stop offset="0.560916" stop-color="#F6D948"/>
<stop offset="0.735577" stop-color="#E4C322"/>
<stop offset="0.837286" stop-color="#D7CC97"/>
<stop offset="1" stop-color="#BEA631"/>
</linearGradient>
<linearGradient id="paint1_linear_2440_10690" x1="135.744" y1="55.916" x2="291.74" y2="82.4043" gradientUnits="userSpaceOnUse">
<stop stop-color="#FFD500"/>
<stop offset="0.397725" stop-color="#E2D48E"/>
<stop offset="0.560916" stop-color="#F6D948"/>
<stop offset="0.735577" stop-color="#E4C322"/>
<stop offset="0.837286" stop-color="#D7CC97"/>
<stop offset="1" stop-color="#BEA631"/>
</linearGradient>
<linearGradient id="paint2_linear_2440_10690" x1="129.751" y1="79.5684" x2="176.71" y2="88.793" gradientUnits="userSpaceOnUse">
<stop stop-color="#FFD500"/>
<stop offset="0.397725" stop-color="#E2D48E"/>
<stop offset="0.560916" stop-color="#F6D948"/>
<stop offset="0.735577" stop-color="#E4C322"/>
<stop offset="0.837286" stop-color="#D7CC97"/>
<stop offset="1" stop-color="#BEA631"/>
</linearGradient>
<linearGradient id="paint3_linear_2440_10690" x1="179.325" y1="70.8652" x2="220.529" y2="76.6644" gradientUnits="userSpaceOnUse">
<stop stop-color="#FFD500"/>
<stop offset="0.397725" stop-color="#E2D48E"/>
<stop offset="0.560916" stop-color="#F6D948"/>
<stop offset="0.735577" stop-color="#E4C322"/>
<stop offset="0.837286" stop-color="#D7CC97"/>
<stop offset="1" stop-color="#BEA631"/>
</linearGradient>
<linearGradient id="paint4_linear_2440_10690" x1="111.238" y1="70.7637" x2="234.575" y2="73.3584" gradientUnits="userSpaceOnUse">
<stop stop-color="#FFD500"/>
<stop offset="0.397725" stop-color="#E2D48E"/>
<stop offset="0.560916" stop-color="#F6D948"/>
<stop offset="0.735577" stop-color="#E4C322"/>
<stop offset="0.837286" stop-color="#D7CC97"/>
<stop offset="1" stop-color="#BEA631"/>
</linearGradient>
<clipPath id="clip0_2440_10690">
<rect width="187.617" height="210.11" fill="white" transform="translate(78.6958 55.916)"/>
</clipPath>
</defs>
</svg>
