<svg width="20" height="20" viewBox="0 0 20 20" fill="none" xmlns="http://www.w3.org/2000/svg">
<path d="M4.99996 3.33337H7.08329C7.44248 3.33337 7.78595 3.47613 8.039 3.72918L9.16662 4.8568C9.36157 5.05175 9.47223 5.31604 9.47223 5.59145C9.47223 6.16269 9.93332 6.62379 10.5046 6.62379H12.0833C13.0038 6.62379 13.75 7.36998 13.75 8.29046V16.6667C13.75 17.5872 13.0038 18.3334 12.0833 18.3334H4.99996C4.07948 18.3334 3.33329 17.5872 3.33329 16.6667V5.00004C3.33329 4.07957 4.07948 3.33337 4.99996 3.33337Z" stroke="#99A1AF" stroke-width="1.66667" stroke-linecap="round" stroke-linejoin="round"/>
<path d="M11.6667 3.33337V5.83337C11.6667 6.37365 12.1264 6.83337 12.6667 6.83337H15.0001" stroke="#99A1AF" stroke-width="1.66667" stroke-linecap="round" stroke-linejoin="round"/>
<path d="M6.66663 11.6667H10" stroke="#99A1AF" stroke-width="1.66667" stroke-linecap="round" stroke-linejoin="round"/>
<path d="M6.66663 14.1667H10" stroke="#99A1AF" stroke-width="1.66667" stroke-linecap="round" stroke-linejoin="round"/>
</svg>
