<svg width="448" height="83" viewBox="0 0 448 83" fill="none" xmlns="http://www.w3.org/2000/svg">
<mask id="path-1-inside-1_902_3837" fill="white">
<path d="M0 16C0 7.16344 7.16344 0 16 0H432C440.837 0 448 7.16344 448 16V80.8H0V16Z"/>
</mask>
<path d="M0 16C0 7.16344 7.16344 0 16 0H432C440.837 0 448 7.16344 448 16V80.8H0V16Z" fill="white"/>
<path d="M0 0H448H0M448 81.6H0V80H448V81.6ZM448 80M0 80.8V0V80.8M0 80.8M448 0V80.8V0" fill="#F3F4F6" mask="url(#path-1-inside-1_902_3837)"/>
<g clip-path="url(#clip0_902_3837)">
<path d="M57.2186 31.5262C56.7732 31.5086 56.6079 31.5439 56.6079 31.5439H56.6051L52.1066 32.4732C51.9245 32.4526 51.7397 32.4379 51.5604 32.4291C51.0338 32.3997 50.5212 32.4144 50.0338 32.4614C49.9526 32.4673 49.8741 32.4762 49.7957 32.485C49.7593 32.485 49.7229 32.4938 49.6893 32.4967C49.6444 32.5026 49.6024 32.5085 49.5604 32.5144C49.4848 32.5232 49.4092 32.535 49.3335 32.5467C49.2103 32.5644 49.0926 32.585 48.9778 32.6056C48.9498 32.6114 48.919 32.6173 48.891 32.6232C48.8658 32.6291 48.8377 32.632 48.8125 32.6379C48.7677 32.6467 48.7229 32.6556 48.6781 32.6644H48.6753L48.4736 32.7085C48.44 32.7173 48.4064 32.7261 48.3728 32.732C48.3391 32.7379 48.3055 32.7467 48.2719 32.7555H48.2691C48.2523 32.7585 48.2355 32.7644 48.2215 32.7673C48.2103 32.7703 48.2019 32.7732 48.1907 32.7761C48.1039 32.7967 48.0198 32.8173 47.9386 32.8408C47.9078 32.8467 47.877 32.8585 47.8462 32.8644C47.8322 32.8702 47.8181 32.8702 47.8069 32.8761C47.7341 32.8967 47.6613 32.9202 47.5941 32.9379C47.5072 32.9614 47.4232 32.9879 47.3448 33.0144C47.2663 33.0408 47.1935 33.0644 47.1235 33.0879C47.1207 33.0879 47.1151 33.0908 47.1123 33.0908C47.0394 33.1143 46.9722 33.1379 46.9078 33.1614C46.8294 33.1908 46.7593 33.2173 46.6949 33.2408C46.6333 33.2643 46.5773 33.2849 46.5269 33.3085C46.4764 33.3261 46.4288 33.3467 46.3868 33.3643C46.3168 33.3937 46.2608 33.4173 46.2159 33.4349C46.1571 33.4614 46.1207 33.482 46.1039 33.4879C46.1011 33.4908 46.0983 33.4908 46.0983 33.4908L40.8771 34.9054L40.0928 35.1642C40.0004 35.0348 40.0368 34.8878 40.0984 34.7731C40.1096 34.7495 40.1208 34.7319 40.132 34.7143C40.1544 34.679 40.1768 34.6495 40.1964 34.629C40.2132 34.6025 40.23 34.5878 40.23 34.5878L47.3924 28.2L56.7144 31.1086C56.9272 31.1733 57.1177 31.3174 57.2186 31.5262Z" fill="#730707"/>
<path d="M46.0983 33.4908V34.3348L45.2944 34.9083C45.2047 34.9436 45.1123 34.9819 45.0227 35.0113C44.9666 35.0319 44.9106 35.0525 44.8574 35.0672C44.849 35.0701 44.8434 35.0701 44.835 35.073C44.7622 35.0966 44.6921 35.1172 44.6193 35.1348C44.5549 35.1524 44.4905 35.1701 44.426 35.1848C44.4204 35.1848 44.4148 35.1877 44.4092 35.1877C44.3364 35.2054 44.2664 35.2201 44.1935 35.2319C44.1403 35.2407 44.0899 35.2495 44.0367 35.2554C43.9863 35.2642 43.9386 35.2701 43.8882 35.276C43.8266 35.2848 43.765 35.2907 43.7034 35.2966C43.6866 35.2995 43.6725 35.2995 43.6585 35.2995C43.5801 35.3083 43.5017 35.3113 43.4261 35.3142C43.3448 35.3171 43.2636 35.3201 43.1824 35.3201C43.0815 35.3201 42.9835 35.3201 42.8882 35.3142C42.8798 35.3142 42.8714 35.3142 42.863 35.3113C42.8406 35.3113 42.8182 35.3113 42.7958 35.3083C42.765 35.3083 42.7342 35.3054 42.7034 35.3024C42.6838 35.3024 42.6642 35.3024 42.6446 35.2966C42.5885 35.2936 42.5325 35.2877 42.4793 35.2818C42.4233 35.276 42.37 35.2701 42.3168 35.2613C42.2664 35.2554 42.2132 35.2495 42.1628 35.2407C42.1292 35.2348 42.0955 35.2289 42.0647 35.223C41.9975 35.2142 41.9359 35.2024 41.8743 35.1877C41.8434 35.1819 41.8126 35.176 41.7846 35.1701C41.7538 35.1642 41.7258 35.1583 41.6978 35.1524C41.6418 35.1407 41.5885 35.126 41.5353 35.1142C41.5101 35.1083 41.4849 35.1024 41.4625 35.0936C41.4121 35.0819 41.3673 35.0672 41.3224 35.0554C41.3 35.0495 41.2804 35.0436 41.2608 35.0377C41.2188 35.026 41.1824 35.0142 41.146 35.0025C41.104 34.9877 41.0647 34.973 41.0311 34.9642C40.9639 34.9378 40.9163 34.9201 40.8939 34.9142C40.8827 34.9142 40.8771 34.9083 40.8771 34.9083L46.0983 33.4908Z" fill="#730707"/>
<path d="M56.6051 31.5439L56.5379 31.7909C56.5043 31.9085 56.4538 32.0174 56.3838 32.1115C56.3726 32.1291 56.3586 32.1438 56.3446 32.1615C56.3334 32.1762 56.3166 32.1909 56.3026 32.2085C56.2662 32.2468 56.2269 32.2791 56.1849 32.3115C56.0841 32.382 55.9805 32.4497 55.8768 32.5114C55.7844 32.5703 55.6891 32.6232 55.5939 32.6761C55.5827 32.682 55.5715 32.6879 55.5603 32.6938C55.5043 32.7232 55.4511 32.7526 55.395 32.7791C55.3194 32.8173 55.2438 32.8526 55.1681 32.8908C55.0981 32.9232 55.0281 32.9526 54.9581 32.9849C54.9469 32.9879 54.9385 32.9938 54.9273 32.9967C54.9244 32.9996 54.9188 32.9996 54.916 33.0026C54.8852 33.0143 54.8572 33.0291 54.8264 33.0408C54.7452 33.0732 54.6667 33.1055 54.5827 33.1349C54.5323 33.1555 54.4763 33.1732 54.4231 33.1938C54.3166 33.232 54.213 33.2673 54.1065 33.3026C53.8684 33.379 53.6388 33.4437 53.4259 33.4967C53.3138 33.5261 53.2074 33.5496 53.1066 33.5731C53.0645 33.582 53.0225 33.5908 52.9833 33.5996C52.8236 33.632 52.678 33.6584 52.5575 33.679C52.4959 33.6878 52.4399 33.6967 52.3895 33.7055C52.3391 33.7143 52.2942 33.7202 52.2578 33.7261C52.2382 33.7261 52.2214 33.729 52.2046 33.732C52.1738 33.7349 52.1514 33.7378 52.1346 33.7408C52.115 33.7437 52.1066 33.7437 52.1066 33.7437V32.4732L56.6051 31.5439Z" fill="#730707"/>
<path d="M68.9971 69.8826H68.9999C69.0447 69.8121 69.0895 69.7415 69.1287 69.6709C69.0867 69.7415 69.0419 69.8121 68.9971 69.8826ZM53.2158 33.5467C53.1794 33.5555 53.143 33.5643 53.1066 33.5732C53.2074 33.5496 53.3138 33.5261 53.4259 33.4967C53.3531 33.5143 53.283 33.532 53.2158 33.5467ZM52.5576 33.679C52.678 33.6584 52.8237 33.632 52.9833 33.5996C52.9441 33.6055 52.9049 33.6143 52.8657 33.6202C52.7536 33.6437 52.65 33.6614 52.5576 33.679ZM52.1122 33.7408H52.1066C52.1066 33.7408 52.115 33.7437 52.1346 33.7408C52.1514 33.7378 52.1738 33.7349 52.2046 33.732C52.1738 33.7349 52.1486 33.7378 52.1346 33.7378C52.1234 33.7378 52.1178 33.7408 52.1122 33.7408ZM49.7957 32.485C49.8741 32.4762 49.9526 32.4673 50.0338 32.4615C50.0058 32.4615 49.975 32.4644 49.947 32.4673C49.8965 32.4732 49.8461 32.4791 49.7957 32.485ZM49.3335 32.5467C49.4091 32.535 49.4848 32.5232 49.5604 32.5144C49.5184 32.5173 49.4792 32.5232 49.44 32.5291C49.4035 32.535 49.3671 32.5409 49.3335 32.5467ZM48.8909 32.6232C48.919 32.6173 48.9498 32.6114 48.9778 32.6056C48.9722 32.6085 48.961 32.6085 48.9554 32.6085C48.933 32.6144 48.9134 32.6173 48.8909 32.6232ZM48.2719 32.7556C48.3055 32.7467 48.3391 32.7379 48.3727 32.732C48.3391 32.7379 48.3055 32.7438 48.2747 32.7526H48.2719V32.7556Z" fill="white"/>
<path d="M68.0307 71.7208C67.843 71.7266 67.6413 71.7296 67.4285 71.7296H67.4257C66.8598 71.7266 66.2184 71.6884 65.5321 71.5914C64.7282 71.4825 63.8655 71.2884 63 70.9708C63 70.9708 61.8263 70.5414 60.3698 69.5297C59.6835 69.0592 58.9384 68.4592 58.2185 67.7151C57.7143 67.3299 57.2298 66.8152 56.7704 66.1711C55.832 64.8447 55.0533 63.2125 54.4735 61.0773C53.8685 58.8304 53.4791 56.0482 53.3391 52.519C53.073 45.6371 51.9469 44.2284 53.2326 41.9667C54.0393 40.5609 52.3755 39.7081 52.3755 39.7081C52.3755 39.7081 51.524 38.8522 51.1738 38.0405C51.0366 37.717 50.7509 37.4817 50.4259 37.3817L49.9133 37.2288V35.9877C49.9133 35.9877 51.3615 36.0436 51.9497 34.8584C52.5015 33.7437 57.9944 33.132 57.2213 31.5262C56.776 31.5086 56.6107 31.5439 56.6107 31.5439L56.5407 31.7909C56.5071 31.9085 56.4567 32.0174 56.3866 32.1115C56.3754 32.1291 56.3614 32.1438 56.3474 32.1615C56.3362 32.1762 56.3194 32.1909 56.3054 32.2085C56.269 32.2468 56.2298 32.2791 56.1878 32.3115C56.0869 32.382 55.9861 32.4497 55.8796 32.5114C55.8628 32.5232 55.8432 32.535 55.8236 32.5467C55.8152 32.5526 55.804 32.5585 55.7928 32.5644C55.7284 32.6026 55.664 32.6379 55.5967 32.6761C55.5855 32.682 55.5743 32.6879 55.5631 32.6938C55.5099 32.7232 55.4539 32.7497 55.4006 32.7791H55.3979C55.3222 32.8173 55.2466 32.8526 55.171 32.8908C55.1402 32.9055 55.1065 32.9202 55.0757 32.9349H55.0729C55.0365 32.9526 54.9973 32.9702 54.9609 32.9849C54.9497 32.9879 54.9413 32.9938 54.9301 32.9967C54.9273 32.9996 54.9217 32.9996 54.9189 33.0026C54.8881 33.0144 54.86 33.0291 54.8292 33.0408C54.748 33.0732 54.6696 33.1055 54.5855 33.1349C54.5351 33.1555 54.4791 33.1732 54.4259 33.1938C54.3194 33.232 54.2158 33.2673 54.1094 33.3026C53.8713 33.379 53.6416 33.4437 53.4287 33.4967C53.3167 33.5261 53.2102 33.5496 53.1094 33.5731C53.0674 33.582 53.0253 33.5908 52.9861 33.5996C52.8265 33.632 52.6808 33.6584 52.5604 33.679C52.4987 33.6908 52.4427 33.6996 52.3923 33.7055C52.3419 33.7143 52.2971 33.7202 52.2606 33.7261C52.241 33.7261 52.2242 33.729 52.2074 33.732C52.1766 33.7349 52.1542 33.7378 52.1374 33.7408C52.1178 33.7437 52.1094 33.7437 52.1094 33.7437V32.4762C51.9273 32.4556 51.7453 32.4409 51.5632 32.4291C51.0366 32.4026 50.524 32.4173 50.0366 32.4614C49.9554 32.4673 49.8769 32.4762 49.7985 32.485C49.7621 32.485 49.7257 32.4938 49.6921 32.4967C49.6472 32.5026 49.6052 32.5085 49.5632 32.5144C49.4876 32.5232 49.412 32.535 49.3363 32.5467C49.2131 32.5644 49.0954 32.585 48.9806 32.6056C48.9526 32.6114 48.9218 32.6173 48.8938 32.6232C48.8685 32.6291 48.8405 32.632 48.8153 32.6379C48.7705 32.6467 48.7257 32.6556 48.6809 32.6644H48.6781L48.4764 32.7085C48.4428 32.7173 48.4092 32.7261 48.3756 32.732C48.3419 32.7379 48.3083 32.7467 48.2747 32.7555H48.2719C48.2551 32.7585 48.2383 32.7644 48.2243 32.7673C48.2131 32.7703 48.2047 32.7732 48.1935 32.7761C48.1095 32.7967 48.0226 32.8173 47.9414 32.8408C47.9106 32.8467 47.8798 32.8585 47.849 32.8644C47.835 32.8702 47.8209 32.8702 47.8097 32.8761C47.7369 32.8967 47.6641 32.9202 47.5969 32.9379C47.51 32.9614 47.426 32.9879 47.3476 33.0144C47.2691 33.0408 47.1963 33.0644 47.1263 33.0879C47.1235 33.0879 47.1179 33.0908 47.1151 33.0908C47.0422 33.1143 46.975 33.1379 46.9106 33.1614C46.8322 33.1908 46.7621 33.2173 46.6977 33.2408C46.6389 33.2643 46.5829 33.2849 46.5297 33.3085C46.4792 33.3261 46.4316 33.3467 46.3896 33.3643C46.3196 33.3937 46.2636 33.4173 46.2187 33.4349C46.1599 33.4614 46.1235 33.482 46.1067 33.4879C46.1039 33.4908 46.1011 33.4908 46.1011 33.4908V34.3349L45.2972 34.9084C45.2075 34.9466 45.1179 34.9819 45.0255 35.0113C44.9723 35.0319 44.9162 35.0525 44.8602 35.0672C44.8518 35.0701 44.8462 35.0701 44.8378 35.073C44.765 35.0995 44.6921 35.1201 44.6221 35.1348C44.5577 35.1525 44.4933 35.1701 44.4288 35.1848C44.4232 35.1848 44.4176 35.1877 44.412 35.1877C44.3392 35.2054 44.2692 35.2201 44.1964 35.2319C44.1431 35.2407 44.0927 35.2495 44.0395 35.2554C43.9891 35.2642 43.9387 35.273 43.891 35.276C43.8294 35.2848 43.7678 35.2907 43.7062 35.2966C43.6894 35.2995 43.6754 35.2995 43.6614 35.2995C43.5829 35.3083 43.5045 35.3113 43.4289 35.3142C43.3476 35.3172 43.2664 35.3201 43.1852 35.3201C43.0843 35.3201 42.9863 35.3201 42.8911 35.3142C42.8827 35.3142 42.8743 35.3142 42.8658 35.3113C42.8434 35.3113 42.821 35.3113 42.7986 35.3083C42.7678 35.3083 42.737 35.3054 42.7062 35.3024C42.6866 35.3024 42.667 35.3024 42.6474 35.2966C42.5913 35.2936 42.5353 35.2877 42.4821 35.2819C42.4261 35.276 42.3729 35.2701 42.3196 35.2613C42.2692 35.2554 42.216 35.2495 42.1656 35.2407C42.132 35.2348 42.0984 35.2289 42.0675 35.223C42.0003 35.2142 41.9359 35.2025 41.8771 35.1877C41.8463 35.1819 41.8154 35.176 41.7874 35.1701C41.7566 35.1642 41.7286 35.1583 41.7006 35.1525C41.6446 35.1407 41.5914 35.126 41.5381 35.1142C41.5129 35.1083 41.4877 35.1025 41.4653 35.0936C41.4149 35.0819 41.3673 35.0701 41.3253 35.0554C41.3028 35.0495 41.2832 35.0436 41.2636 35.0378C41.2216 35.026 41.1852 35.0142 41.1488 35.0025C41.1068 34.9907 41.0676 34.976 41.0339 34.9642C40.9695 34.9436 40.9219 34.926 40.8967 34.9142C40.8855 34.9142 40.8799 34.9084 40.8799 34.9084L40.0956 35.1642C40.3029 35.6465 41.2216 36.2818 44.9302 35.5907L44.751 35.9083C44.5941 36.1759 44.3588 36.3818 44.0871 36.4935C42.5745 37.117 37.5102 39.3757 37.6474 41.6285C37.8015 44.2166 39.8463 44.8724 39.9471 44.8989C39.8575 44.743 36.992 39.9757 42.7342 38.7522C42.7342 38.7522 38.4514 42.302 41.5549 44.2195C41.5185 44.0872 40.7202 41.0727 44.0759 38.8081C47.5016 36.4935 47.4484 33.6173 47.7705 34.9172C48.0899 36.2112 47.9834 36.8318 47.9834 36.8318L47.0647 37.5905C46.7117 37.8788 46.4568 38.2728 46.3056 38.7169C46.0423 39.4934 45.4288 40.7198 45.3812 41.5726C45.2804 43.3078 44.7342 43.6666 44.8182 44.7489C44.9751 46.8605 48.412 46.4812 47.342 47.834C46.272 49.1898 45.7818 51.1338 45.0367 52.8543C41.583 60.8656 38.7735 66.2799 30.5747 68.8209C30.5747 68.8209 34.8352 68.9062 35.3954 69.5003C35.3954 69.5003 41.583 67.3034 45.5997 56.9805C44.9947 61.7331 42.4933 66.0417 39.0396 69.2738C39.0396 69.2738 37.9976 70.5708 39.4681 70.9943C41.4205 70.9414 43.9723 75.1147 50.552 75.1147C53.5519 75.1147 56.3138 74.8853 56.3138 74.8853C56.3138 74.8853 53.0562 73.4706 51.7901 70.8532C49.8041 66.7622 49.538 59.8509 51.9497 54.4954C50.5744 61.0008 51.0366 66.4858 52.4651 69.3591C53.5996 71.6472 55.2214 73.0295 55.2214 73.0295C56.5575 74.1647 57.7956 74.597 58.0869 74.7C59.028 75.0147 59.7787 75.1294 60.4202 75.1117C60.874 75.1 61.3529 75.1058 61.8571 75.097C62.0728 75.1147 62.2885 75.1235 62.507 75.1235C65.3529 75.1235 67.8906 73.7442 69.5517 71.5855C69.2828 71.6266 68.745 71.6972 68.0335 71.7208H68.0307ZM48.7705 45.7194C47.5661 45.7606 46.5212 44.2813 46.5212 44.2813C46.9246 43.6049 47.0843 41.9079 47.0843 41.9079C47.1543 41.3403 47.7257 41.5726 47.7257 41.5726C48.2467 42.1226 48.933 43.8166 48.933 43.8166L48.7705 45.7194Z" fill="#730707"/>
</g>
<path d="M418 34L406 46" stroke="#99A1AF" stroke-width="2" stroke-linecap="round" stroke-linejoin="round"/>
<path d="M406 34L418 46" stroke="#99A1AF" stroke-width="2" stroke-linecap="round" stroke-linejoin="round"/>
<defs>
<clipPath id="clip0_902_3837">
<rect width="42" height="47" fill="white" transform="translate(30.4004 28.2)"/>
</clipPath>
</defs>
</svg>
