<svg preserveAspectRatio="none" width="100%" height="100%" overflow="visible" style="display: block;" viewBox="0 0 2201.01 1342.18" fill="none" xmlns="http://www.w3.org/2000/svg">
<g id="Group 39750">
<g id="Group 39724" filter="url(#filter0_d_0_4)">
<path id="Rectangle 5741" d="M827.476 1142.18C827.476 1141.05 827.476 1140.49 827.697 1140.05C827.892 1139.68 828.202 1139.37 828.583 1139.18C829.016 1138.96 829.582 1138.97 830.713 1138.98L1250.68 1143.85C1251.79 1143.87 1252.35 1143.87 1252.77 1144.09C1253.14 1144.29 1253.44 1144.59 1253.63 1144.96C1253.85 1145.39 1253.85 1145.94 1253.85 1147.05V1167.32C1253.85 1168.42 1253.85 1168.97 1253.63 1169.4C1253.45 1169.77 1253.15 1170.07 1252.78 1170.27C1252.36 1170.49 1251.81 1170.5 1250.7 1170.52L830.732 1177.82C829.594 1177.84 829.025 1177.85 828.59 1177.64C828.207 1177.45 827.895 1177.14 827.699 1176.76C827.476 1176.33 827.476 1175.76 827.476 1174.62V1142.18Z" fill="var(--fill-0, #E2D48E)"/>
<path id="Vector 10" d="M31.5 1094L827.532 1139.21L827.532 1176.89L31.5 1222.1L31.5 1094Z" fill="url(#paint0_linear_0_4)"/>
</g>
<g id="Group 39725" filter="url(#filter1_d_0_4)">
<path id="Rectangle 5741_2" d="M830.907 1107.84C831.029 1106.71 831.091 1106.15 831.357 1105.75C831.591 1105.4 831.932 1105.13 832.331 1104.98C832.784 1104.82 833.346 1104.89 834.469 1105.04L1251.96 1159.2C1253.06 1159.35 1253.61 1159.42 1254.01 1159.69C1254.35 1159.92 1254.62 1160.26 1254.77 1160.65C1254.94 1161.1 1254.88 1161.65 1254.76 1162.76L1252.51 1183.32C1252.4 1184.41 1252.34 1184.96 1252.08 1185.36C1251.85 1185.7 1251.52 1185.97 1251.13 1186.12C1250.69 1186.29 1250.14 1186.24 1249.05 1186.13L830.214 1144.25C829.082 1144.14 828.515 1144.08 828.106 1143.82C827.746 1143.58 827.469 1143.24 827.316 1142.84C827.141 1142.39 827.203 1141.82 827.326 1140.69L830.907 1107.84Z" fill="var(--fill-0, #E2D48E)"/>
<path id="Vector 10_2" d="M45.3719 967.16L831.446 1105.27L827.366 1142.71L31.5011 1094.44L45.3719 967.16Z" fill="url(#paint1_linear_0_4)"/>
</g>
<g id="Group 39726" filter="url(#filter2_d_0_4)">
<path id="Rectangle 5741_3" d="M838.192 1074.5C838.436 1073.39 838.558 1072.84 838.866 1072.47C839.136 1072.15 839.504 1071.92 839.916 1071.82C840.383 1071.71 840.932 1071.85 842.031 1072.12L1251.25 1174.88C1252.33 1175.15 1252.87 1175.29 1253.23 1175.6C1253.55 1175.87 1253.78 1176.24 1253.88 1176.65C1254 1177.12 1253.88 1177.66 1253.64 1178.74L1249.19 1198.9C1248.95 1199.97 1248.83 1200.51 1248.53 1200.88C1248.27 1201.2 1247.91 1201.43 1247.51 1201.53C1247.05 1201.65 1246.52 1201.53 1245.44 1201.29L833.556 1110.59C832.445 1110.35 831.89 1110.23 831.512 1109.91C831.181 1109.64 830.943 1109.27 830.834 1108.85C830.711 1108.38 830.833 1107.82 831.079 1106.71L838.192 1074.5Z" fill="var(--fill-0, #E2D48E)"/>
<path id="Vector 10_3" d="M72.8882 842.747L839.008 1072.01L830.901 1108.73L45.323 967.592L72.8882 842.747Z" fill="url(#paint2_linear_0_4)"/>
</g>
<g id="Group 39727" filter="url(#filter3_d_0_4)">
<path id="Rectangle 5741_4" d="M849.047 1042.22C849.41 1041.15 849.591 1040.61 849.937 1040.28C850.241 1039.99 850.631 1039.81 851.049 1039.76C851.525 1039.7 852.054 1039.9 853.113 1040.3L1249.06 1190.48C1250.1 1190.88 1250.62 1191.07 1250.95 1191.43C1251.23 1191.74 1251.42 1192.13 1251.48 1192.55C1251.54 1193.03 1251.36 1193.55 1251.01 1194.6L1244.41 1214.1C1244.05 1215.14 1243.88 1215.66 1243.54 1215.99C1243.25 1216.28 1242.87 1216.47 1242.46 1216.52C1241.99 1216.59 1241.47 1216.41 1240.43 1216.05L840.527 1077.54C839.452 1077.16 838.914 1076.98 838.575 1076.62C838.276 1076.31 838.081 1075.91 838.019 1075.49C837.948 1075 838.13 1074.46 838.495 1073.39L849.047 1042.22Z" fill="var(--fill-0, #E2D48E)"/>
<path id="Vector 10_4" d="M113.703 722.347L850.126 1039.84L838.093 1075.38L72.7939 843.172L113.703 722.347Z" fill="url(#paint3_linear_0_4)"/>
</g>
<g id="Group 39728" filter="url(#filter4_d_0_4)">
<path id="Rectangle 5741_5" d="M863.323 1011.43C863.801 1010.4 864.04 1009.89 864.419 1009.6C864.753 1009.34 865.159 1009.2 865.58 1009.2C866.057 1009.2 866.56 1009.46 867.565 1009.98L1245.18 1205.78C1246.16 1206.29 1246.65 1206.55 1246.94 1206.94C1247.19 1207.28 1247.33 1207.69 1247.34 1208.12C1247.35 1208.6 1247.12 1209.1 1246.65 1210.11L1237.99 1228.69C1237.52 1229.69 1237.29 1230.19 1236.92 1230.47C1236.6 1230.73 1236.2 1230.87 1235.79 1230.88C1235.32 1230.89 1234.82 1230.65 1233.83 1230.17L851.027 1045.51C850.002 1045.01 849.49 1044.76 849.192 1044.37C848.931 1044.03 848.781 1043.61 848.767 1043.18C848.75 1042.69 848.991 1042.17 849.471 1041.14L863.323 1011.43Z" fill="var(--fill-0, #E2D48E)"/>
<path id="Vector 10_5" d="M167.299 607.491L864.659 1009.17L848.855 1043.08L113.567 722.758L167.299 607.491Z" fill="url(#paint4_linear_0_4)"/>
</g>
<g id="Group 39729" filter="url(#filter5_d_0_4)">
<path id="Rectangle 5741_6" d="M880.839 982.498C881.428 981.531 881.722 981.048 882.13 980.802C882.489 980.585 882.908 980.494 883.325 980.541C883.799 980.594 884.268 980.91 885.207 981.543L1239.59 1220.55C1240.51 1221.17 1240.97 1221.48 1241.2 1221.9C1241.41 1222.27 1241.51 1222.7 1241.47 1223.12C1241.43 1223.6 1241.14 1224.07 1240.57 1225.02L1229.96 1242.45C1229.39 1243.39 1229.1 1243.86 1228.7 1244.11C1228.35 1244.32 1227.94 1244.42 1227.53 1244.38C1227.07 1244.34 1226.6 1244.04 1225.67 1243.45L864.926 1014.9C863.966 1014.3 863.486 1013.99 863.234 1013.57C863.013 1013.2 862.911 1012.76 862.945 1012.33C862.983 1011.84 863.279 1011.35 863.87 1010.38L880.839 982.498Z" fill="var(--fill-0, #E2D48E)"/>
<path id="Vector 10_6" d="M232.988 499.639L882.416 980.406L863.041 1012.24L167.115 607.883L232.988 499.639Z" fill="url(#paint5_linear_0_4)"/>
</g>
<g id="Group 39730" filter="url(#filter6_d_0_4)">
<path id="Rectangle 5741_7" d="M901.382 955.806C902.075 954.91 902.421 954.462 902.853 954.264C903.234 954.089 903.659 954.045 904.068 954.139C904.532 954.245 904.962 954.613 905.823 955.349L1232.51 1234.7C1233.36 1235.42 1233.78 1235.78 1233.97 1236.22C1234.14 1236.61 1234.18 1237.05 1234.1 1237.47C1234 1237.94 1233.66 1238.38 1232.98 1239.26L1220.58 1255.31C1219.9 1256.18 1219.56 1256.62 1219.14 1256.82C1218.77 1256.99 1218.35 1257.04 1217.95 1256.96C1217.49 1256.86 1217.06 1256.52 1216.21 1255.82L882.058 986.123C881.174 985.409 880.732 985.052 880.529 984.603C880.351 984.208 880.299 983.765 880.381 983.339C880.474 982.855 880.822 982.405 881.518 981.505L901.382 955.806Z" fill="var(--fill-0, #E2D48E)"/>
<path id="Vector 10_7" d="M309.937 400.163L903.175 953.9L880.476 983.267L232.762 500.007L309.937 400.163Z" fill="url(#paint6_linear_0_4)"/>
</g>
<g id="Group 39731" filter="url(#filter7_d_0_4)">
<path id="Rectangle 5741_8" d="M924.673 931.685C925.461 930.873 925.855 930.467 926.307 930.318C926.705 930.187 927.132 930.191 927.527 930.33C927.976 930.488 928.362 930.903 929.134 931.731L1223.95 1248.02C1224.71 1248.83 1225.09 1249.24 1225.23 1249.7C1225.35 1250.11 1225.34 1250.55 1225.21 1250.95C1225.06 1251.42 1224.68 1251.81 1223.91 1252.61L1209.86 1267.09C1209.09 1267.88 1208.71 1268.28 1208.26 1268.43C1207.87 1268.56 1207.45 1268.56 1207.06 1268.43C1206.62 1268.28 1206.23 1267.89 1205.46 1267.11L902.188 959.527C901.39 958.718 900.991 958.313 900.841 957.844C900.709 957.431 900.707 956.985 900.836 956.571C900.983 956.1 901.379 955.692 902.171 954.876L924.673 931.685Z" fill="var(--fill-0, #E2D48E)"/>
<path id="Vector 10_8" d="M397.176 310.328L926.68 929.993L900.945 956.516L309.68 400.502L397.176 310.328Z" fill="url(#paint7_linear_0_4)"/>
</g>
<g id="Group 39732" filter="url(#filter8_d_0_4)">
<path id="Rectangle 5741_9" d="M950.433 910.445C951.307 909.727 951.745 909.368 952.211 909.272C952.621 909.186 953.045 909.239 953.423 909.421C953.851 909.629 954.188 910.083 954.863 910.992L1213.71 1259.99C1214.37 1260.88 1214.7 1261.33 1214.79 1261.81C1214.86 1262.22 1214.81 1262.66 1214.64 1263.05C1214.44 1263.49 1214.01 1263.84 1213.15 1264.54L1197.65 1277.27C1196.79 1277.97 1196.37 1278.32 1195.91 1278.42C1195.51 1278.5 1195.09 1278.46 1194.72 1278.29C1194.29 1278.09 1193.95 1277.66 1193.27 1276.79L925.077 935.458C924.375 934.564 924.024 934.118 923.928 933.634C923.843 933.21 923.891 932.766 924.066 932.37C924.265 931.919 924.705 931.558 925.584 930.837L950.433 910.445Z" fill="var(--fill-0, #E2D48E)"/>
<path id="Vector 10_9" d="M493.58 231.277L952.615 908.99L924.171 932.331L396.875 310.635L493.58 231.277Z" fill="url(#paint8_linear_0_4)"/>
</g>
<g id="Group 39733" filter="url(#filter9_d_0_4)">
<path id="Rectangle 5741_10" d="M978.32 892.353C979.27 891.74 979.746 891.433 980.22 891.39C980.638 891.352 981.054 891.452 981.409 891.675C981.812 891.93 982.097 892.419 982.666 893.397L1202.25 1270.77C1202.81 1271.73 1203.09 1272.21 1203.12 1272.69C1203.15 1273.12 1203.05 1273.54 1202.83 1273.91C1202.58 1274.32 1202.12 1274.62 1201.18 1275.23L1184.42 1286.04C1183.49 1286.64 1183.03 1286.94 1182.56 1286.98C1182.15 1287.02 1181.74 1286.93 1181.39 1286.72C1180.99 1286.48 1180.7 1286.01 1180.12 1285.07L950.42 914.22C949.822 913.254 949.523 912.771 949.481 912.281C949.444 911.85 949.542 911.415 949.761 911.042C950.009 910.617 950.487 910.309 951.442 909.692L978.32 892.353Z" fill="var(--fill-0, #E2D48E)"/>
<path id="Vector 10_10" d="M597.931 164.015L980.659 891.157L949.869 911.021L493.247 231.547L597.931 164.015Z" fill="url(#paint9_linear_0_4)"/>
</g>
<g id="Group 39734" filter="url(#filter10_d_0_4)">
<path id="Rectangle 5741_11" d="M1008 877.641C1009.02 877.141 1009.53 876.891 1010 876.902C1010.42 876.912 1010.83 877.059 1011.16 877.321C1011.53 877.619 1011.76 878.136 1012.22 879.171L1189.81 1280.45C1190.26 1281.46 1190.48 1281.97 1190.46 1282.45C1190.44 1282.88 1190.3 1283.29 1190.04 1283.62C1189.75 1284.01 1189.25 1284.25 1188.25 1284.74L1170.45 1293.52C1169.46 1294 1168.96 1294.25 1168.49 1294.24C1168.08 1294.23 1167.68 1294.1 1167.36 1293.84C1166.98 1293.56 1166.75 1293.06 1166.27 1292.07L977.921 896.087C977.433 895.061 977.189 894.548 977.201 894.057C977.213 893.625 977.359 893.205 977.618 892.86C977.912 892.467 978.422 892.215 979.442 891.713L1008 877.641Z" fill="var(--fill-0, #E2D48E)"/>
<path id="Vector 10_11" d="M708.912 109.397L1010.47 876.721L977.722 892.853L597.582 164.244L708.912 109.397Z" fill="url(#paint10_linear_0_4)"/>
</g>
<g id="Group 39735" filter="url(#filter11_d_0_4)">
<path id="Rectangle 5741_12" d="M1039.08 866.494C1040.14 866.115 1040.68 865.926 1041.15 865.991C1041.57 866.049 1041.95 866.241 1042.25 866.538C1042.59 866.877 1042.76 867.416 1043.1 868.494L1176.29 1288.55C1176.63 1289.61 1176.8 1290.14 1176.72 1290.61C1176.66 1291.03 1176.46 1291.42 1176.17 1291.73C1175.83 1292.07 1175.31 1292.26 1174.27 1292.63L1155.65 1299.25C1154.61 1299.62 1154.09 1299.81 1153.62 1299.75C1153.21 1299.7 1152.83 1299.51 1152.53 1299.23C1152.19 1298.9 1152.01 1298.38 1151.65 1297.34L1007.19 881.288C1006.82 880.214 1006.63 879.677 1006.7 879.192C1006.76 878.765 1006.95 878.366 1007.25 878.053C1007.58 877.697 1008.12 877.507 1009.19 877.126L1039.08 866.494Z" fill="var(--fill-0, #E2D48E)"/>
<path id="Vector 10_12" d="M825.089 68.1178L1041.64 865.865L1007.35 878.062L708.528 109.583L825.089 68.1178Z" fill="url(#paint11_linear_0_4)"/>
</g>
<g id="Group 39736" filter="url(#filter12_d_0_4)">
<path id="Rectangle 5741_13" d="M1071.18 859.055C1072.28 858.802 1072.83 858.676 1073.29 858.796C1073.7 858.902 1074.07 859.137 1074.33 859.466C1074.63 859.841 1074.74 860.396 1074.96 861.505L1161.94 1295.03C1162.15 1296.11 1162.26 1296.66 1162.14 1297.12C1162.03 1297.53 1161.79 1297.89 1161.46 1298.16C1161.09 1298.47 1160.55 1298.59 1159.47 1298.84L1140.27 1303.24C1139.19 1303.48 1138.65 1303.61 1138.19 1303.49C1137.79 1303.39 1137.43 1303.17 1137.17 1302.85C1136.86 1302.49 1136.74 1301.95 1136.5 1300.87L1037.9 870.013C1037.64 868.905 1037.52 868.351 1037.64 867.878C1037.74 867.461 1037.98 867.088 1038.31 866.812C1038.68 866.498 1039.23 866.371 1040.34 866.117L1071.18 859.055Z" fill="var(--fill-0, #E2D48E)"/>
<path id="Vector 10_13" d="M945.012 40.7027L1073.8 858.728L1038.41 866.833L824.701 68.259L945.012 40.7027Z" fill="url(#paint12_linear_0_4)"/>
</g>
<g id="Group 39737" filter="url(#filter13_d_0_4)">
<path id="Rectangle 5741_14" d="M1103.87 855.419C1104.99 855.297 1105.56 855.236 1106.01 855.41C1106.4 855.562 1106.74 855.837 1106.96 856.195C1107.22 856.602 1107.27 857.166 1107.37 858.292L1146.91 1299.89C1147.01 1301 1147.06 1301.55 1146.88 1302C1146.73 1302.39 1146.46 1302.72 1146.1 1302.95C1145.7 1303.21 1145.15 1303.27 1144.05 1303.39L1124.5 1305.51C1123.4 1305.63 1122.85 1305.69 1122.41 1305.52C1122.02 1305.38 1121.68 1305.11 1121.45 1304.76C1121.19 1304.37 1121.13 1303.82 1121 1302.72L1069.62 862.406C1069.49 861.278 1069.42 860.713 1069.59 860.257C1069.74 859.856 1070.02 859.513 1070.37 859.278C1070.78 859.01 1071.35 858.948 1072.48 858.826L1103.87 855.419Z" fill="var(--fill-0, #E2D48E)"/>
<path id="Vector 10_14" d="M1067.13 27.5L1106.51 855.401L1070.47 859.312L944.597 40.7966L1067.13 27.5Z" fill="url(#paint13_linear_0_4)"/>
</g>
<g id="Group 39738" filter="url(#filter14_d_0_4)">
<path id="Rectangle 5741_15" d="M1136.76 855.634C1137.89 855.645 1138.45 855.65 1138.88 855.875C1139.26 856.073 1139.56 856.385 1139.75 856.767C1139.96 857.202 1139.95 857.767 1139.93 858.898L1131.39 1302.7C1131.37 1303.81 1131.36 1304.36 1131.14 1304.78C1130.94 1305.15 1130.63 1305.45 1130.26 1305.64C1129.83 1305.85 1129.28 1305.84 1128.17 1305.83L1108.51 1305.65C1107.41 1305.64 1106.86 1305.64 1106.44 1305.42C1106.06 1305.23 1105.76 1304.92 1105.57 1304.55C1105.35 1304.13 1105.35 1303.58 1105.34 1302.47L1101.97 858.566C1101.96 857.43 1101.96 856.862 1102.18 856.429C1102.37 856.048 1102.68 855.739 1103.06 855.547C1103.49 855.329 1104.06 855.334 1105.2 855.344L1136.76 855.634Z" fill="var(--fill-0, #E2D48E)"/>
<path id="Vector 10_15" d="M1189.9 28.678L1139.39 855.925L1103.15 855.592L1066.71 27.5457L1189.9 28.678Z" fill="url(#paint14_linear_0_4)"/>
</g>
<g id="Group 39739" filter="url(#filter15_d_0_4)">
<path id="Rectangle 5741_16" d="M1169.41 859.697C1170.54 859.839 1171.1 859.911 1171.5 860.184C1171.85 860.425 1172.12 860.772 1172.26 861.173C1172.43 861.63 1172.36 862.191 1172.21 863.313L1115.61 1303.8C1115.47 1304.9 1115.4 1305.45 1115.13 1305.84C1114.9 1306.18 1114.56 1306.45 1114.17 1306.59C1113.72 1306.75 1113.17 1306.68 1112.07 1306.54L1092.56 1304.06C1091.46 1303.92 1090.91 1303.85 1090.52 1303.58C1090.17 1303.35 1089.9 1303.01 1089.75 1302.62C1089.58 1302.17 1089.64 1301.62 1089.75 1300.53L1134.53 858.539C1134.64 857.408 1134.7 856.843 1134.97 856.438C1135.2 856.082 1135.54 855.811 1135.94 855.665C1136.39 855.498 1136.96 855.57 1138.08 855.713L1169.41 859.697Z" fill="var(--fill-0, #E2D48E)"/>
<path id="Vector 10_16" d="M1311.77 44.2204L1172 860.293L1136.03 855.72L1189.49 28.6737L1311.77 44.2204Z" fill="url(#paint15_linear_0_4)"/>
</g>
<g id="Group 39740" filter="url(#filter16_d_0_4)">
<path id="Rectangle 5741_17" d="M1201.43 867.559C1202.53 867.831 1203.08 867.968 1203.45 868.287C1203.77 868.567 1204 868.943 1204.1 869.36C1204.21 869.833 1204.08 870.383 1203.81 871.482L1099.81 1302.81C1099.55 1303.89 1099.42 1304.43 1099.11 1304.79C1098.84 1305.11 1098.48 1305.33 1098.07 1305.42C1097.61 1305.53 1097.08 1305.39 1096 1305.13L1076.87 1300.38C1075.8 1300.11 1075.26 1299.98 1074.9 1299.67C1074.58 1299.39 1074.35 1299.03 1074.24 1298.62C1074.12 1298.16 1074.24 1297.62 1074.47 1296.54L1166.89 862.328C1167.13 861.216 1167.24 860.66 1167.55 860.288C1167.82 859.961 1168.19 859.731 1168.6 859.632C1169.07 859.519 1169.62 859.656 1170.72 859.93L1201.43 867.559Z" fill="var(--fill-0, #E2D48E)"/>
<path id="Vector 10_17" d="M1431.18 73.9315L1203.92 868.452L1168.68 859.697L1311.36 44.168L1431.18 73.9315Z" fill="url(#paint16_linear_0_4)"/>
</g>
<g id="Group 39741" filter="url(#filter17_d_0_4)">
<path id="Rectangle 5741_18" d="M1232.39 879.12C1233.45 879.518 1233.98 879.718 1234.31 880.078C1234.6 880.395 1234.78 880.795 1234.84 881.221C1234.9 881.706 1234.7 882.238 1234.32 883.302L1084.26 1299.76C1083.88 1300.8 1083.69 1301.32 1083.35 1301.65C1083.05 1301.93 1082.66 1302.11 1082.25 1302.15C1081.78 1302.21 1081.26 1302.01 1080.22 1301.62L1061.71 1294.65C1060.68 1294.27 1060.16 1294.07 1059.84 1293.72C1059.55 1293.41 1059.36 1293.02 1059.3 1292.6C1059.24 1292.13 1059.41 1291.6 1059.75 1290.55L1198.62 869.883C1198.98 868.803 1199.16 868.264 1199.5 867.929C1199.8 867.634 1200.19 867.448 1200.61 867.397C1201.09 867.339 1201.62 867.539 1202.69 867.939L1232.39 879.12Z" fill="var(--fill-0, #E2D48E)"/>
<path id="Vector 10_18" d="M1546.61 117.433L1234.76 880.296L1200.69 867.472L1430.77 73.8311L1546.61 117.433Z" fill="url(#paint17_linear_0_4)"/>
</g>
<g id="Group 39742" filter="url(#filter18_d_0_4)">
<path id="Rectangle 5741_19" d="M1261.9 894.233C1262.91 894.751 1263.41 895.011 1263.7 895.407C1263.95 895.756 1264.09 896.176 1264.09 896.606C1264.1 897.096 1263.85 897.604 1263.35 898.619L1069.05 1295.06C1068.57 1296.05 1068.32 1296.55 1067.94 1296.83C1067.61 1297.08 1067.21 1297.21 1066.8 1297.21C1066.33 1297.21 1065.83 1296.96 1064.85 1296.45L1047.19 1287.35C1046.21 1286.85 1045.72 1286.59 1045.44 1286.21C1045.18 1285.86 1045.04 1285.45 1045.03 1285.03C1045.01 1284.55 1045.24 1284.05 1045.7 1283.04L1229.33 881.107C1229.81 880.072 1230.04 879.555 1230.42 879.261C1230.75 879.003 1231.16 878.862 1231.58 878.859C1232.06 878.856 1232.57 879.116 1233.58 879.637L1261.9 894.233Z" fill="var(--fill-0, #E2D48E)"/>
<path id="Vector 10_19" d="M1656.59 174.17L1264.12 895.675L1231.65 878.943L1546.21 117.284L1656.59 174.17Z" fill="url(#paint18_linear_0_4)"/>
</g>
<g id="Group 39743" filter="url(#filter19_d_0_4)">
<path id="Rectangle 5741_20" d="M1289.59 912.709C1290.53 913.339 1291 913.654 1291.24 914.081C1291.45 914.457 1291.54 914.892 1291.5 915.321C1291.45 915.809 1291.15 916.286 1290.54 917.24L1054.44 1288.58C1053.85 1289.52 1053.55 1289.99 1053.14 1290.22C1052.79 1290.43 1052.38 1290.52 1051.96 1290.47C1051.5 1290.42 1051.04 1290.11 1050.12 1289.49L1033.54 1278.37C1032.62 1277.75 1032.16 1277.45 1031.92 1277.03C1031.71 1276.66 1031.62 1276.24 1031.65 1275.81C1031.69 1275.33 1031.97 1274.86 1032.54 1273.91L1258.64 895.857C1259.22 894.881 1259.51 894.393 1259.92 894.143C1260.28 893.924 1260.7 893.83 1261.12 893.875C1261.59 893.926 1262.06 894.243 1263.01 894.876L1289.59 912.709Z" fill="var(--fill-0, #E2D48E)"/>
<path id="Vector 10_20" d="M1759.74 243.423L1291.63 914.394L1261.18 893.968L1656.22 173.977L1759.74 243.423Z" fill="url(#paint19_linear_0_4)"/>
</g>
<g id="Group 39744" filter="url(#filter20_d_0_4)">
<path id="Rectangle 5741_21" d="M1315.1 934.308C1315.97 935.041 1316.4 935.408 1316.59 935.86C1316.76 936.258 1316.8 936.7 1316.71 937.122C1316.6 937.602 1316.25 938.043 1315.54 938.924L1040.71 1280.3C1040.01 1281.16 1039.66 1281.59 1039.24 1281.78C1038.86 1281.95 1038.44 1281.99 1038.04 1281.9C1037.58 1281.79 1037.16 1281.43 1036.31 1280.71L1021.02 1267.7C1020.18 1266.99 1019.76 1266.63 1019.57 1266.19C1019.4 1265.8 1019.36 1265.36 1019.44 1264.95C1019.53 1264.47 1019.86 1264.03 1020.53 1263.15L1286.15 913.942C1286.84 913.036 1287.19 912.584 1287.62 912.381C1288 912.203 1288.43 912.157 1288.84 912.249C1289.3 912.354 1289.74 912.722 1290.6 913.459L1315.1 934.308Z" fill="var(--fill-0, #E2D48E)"/>
<path id="Vector 10_21" d="M1854.73 324.309L1316.94 936.213L1288.9 912.353L1759.39 243.186L1854.73 324.309Z" fill="url(#paint20_linear_0_4)"/>
</g>
<g id="Group 39745" filter="url(#filter21_d_0_4)">
<path id="Rectangle 5741_22" d="M1338.11 958.76C1338.89 959.586 1339.27 959.999 1339.41 960.47C1339.54 960.884 1339.53 961.329 1339.39 961.738C1339.23 962.204 1338.83 962.602 1338.03 963.398L1027.82 1270.58C1027.03 1271.36 1026.64 1271.75 1026.19 1271.89C1025.8 1272.02 1025.38 1272.01 1024.99 1271.87C1024.55 1271.71 1024.17 1271.31 1023.41 1270.5L1009.61 1255.76C1008.85 1254.96 1008.48 1254.55 1008.34 1254.09C1008.21 1253.69 1008.22 1253.25 1008.34 1252.85C1008.49 1252.39 1008.87 1251.99 1009.63 1251.19L1311.53 935.135C1312.32 934.312 1312.71 933.9 1313.16 933.748C1313.56 933.614 1313.99 933.616 1314.39 933.754C1314.84 933.91 1315.23 934.325 1316.01 935.155L1338.11 958.76Z" fill="var(--fill-0, #E2D48E)"/>
<path id="Vector 10_22" d="M1940.35 415.802L1339.72 960.857L1314.44 933.865L1854.4 324.033L1940.35 415.802Z" fill="url(#paint21_linear_0_4)"/>
</g>
<g id="Group 39746" filter="url(#filter22_d_0_4)">
<path id="Rectangle 5741_23" d="M1358.33 985.751C1359.01 986.658 1359.35 987.111 1359.43 987.595C1359.51 988.02 1359.45 988.461 1359.26 988.852C1359.06 989.297 1358.61 989.647 1357.72 990.347L1016.09 1259.38C1015.22 1260.06 1014.78 1260.41 1014.32 1260.49C1013.91 1260.57 1013.5 1260.52 1013.13 1260.34C1012.7 1260.13 1012.37 1259.69 1011.71 1258.8L999.574 1242.51C998.915 1241.63 998.585 1241.19 998.498 1240.71C998.421 1240.3 998.472 1239.86 998.644 1239.48C998.84 1239.04 999.264 1238.68 1000.11 1237.97L1334.46 959.162C1335.33 958.433 1335.77 958.069 1336.24 957.968C1336.65 957.88 1337.07 957.93 1337.45 958.112C1337.88 958.318 1338.22 958.774 1338.9 959.686L1358.33 985.751Z" fill="var(--fill-0, #E2D48E)"/>
<path id="Vector 10_23" d="M2015.53 516.737L1359.7 988.012L1337.5 958.232L1940.06 415.49L2015.53 516.737Z" fill="url(#paint22_linear_0_4)"/>
</g>
<g id="Group 39747" filter="url(#filter23_d_0_4)">
<path id="Rectangle 5741_24" d="M1375.49 1014.94C1376.06 1015.91 1376.35 1016.4 1376.38 1016.89C1376.4 1017.32 1376.3 1017.75 1376.07 1018.12C1375.81 1018.54 1375.33 1018.84 1374.37 1019.43L1005.73 1246.78C1004.79 1247.36 1004.31 1247.65 1003.85 1247.69C1003.43 1247.72 1003.02 1247.62 1002.68 1247.4C1002.28 1247.15 1002 1246.67 1001.44 1245.71L991.13 1228.09C990.573 1227.14 990.295 1226.66 990.261 1226.18C990.231 1225.76 990.331 1225.33 990.545 1224.97C990.789 1224.55 991.251 1224.25 992.173 1223.65L1354.63 985.719C1355.58 985.095 1356.06 984.783 1356.53 984.736C1356.95 984.695 1357.37 984.793 1357.73 985.016C1358.13 985.269 1358.42 985.76 1359 986.742L1375.49 1014.94Z" fill="var(--fill-0, #E2D48E)"/>
<path id="Vector 10_24" d="M2079.29 625.831L1376.6 1017.33L1357.77 985.143L2015.27 516.394L2079.29 625.831Z" fill="url(#paint23_linear_0_4)"/>
</g>
<g id="Group 39748" filter="url(#filter24_d_0_4)">
<path id="Rectangle 5741_25" d="M1389.39 1045.94C1389.85 1046.98 1390.08 1047.5 1390.05 1047.98C1390.03 1048.41 1389.88 1048.83 1389.61 1049.17C1389.31 1049.55 1388.8 1049.79 1387.77 1050.27L996.61 1233.14C995.606 1233.61 995.104 1233.85 994.634 1233.83C994.22 1233.81 993.824 1233.67 993.501 1233.41C993.135 1233.11 992.909 1232.6 992.458 1231.59L984.113 1212.85C983.665 1211.85 983.44 1211.34 983.46 1210.86C983.477 1210.44 983.623 1210.03 983.878 1209.69C984.167 1209.31 984.66 1209.06 985.646 1208.57L1371.81 1014.47C1372.82 1013.95 1373.33 1013.7 1373.81 1013.71C1374.23 1013.71 1374.64 1013.86 1374.97 1014.12C1375.35 1014.42 1375.58 1014.94 1376.04 1015.98L1389.39 1045.94Z" fill="var(--fill-0, #E2D48E)"/>
<path id="Vector 10_25" d="M2130.84 741.695L1390.22 1048.44L1374.99 1014.26L2079.08 625.458L2130.84 741.695Z" fill="url(#paint24_linear_0_4)"/>
</g>
<g id="Group 39749" filter="url(#filter25_d_0_4)">
<path id="Rectangle 5741_26" d="M1399.83 1078.38C1400.17 1079.46 1400.35 1080 1400.27 1080.48C1400.2 1080.91 1400 1081.3 1399.7 1081.6C1399.35 1081.95 1398.82 1082.13 1397.74 1082.49L989.184 1218.43C988.133 1218.78 987.607 1218.95 987.14 1218.88C986.73 1218.82 986.351 1218.63 986.059 1218.33C985.726 1218 985.558 1217.47 985.22 1216.42L978.952 1196.8C978.616 1195.75 978.448 1195.23 978.521 1194.75C978.584 1194.34 978.775 1193.95 979.065 1193.64C979.396 1193.29 979.914 1193.1 980.95 1192.73L1385.76 1045.04C1386.83 1044.65 1387.36 1044.46 1387.84 1044.52C1388.26 1044.57 1388.65 1044.76 1388.95 1045.06C1389.29 1045.4 1389.46 1045.94 1389.81 1047.02L1399.83 1078.38Z" fill="var(--fill-0, #E2D48E)"/>
<path id="Vector 10_26" d="M2169.51 862.859L1400.38 1080.95L1388.95 1045.2L2130.66 741.301L2169.51 862.859Z" fill="url(#paint25_linear_0_4)"/>
</g>
<ellipse id="Ellipse 33" cx="1111.92" cy="1162.18" rx="10.2667" ry="10.6745" fill="var(--fill-0, black)"/>
</g>
<defs>
<filter id="filter0_d_0_4" x="2.92845e-07" y="1066.5" width="1285.35" height="191.093" filterUnits="userSpaceOnUse" color-interpolation-filters="sRGB">
<feFlood flood-opacity="0" result="BackgroundImageFix"/>
<feColorMatrix in="SourceAlpha" type="matrix" values="0 0 0 0 0 0 0 0 0 0 0 0 0 0 0 0 0 0 127 0" result="hardAlpha"/>
<feOffset dy="4"/>
<feGaussianBlur stdDeviation="15.75"/>
<feComposite in2="hardAlpha" operator="out"/>
<feColorMatrix type="matrix" values="0 0 0 0 0 0 0 0 0 0 0 0 0 0 0 0 0 0 0.25 0"/>
<feBlend mode="normal" in2="BackgroundImageFix" result="effect1_dropShadow_0_4"/>
<feBlend mode="normal" in="SourceGraphic" in2="effect1_dropShadow_0_4" result="shape"/>
</filter>
<filter id="filter1_d_0_4" x="0.00106204" y="939.66" width="1286.37" height="282.071" filterUnits="userSpaceOnUse" color-interpolation-filters="sRGB">
<feFlood flood-opacity="0" result="BackgroundImageFix"/>
<feColorMatrix in="SourceAlpha" type="matrix" values="0 0 0 0 0 0 0 0 0 0 0 0 0 0 0 0 0 0 127 0" result="hardAlpha"/>
<feOffset dy="4"/>
<feGaussianBlur stdDeviation="15.75"/>
<feComposite in2="hardAlpha" operator="out"/>
<feColorMatrix type="matrix" values="0 0 0 0 0 0 0 0 0 0 0 0 0 0 0 0 0 0 0.25 0"/>
<feBlend mode="normal" in2="BackgroundImageFix" result="effect1_dropShadow_0_4"/>
<feBlend mode="normal" in="SourceGraphic" in2="effect1_dropShadow_0_4" result="shape"/>
</filter>
<filter id="filter2_d_0_4" x="13.823" y="815.247" width="1271.6" height="421.83" filterUnits="userSpaceOnUse" color-interpolation-filters="sRGB">
<feFlood flood-opacity="0" result="BackgroundImageFix"/>
<feColorMatrix in="SourceAlpha" type="matrix" values="0 0 0 0 0 0 0 0 0 0 0 0 0 0 0 0 0 0 127 0" result="hardAlpha"/>
<feOffset dy="4"/>
<feGaussianBlur stdDeviation="15.75"/>
<feComposite in2="hardAlpha" operator="out"/>
<feColorMatrix type="matrix" values="0 0 0 0 0 0 0 0 0 0 0 0 0 0 0 0 0 0 0.25 0"/>
<feBlend mode="normal" in2="BackgroundImageFix" result="effect1_dropShadow_0_4"/>
<feBlend mode="normal" in="SourceGraphic" in2="effect1_dropShadow_0_4" result="shape"/>
</filter>
<filter id="filter3_d_0_4" x="41.2939" y="694.847" width="1241.7" height="557.188" filterUnits="userSpaceOnUse" color-interpolation-filters="sRGB">
<feFlood flood-opacity="0" result="BackgroundImageFix"/>
<feColorMatrix in="SourceAlpha" type="matrix" values="0 0 0 0 0 0 0 0 0 0 0 0 0 0 0 0 0 0 127 0" result="hardAlpha"/>
<feOffset dy="4"/>
<feGaussianBlur stdDeviation="15.75"/>
<feComposite in2="hardAlpha" operator="out"/>
<feColorMatrix type="matrix" values="0 0 0 0 0 0 0 0 0 0 0 0 0 0 0 0 0 0 0.25 0"/>
<feBlend mode="normal" in2="BackgroundImageFix" result="effect1_dropShadow_0_4"/>
<feBlend mode="normal" in="SourceGraphic" in2="effect1_dropShadow_0_4" result="shape"/>
</filter>
<filter id="filter4_d_0_4" x="82.0666" y="579.991" width="1196.77" height="686.389" filterUnits="userSpaceOnUse" color-interpolation-filters="sRGB">
<feFlood flood-opacity="0" result="BackgroundImageFix"/>
<feColorMatrix in="SourceAlpha" type="matrix" values="0 0 0 0 0 0 0 0 0 0 0 0 0 0 0 0 0 0 127 0" result="hardAlpha"/>
<feOffset dy="4"/>
<feGaussianBlur stdDeviation="15.75"/>
<feComposite in2="hardAlpha" operator="out"/>
<feColorMatrix type="matrix" values="0 0 0 0 0 0 0 0 0 0 0 0 0 0 0 0 0 0 0.25 0"/>
<feBlend mode="normal" in2="BackgroundImageFix" result="effect1_dropShadow_0_4"/>
<feBlend mode="normal" in="SourceGraphic" in2="effect1_dropShadow_0_4" result="shape"/>
</filter>
<filter id="filter5_d_0_4" x="135.615" y="472.139" width="1137.36" height="807.75" filterUnits="userSpaceOnUse" color-interpolation-filters="sRGB">
<feFlood flood-opacity="0" result="BackgroundImageFix"/>
<feColorMatrix in="SourceAlpha" type="matrix" values="0 0 0 0 0 0 0 0 0 0 0 0 0 0 0 0 0 0 127 0" result="hardAlpha"/>
<feOffset dy="4"/>
<feGaussianBlur stdDeviation="15.75"/>
<feComposite in2="hardAlpha" operator="out"/>
<feColorMatrix type="matrix" values="0 0 0 0 0 0 0 0 0 0 0 0 0 0 0 0 0 0 0.25 0"/>
<feBlend mode="normal" in2="BackgroundImageFix" result="effect1_dropShadow_0_4"/>
<feBlend mode="normal" in="SourceGraphic" in2="effect1_dropShadow_0_4" result="shape"/>
</filter>
<filter id="filter6_d_0_4" x="201.262" y="372.663" width="1064.38" height="919.835" filterUnits="userSpaceOnUse" color-interpolation-filters="sRGB">
<feFlood flood-opacity="0" result="BackgroundImageFix"/>
<feColorMatrix in="SourceAlpha" type="matrix" values="0 0 0 0 0 0 0 0 0 0 0 0 0 0 0 0 0 0 127 0" result="hardAlpha"/>
<feOffset dy="4"/>
<feGaussianBlur stdDeviation="15.75"/>
<feComposite in2="hardAlpha" operator="out"/>
<feColorMatrix type="matrix" values="0 0 0 0 0 0 0 0 0 0 0 0 0 0 0 0 0 0 0.25 0"/>
<feBlend mode="normal" in2="BackgroundImageFix" result="effect1_dropShadow_0_4"/>
<feBlend mode="normal" in="SourceGraphic" in2="effect1_dropShadow_0_4" result="shape"/>
</filter>
<filter id="filter7_d_0_4" x="278.18" y="282.828" width="978.634" height="1021.2" filterUnits="userSpaceOnUse" color-interpolation-filters="sRGB">
<feFlood flood-opacity="0" result="BackgroundImageFix"/>
<feColorMatrix in="SourceAlpha" type="matrix" values="0 0 0 0 0 0 0 0 0 0 0 0 0 0 0 0 0 0 127 0" result="hardAlpha"/>
<feOffset dy="4"/>
<feGaussianBlur stdDeviation="15.75"/>
<feComposite in2="hardAlpha" operator="out"/>
<feColorMatrix type="matrix" values="0 0 0 0 0 0 0 0 0 0 0 0 0 0 0 0 0 0 0.25 0"/>
<feBlend mode="normal" in2="BackgroundImageFix" result="effect1_dropShadow_0_4"/>
<feBlend mode="normal" in="SourceGraphic" in2="effect1_dropShadow_0_4" result="shape"/>
</filter>
<filter id="filter8_d_0_4" x="365.375" y="203.777" width="880.947" height="1110.18" filterUnits="userSpaceOnUse" color-interpolation-filters="sRGB">
<feFlood flood-opacity="0" result="BackgroundImageFix"/>
<feColorMatrix in="SourceAlpha" type="matrix" values="0 0 0 0 0 0 0 0 0 0 0 0 0 0 0 0 0 0 127 0" result="hardAlpha"/>
<feOffset dy="4"/>
<feGaussianBlur stdDeviation="15.75"/>
<feComposite in2="hardAlpha" operator="out"/>
<feColorMatrix type="matrix" values="0 0 0 0 0 0 0 0 0 0 0 0 0 0 0 0 0 0 0.25 0"/>
<feBlend mode="normal" in2="BackgroundImageFix" result="effect1_dropShadow_0_4"/>
<feBlend mode="normal" in="SourceGraphic" in2="effect1_dropShadow_0_4" result="shape"/>
</filter>
<filter id="filter9_d_0_4" x="461.747" y="136.515" width="772.877" height="1185.98" filterUnits="userSpaceOnUse" color-interpolation-filters="sRGB">
<feFlood flood-opacity="0" result="BackgroundImageFix"/>
<feColorMatrix in="SourceAlpha" type="matrix" values="0 0 0 0 0 0 0 0 0 0 0 0 0 0 0 0 0 0 127 0" result="hardAlpha"/>
<feOffset dy="4"/>
<feGaussianBlur stdDeviation="15.75"/>
<feComposite in2="hardAlpha" operator="out"/>
<feColorMatrix type="matrix" values="0 0 0 0 0 0 0 0 0 0 0 0 0 0 0 0 0 0 0.25 0"/>
<feBlend mode="normal" in2="BackgroundImageFix" result="effect1_dropShadow_0_4"/>
<feBlend mode="normal" in="SourceGraphic" in2="effect1_dropShadow_0_4" result="shape"/>
</filter>
<filter id="filter10_d_0_4" x="566.082" y="81.8965" width="655.883" height="1247.84" filterUnits="userSpaceOnUse" color-interpolation-filters="sRGB">
<feFlood flood-opacity="0" result="BackgroundImageFix"/>
<feColorMatrix in="SourceAlpha" type="matrix" values="0 0 0 0 0 0 0 0 0 0 0 0 0 0 0 0 0 0 127 0" result="hardAlpha"/>
<feOffset dy="4"/>
<feGaussianBlur stdDeviation="15.75"/>
<feComposite in2="hardAlpha" operator="out"/>
<feColorMatrix type="matrix" values="0 0 0 0 0 0 0 0 0 0 0 0 0 0 0 0 0 0 0.25 0"/>
<feBlend mode="normal" in2="BackgroundImageFix" result="effect1_dropShadow_0_4"/>
<feBlend mode="normal" in="SourceGraphic" in2="effect1_dropShadow_0_4" result="shape"/>
</filter>
<filter id="filter11_d_0_4" x="677.028" y="40.6178" width="531.211" height="1294.64" filterUnits="userSpaceOnUse" color-interpolation-filters="sRGB">
<feFlood flood-opacity="0" result="BackgroundImageFix"/>
<feColorMatrix in="SourceAlpha" type="matrix" values="0 0 0 0 0 0 0 0 0 0 0 0 0 0 0 0 0 0 127 0" result="hardAlpha"/>
<feOffset dy="4"/>
<feGaussianBlur stdDeviation="15.75"/>
<feComposite in2="hardAlpha" operator="out"/>
<feColorMatrix type="matrix" values="0 0 0 0 0 0 0 0 0 0 0 0 0 0 0 0 0 0 0.25 0"/>
<feBlend mode="normal" in2="BackgroundImageFix" result="effect1_dropShadow_0_4"/>
<feBlend mode="normal" in="SourceGraphic" in2="effect1_dropShadow_0_4" result="shape"/>
</filter>
<filter id="filter12_d_0_4" x="793.201" y="13.2027" width="400.488" height="1325.83" filterUnits="userSpaceOnUse" color-interpolation-filters="sRGB">
<feFlood flood-opacity="0" result="BackgroundImageFix"/>
<feColorMatrix in="SourceAlpha" type="matrix" values="0 0 0 0 0 0 0 0 0 0 0 0 0 0 0 0 0 0 127 0" result="hardAlpha"/>
<feOffset dy="4"/>
<feGaussianBlur stdDeviation="15.75"/>
<feComposite in2="hardAlpha" operator="out"/>
<feColorMatrix type="matrix" values="0 0 0 0 0 0 0 0 0 0 0 0 0 0 0 0 0 0 0.25 0"/>
<feBlend mode="normal" in2="BackgroundImageFix" result="effect1_dropShadow_0_4"/>
<feBlend mode="normal" in="SourceGraphic" in2="effect1_dropShadow_0_4" result="shape"/>
</filter>
<filter id="filter13_d_0_4" x="913.097" y="-8.8918e-07" width="265.404" height="1341.13" filterUnits="userSpaceOnUse" color-interpolation-filters="sRGB">
<feFlood flood-opacity="0" result="BackgroundImageFix"/>
<feColorMatrix in="SourceAlpha" type="matrix" values="0 0 0 0 0 0 0 0 0 0 0 0 0 0 0 0 0 0 127 0" result="hardAlpha"/>
<feOffset dy="4"/>
<feGaussianBlur stdDeviation="15.75"/>
<feComposite in2="hardAlpha" operator="out"/>
<feColorMatrix type="matrix" values="0 0 0 0 0 0 0 0 0 0 0 0 0 0 0 0 0 0 0.25 0"/>
<feBlend mode="normal" in2="BackgroundImageFix" result="effect1_dropShadow_0_4"/>
<feBlend mode="normal" in="SourceGraphic" in2="effect1_dropShadow_0_4" result="shape"/>
</filter>
<filter id="filter14_d_0_4" x="1035.21" y="0.0457003" width="186.19" height="1341.29" filterUnits="userSpaceOnUse" color-interpolation-filters="sRGB">
<feFlood flood-opacity="0" result="BackgroundImageFix"/>
<feColorMatrix in="SourceAlpha" type="matrix" values="0 0 0 0 0 0 0 0 0 0 0 0 0 0 0 0 0 0 127 0" result="hardAlpha"/>
<feOffset dy="4"/>
<feGaussianBlur stdDeviation="15.75"/>
<feComposite in2="hardAlpha" operator="out"/>
<feColorMatrix type="matrix" values="0 0 0 0 0 0 0 0 0 0 0 0 0 0 0 0 0 0 0.25 0"/>
<feBlend mode="normal" in2="BackgroundImageFix" result="effect1_dropShadow_0_4"/>
<feBlend mode="normal" in="SourceGraphic" in2="effect1_dropShadow_0_4" result="shape"/>
</filter>
<filter id="filter15_d_0_4" x="1058.14" y="1.17366" width="285.127" height="1341" filterUnits="userSpaceOnUse" color-interpolation-filters="sRGB">
<feFlood flood-opacity="0" result="BackgroundImageFix"/>
<feColorMatrix in="SourceAlpha" type="matrix" values="0 0 0 0 0 0 0 0 0 0 0 0 0 0 0 0 0 0 127 0" result="hardAlpha"/>
<feOffset dy="4"/>
<feGaussianBlur stdDeviation="15.75"/>
<feComposite in2="hardAlpha" operator="out"/>
<feColorMatrix type="matrix" values="0 0 0 0 0 0 0 0 0 0 0 0 0 0 0 0 0 0 0.25 0"/>
<feBlend mode="normal" in2="BackgroundImageFix" result="effect1_dropShadow_0_4"/>
<feBlend mode="normal" in="SourceGraphic" in2="effect1_dropShadow_0_4" result="shape"/>
</filter>
<filter id="filter16_d_0_4" x="1042.7" y="16.668" width="419.985" height="1324.29" filterUnits="userSpaceOnUse" color-interpolation-filters="sRGB">
<feFlood flood-opacity="0" result="BackgroundImageFix"/>
<feColorMatrix in="SourceAlpha" type="matrix" values="0 0 0 0 0 0 0 0 0 0 0 0 0 0 0 0 0 0 127 0" result="hardAlpha"/>
<feOffset dy="4"/>
<feGaussianBlur stdDeviation="15.75"/>
<feComposite in2="hardAlpha" operator="out"/>
<feColorMatrix type="matrix" values="0 0 0 0 0 0 0 0 0 0 0 0 0 0 0 0 0 0 0.25 0"/>
<feBlend mode="normal" in2="BackgroundImageFix" result="effect1_dropShadow_0_4"/>
<feBlend mode="normal" in="SourceGraphic" in2="effect1_dropShadow_0_4" result="shape"/>
</filter>
<filter id="filter17_d_0_4" x="1027.79" y="46.3311" width="550.323" height="1291.33" filterUnits="userSpaceOnUse" color-interpolation-filters="sRGB">
<feFlood flood-opacity="0" result="BackgroundImageFix"/>
<feColorMatrix in="SourceAlpha" type="matrix" values="0 0 0 0 0 0 0 0 0 0 0 0 0 0 0 0 0 0 127 0" result="hardAlpha"/>
<feOffset dy="4"/>
<feGaussianBlur stdDeviation="15.75"/>
<feComposite in2="hardAlpha" operator="out"/>
<feColorMatrix type="matrix" values="0 0 0 0 0 0 0 0 0 0 0 0 0 0 0 0 0 0 0.25 0"/>
<feBlend mode="normal" in2="BackgroundImageFix" result="effect1_dropShadow_0_4"/>
<feBlend mode="normal" in="SourceGraphic" in2="effect1_dropShadow_0_4" result="shape"/>
</filter>
<filter id="filter18_d_0_4" x="1013.53" y="89.7844" width="674.564" height="1242.93" filterUnits="userSpaceOnUse" color-interpolation-filters="sRGB">
<feFlood flood-opacity="0" result="BackgroundImageFix"/>
<feColorMatrix in="SourceAlpha" type="matrix" values="0 0 0 0 0 0 0 0 0 0 0 0 0 0 0 0 0 0 127 0" result="hardAlpha"/>
<feOffset dy="4"/>
<feGaussianBlur stdDeviation="15.75"/>
<feComposite in2="hardAlpha" operator="out"/>
<feColorMatrix type="matrix" values="0 0 0 0 0 0 0 0 0 0 0 0 0 0 0 0 0 0 0.25 0"/>
<feBlend mode="normal" in2="BackgroundImageFix" result="effect1_dropShadow_0_4"/>
<feBlend mode="normal" in="SourceGraphic" in2="effect1_dropShadow_0_4" result="shape"/>
</filter>
<filter id="filter19_d_0_4" x="1000.14" y="146.477" width="791.095" height="1179.51" filterUnits="userSpaceOnUse" color-interpolation-filters="sRGB">
<feFlood flood-opacity="0" result="BackgroundImageFix"/>
<feColorMatrix in="SourceAlpha" type="matrix" values="0 0 0 0 0 0 0 0 0 0 0 0 0 0 0 0 0 0 127 0" result="hardAlpha"/>
<feOffset dy="4"/>
<feGaussianBlur stdDeviation="15.75"/>
<feComposite in2="hardAlpha" operator="out"/>
<feColorMatrix type="matrix" values="0 0 0 0 0 0 0 0 0 0 0 0 0 0 0 0 0 0 0.25 0"/>
<feBlend mode="normal" in2="BackgroundImageFix" result="effect1_dropShadow_0_4"/>
<feBlend mode="normal" in="SourceGraphic" in2="effect1_dropShadow_0_4" result="shape"/>
</filter>
<filter id="filter20_d_0_4" x="987.9" y="215.686" width="898.329" height="1101.76" filterUnits="userSpaceOnUse" color-interpolation-filters="sRGB">
<feFlood flood-opacity="0" result="BackgroundImageFix"/>
<feColorMatrix in="SourceAlpha" type="matrix" values="0 0 0 0 0 0 0 0 0 0 0 0 0 0 0 0 0 0 127 0" result="hardAlpha"/>
<feOffset dy="4"/>
<feGaussianBlur stdDeviation="15.75"/>
<feComposite in2="hardAlpha" operator="out"/>
<feColorMatrix type="matrix" values="0 0 0 0 0 0 0 0 0 0 0 0 0 0 0 0 0 0 0.25 0"/>
<feBlend mode="normal" in2="BackgroundImageFix" result="effect1_dropShadow_0_4"/>
<feBlend mode="normal" in="SourceGraphic" in2="effect1_dropShadow_0_4" result="shape"/>
</filter>
<filter id="filter21_d_0_4" x="976.746" y="296.533" width="995.105" height="1010.95" filterUnits="userSpaceOnUse" color-interpolation-filters="sRGB">
<feFlood flood-opacity="0" result="BackgroundImageFix"/>
<feColorMatrix in="SourceAlpha" type="matrix" values="0 0 0 0 0 0 0 0 0 0 0 0 0 0 0 0 0 0 127 0" result="hardAlpha"/>
<feOffset dy="4"/>
<feGaussianBlur stdDeviation="15.75"/>
<feComposite in2="hardAlpha" operator="out"/>
<feColorMatrix type="matrix" values="0 0 0 0 0 0 0 0 0 0 0 0 0 0 0 0 0 0 0.25 0"/>
<feBlend mode="normal" in2="BackgroundImageFix" result="effect1_dropShadow_0_4"/>
<feBlend mode="normal" in="SourceGraphic" in2="effect1_dropShadow_0_4" result="shape"/>
</filter>
<filter id="filter22_d_0_4" x="966.963" y="387.99" width="1080.07" height="908.039" filterUnits="userSpaceOnUse" color-interpolation-filters="sRGB">
<feFlood flood-opacity="0" result="BackgroundImageFix"/>
<feColorMatrix in="SourceAlpha" type="matrix" values="0 0 0 0 0 0 0 0 0 0 0 0 0 0 0 0 0 0 127 0" result="hardAlpha"/>
<feOffset dy="4"/>
<feGaussianBlur stdDeviation="15.75"/>
<feComposite in2="hardAlpha" operator="out"/>
<feColorMatrix type="matrix" values="0 0 0 0 0 0 0 0 0 0 0 0 0 0 0 0 0 0 0.25 0"/>
<feBlend mode="normal" in2="BackgroundImageFix" result="effect1_dropShadow_0_4"/>
<feBlend mode="normal" in="SourceGraphic" in2="effect1_dropShadow_0_4" result="shape"/>
</filter>
<filter id="filter23_d_0_4" x="958.756" y="488.894" width="1152.04" height="794.303" filterUnits="userSpaceOnUse" color-interpolation-filters="sRGB">
<feFlood flood-opacity="0" result="BackgroundImageFix"/>
<feColorMatrix in="SourceAlpha" type="matrix" values="0 0 0 0 0 0 0 0 0 0 0 0 0 0 0 0 0 0 127 0" result="hardAlpha"/>
<feOffset dy="4"/>
<feGaussianBlur stdDeviation="15.75"/>
<feComposite in2="hardAlpha" operator="out"/>
<feColorMatrix type="matrix" values="0 0 0 0 0 0 0 0 0 0 0 0 0 0 0 0 0 0 0.25 0"/>
<feBlend mode="normal" in2="BackgroundImageFix" result="effect1_dropShadow_0_4"/>
<feBlend mode="normal" in="SourceGraphic" in2="effect1_dropShadow_0_4" result="shape"/>
</filter>
<filter id="filter24_d_0_4" x="951.959" y="597.958" width="1210.38" height="671.371" filterUnits="userSpaceOnUse" color-interpolation-filters="sRGB">
<feFlood flood-opacity="0" result="BackgroundImageFix"/>
<feColorMatrix in="SourceAlpha" type="matrix" values="0 0 0 0 0 0 0 0 0 0 0 0 0 0 0 0 0 0 127 0" result="hardAlpha"/>
<feOffset dy="4"/>
<feGaussianBlur stdDeviation="15.75"/>
<feComposite in2="hardAlpha" operator="out"/>
<feColorMatrix type="matrix" values="0 0 0 0 0 0 0 0 0 0 0 0 0 0 0 0 0 0 0.25 0"/>
<feBlend mode="normal" in2="BackgroundImageFix" result="effect1_dropShadow_0_4"/>
<feBlend mode="normal" in="SourceGraphic" in2="effect1_dropShadow_0_4" result="shape"/>
</filter>
<filter id="filter25_d_0_4" x="947.004" y="713.801" width="1254.01" height="540.599" filterUnits="userSpaceOnUse" color-interpolation-filters="sRGB">
<feFlood flood-opacity="0" result="BackgroundImageFix"/>
<feColorMatrix in="SourceAlpha" type="matrix" values="0 0 0 0 0 0 0 0 0 0 0 0 0 0 0 0 0 0 127 0" result="hardAlpha"/>
<feOffset dy="4"/>
<feGaussianBlur stdDeviation="15.75"/>
<feComposite in2="hardAlpha" operator="out"/>
<feColorMatrix type="matrix" values="0 0 0 0 0 0 0 0 0 0 0 0 0 0 0 0 0 0 0.25 0"/>
<feBlend mode="normal" in2="BackgroundImageFix" result="effect1_dropShadow_0_4"/>
<feBlend mode="normal" in="SourceGraphic" in2="effect1_dropShadow_0_4" result="shape"/>
</filter>
<linearGradient id="paint0_linear_0_4" x1="545.658" y1="1251.49" x2="545.658" y2="993.209" gradientUnits="userSpaceOnUse">
<stop stop-color="#721311"/>
<stop offset="1" stop-color="#E3302C"/>
</linearGradient>
<linearGradient id="paint1_linear_0_4" x1="539.206" y1="1183.84" x2="569.412" y2="927.462" gradientUnits="userSpaceOnUse">
<stop stop-color="#721311"/>
<stop offset="1" stop-color="#E3302C"/>
</linearGradient>
<linearGradient id="paint2_linear_0_4" x1="540.119" y1="1115.86" x2="599.965" y2="865.143" gradientUnits="userSpaceOnUse">
<stop stop-color="#721311"/>
<stop offset="1" stop-color="#E3302C"/>
</linearGradient>
<linearGradient id="paint3_linear_0_4" x1="548.388" y1="1048.42" x2="636.775" y2="806.954" gradientUnits="userSpaceOnUse">
<stop stop-color="#721311"/>
<stop offset="1" stop-color="#E3302C"/>
</linearGradient>
<linearGradient id="paint4_linear_0_4" x1="563.91" y1="982.382" x2="679.263" y2="753.489" gradientUnits="userSpaceOnUse">
<stop stop-color="#721311"/>
<stop offset="1" stop-color="#E3302C"/>
</linearGradient>
<linearGradient id="paint5_linear_0_4" x1="586.481" y1="918.577" x2="726.823" y2="705.26" gradientUnits="userSpaceOnUse">
<stop stop-color="#721311"/>
<stop offset="1" stop-color="#E3302C"/>
</linearGradient>
<linearGradient id="paint6_linear_0_4" x1="615.817" y1="857.819" x2="778.863" y2="662.704" gradientUnits="userSpaceOnUse">
<stop stop-color="#721311"/>
<stop offset="1" stop-color="#E3302C"/>
</linearGradient>
<linearGradient id="paint7_linear_0_4" x1="651.553" y1="800.883" x2="834.792" y2="626.201" gradientUnits="userSpaceOnUse">
<stop stop-color="#721311"/>
<stop offset="1" stop-color="#E3302C"/>
</linearGradient>
<linearGradient id="paint8_linear_0_4" x1="693.219" y1="748.492" x2="893.994" y2="596.091" gradientUnits="userSpaceOnUse">
<stop stop-color="#721311"/>
<stop offset="1" stop-color="#E3302C"/>
</linearGradient>
<linearGradient id="paint9_linear_0_4" x1="740.292" y1="701.313" x2="955.869" y2="572.674" gradientUnits="userSpaceOnUse">
<stop stop-color="#721311"/>
<stop offset="1" stop-color="#E3302C"/>
</linearGradient>
<linearGradient id="paint10_linear_0_4" x1="792.186" y1="659.944" x2="1019.8" y2="556.219" gradientUnits="userSpaceOnUse">
<stop stop-color="#721311"/>
<stop offset="1" stop-color="#E3302C"/>
</linearGradient>
<linearGradient id="paint11_linear_0_4" x1="848.217" y1="624.913" x2="1085.11" y2="546.961" gradientUnits="userSpaceOnUse">
<stop stop-color="#721311"/>
<stop offset="1" stop-color="#E3302C"/>
</linearGradient>
<linearGradient id="paint12_linear_0_4" x1="907.699" y1="596.665" x2="1151.14" y2="545.09" gradientUnits="userSpaceOnUse">
<stop stop-color="#721311"/>
<stop offset="1" stop-color="#E3302C"/>
</linearGradient>
<linearGradient id="paint13_linear_0_4" x1="969.847" y1="575.559" x2="1217.11" y2="550.739" gradientUnits="userSpaceOnUse">
<stop stop-color="#721311"/>
<stop offset="1" stop-color="#E3302C"/>
</linearGradient>
<linearGradient id="paint14_linear_0_4" x1="1033.9" y1="561.864" x2="1282.3" y2="563.976" gradientUnits="userSpaceOnUse">
<stop stop-color="#721311"/>
<stop offset="1" stop-color="#E3302C"/>
</linearGradient>
<linearGradient id="paint15_linear_0_4" x1="1099.02" y1="555.753" x2="1345.86" y2="584.782" gradientUnits="userSpaceOnUse">
<stop stop-color="#721311"/>
<stop offset="1" stop-color="#E3302C"/>
</linearGradient>
<linearGradient id="paint16_linear_0_4" x1="1164.39" y1="557.304" x2="1406.98" y2="613.043" gradientUnits="userSpaceOnUse">
<stop stop-color="#721311"/>
<stop offset="1" stop-color="#E3302C"/>
</linearGradient>
<linearGradient id="paint17_linear_0_4" x1="1229.17" y1="566.499" x2="1464.8" y2="648.536" gradientUnits="userSpaceOnUse">
<stop stop-color="#721311"/>
<stop offset="1" stop-color="#E3302C"/>
</linearGradient>
<linearGradient id="paint18_linear_0_4" x1="1292.54" y1="583.219" x2="1518.46" y2="690.911" gradientUnits="userSpaceOnUse">
<stop stop-color="#721311"/>
<stop offset="1" stop-color="#E3302C"/>
</linearGradient>
<linearGradient id="paint19_linear_0_4" x1="1353.71" y1="607.252" x2="1567.15" y2="739.699" gradientUnits="userSpaceOnUse">
<stop stop-color="#721311"/>
<stop offset="1" stop-color="#E3302C"/>
</linearGradient>
<linearGradient id="paint20_linear_0_4" x1="1411.88" y1="638.292" x2="1610.09" y2="794.291" gradientUnits="userSpaceOnUse">
<stop stop-color="#721311"/>
<stop offset="1" stop-color="#E3302C"/>
</linearGradient>
<linearGradient id="paint21_linear_0_4" x1="1466.32" y1="675.945" x2="1646.57" y2="853.96" gradientUnits="userSpaceOnUse">
<stop stop-color="#721311"/>
<stop offset="1" stop-color="#E3302C"/>
</linearGradient>
<linearGradient id="paint22_linear_0_4" x1="1516.34" y1="719.732" x2="1675.99" y2="917.857" gradientUnits="userSpaceOnUse">
<stop stop-color="#721311"/>
<stop offset="1" stop-color="#E3302C"/>
</linearGradient>
<linearGradient id="paint23_linear_0_4" x1="1561.3" y1="769.097" x2="1697.87" y2="985.037" gradientUnits="userSpaceOnUse">
<stop stop-color="#721311"/>
<stop offset="1" stop-color="#E3302C"/>
</linearGradient>
<linearGradient id="paint24_linear_0_4" x1="1600.63" y1="823.41" x2="1711.88" y2="1054.48" gradientUnits="userSpaceOnUse">
<stop stop-color="#721311"/>
<stop offset="1" stop-color="#E3302C"/>
</linearGradient>
<linearGradient id="paint25_linear_0_4" x1="1633.82" y1="881.983" x2="1717.83" y2="1125.13" gradientUnits="userSpaceOnUse">
<stop stop-color="#721311"/>
<stop offset="1" stop-color="#E3302C"/>
</linearGradient>
</defs>
</svg>
