<svg preserveAspectRatio="none" width="100%" height="100%" overflow="visible" style="display: block;" viewBox="0 0 2169.52 1292.43" fill="none" xmlns="http://www.w3.org/2000/svg">
<g id="Group 39750">
<g id="Group 39724" opacity="0" filter="url(#filter0_d_0_4)">
<path id="Rectangle 5741" d="M795.976 1114.69C795.976 1113.56 795.976 1112.99 796.197 1112.56C796.392 1112.18 796.702 1111.87 797.083 1111.68C797.516 1111.47 798.082 1111.47 799.213 1111.49L1219.18 1116.36C1220.29 1116.37 1220.85 1116.38 1221.27 1116.6C1221.64 1116.79 1221.94 1117.09 1222.13 1117.47C1222.35 1117.89 1222.35 1118.45 1222.35 1119.56V1139.82C1222.35 1140.92 1222.35 1141.48 1222.13 1141.9C1221.95 1142.27 1221.65 1142.58 1221.28 1142.77C1220.86 1142.99 1220.31 1143 1219.2 1143.02L799.232 1150.33C798.094 1150.35 797.525 1150.35 797.09 1150.14C796.707 1149.95 796.395 1149.64 796.199 1149.26C795.976 1148.83 795.976 1148.26 795.976 1147.13V1114.69Z" fill="var(--fill-0, #E2D48E)"/>
<path id="Vector 10" d="M5.31843e-06 1066.51L796.032 1111.72L796.032 1149.39L5.31845e-06 1194.6L5.31843e-06 1066.51Z" fill="url(#paint0_linear_0_4)"/>
</g>
<g id="Group 39725" opacity="0" filter="url(#filter1_d_0_4)">
<path id="Rectangle 5741_2" d="M799.407 1080.34C799.53 1079.22 799.591 1078.65 799.858 1078.25C800.092 1077.9 800.433 1077.63 800.832 1077.48C801.285 1077.32 801.847 1077.39 802.969 1077.54L1220.46 1131.71C1221.56 1131.85 1222.11 1131.92 1222.51 1132.19C1222.86 1132.42 1223.12 1132.76 1223.27 1133.16C1223.44 1133.6 1223.38 1134.16 1223.26 1135.26L1221.02 1155.82C1220.9 1156.91 1220.84 1157.46 1220.58 1157.86C1220.35 1158.21 1220.02 1158.47 1219.63 1158.62C1219.19 1158.79 1218.64 1158.74 1217.55 1158.63L798.715 1116.75C797.582 1116.64 797.016 1116.58 796.607 1116.32C796.247 1116.09 795.97 1115.75 795.817 1115.34C795.642 1114.89 795.704 1114.32 795.827 1113.19L799.407 1080.34Z" fill="var(--fill-0, #E2D48E)"/>
<path id="Vector 10_2" d="M13.8726 939.662L799.947 1077.78L795.867 1115.21L0.00182237 1066.94L13.8726 939.662Z" fill="url(#paint1_linear_0_4)"/>
</g>
<g id="Group 39726" opacity="0" filter="url(#filter2_d_0_4)">
<path id="Rectangle 5741_3" d="M806.69 1047C806.934 1045.89 807.056 1045.34 807.364 1044.97C807.635 1044.65 808.003 1044.42 808.414 1044.32C808.882 1044.21 809.431 1044.35 810.529 1044.62L1219.75 1147.38C1220.83 1147.65 1221.36 1147.79 1221.73 1148.1C1222.05 1148.38 1222.28 1148.74 1222.38 1149.15C1222.5 1149.62 1222.38 1150.16 1222.14 1151.24L1217.69 1171.4C1217.45 1172.48 1217.33 1173.01 1217.03 1173.38C1216.77 1173.7 1216.41 1173.93 1216.01 1174.03C1215.55 1174.15 1215.01 1174.03 1213.94 1173.79L802.055 1083.09C800.943 1082.85 800.388 1082.73 800.011 1082.41C799.679 1082.14 799.441 1081.77 799.333 1081.35C799.209 1080.88 799.332 1080.32 799.577 1079.21L806.69 1047Z" fill="var(--fill-0, #E2D48E)"/>
<path id="Vector 10_3" d="M41.3866 815.248L807.507 1044.51L799.399 1081.23L13.8214 940.093L41.3866 815.248Z" fill="url(#paint2_linear_0_4)"/>
</g>
<g id="Group 39727" opacity="0" filter="url(#filter3_d_0_4)">
<path id="Rectangle 5741_4" d="M817.546 1014.72C817.909 1013.65 818.091 1013.12 818.437 1012.78C818.741 1012.49 819.13 1012.31 819.549 1012.26C820.024 1012.2 820.554 1012.4 821.612 1012.81L1217.56 1162.99C1218.6 1163.38 1219.12 1163.57 1219.45 1163.93C1219.73 1164.24 1219.92 1164.63 1219.98 1165.05C1220.04 1165.53 1219.86 1166.05 1219.51 1167.1L1212.91 1186.6C1212.55 1187.64 1212.38 1188.16 1212.04 1188.49C1211.74 1188.78 1211.37 1188.97 1210.96 1189.02C1210.49 1189.09 1209.97 1188.91 1208.93 1188.55L809.026 1050.04C807.951 1049.67 807.414 1049.48 807.074 1049.13C806.775 1048.81 806.58 1048.42 806.518 1047.99C806.447 1047.5 806.63 1046.97 806.995 1045.89L817.546 1014.72Z" fill="var(--fill-0, #E2D48E)"/>
<path id="Vector 10_4" d="M82.202 694.848L818.625 1012.34L806.592 1047.88L41.2929 815.672L82.202 694.848Z" fill="url(#paint3_linear_0_4)"/>
</g>
<g id="Group 39728" opacity="0" filter="url(#filter4_d_0_4)">
<path id="Rectangle 5741_5" d="M831.823 983.928C832.301 982.902 832.54 982.389 832.919 982.098C833.253 981.843 833.659 981.704 834.08 981.703C834.558 981.702 835.06 981.963 836.065 982.484L1213.68 1178.28C1214.66 1178.8 1215.15 1179.05 1215.44 1179.44C1215.69 1179.78 1215.83 1180.2 1215.84 1180.62C1215.85 1181.1 1215.62 1181.6 1215.15 1182.61L1206.49 1201.19C1206.02 1202.19 1205.79 1202.69 1205.42 1202.98C1205.1 1203.23 1204.7 1203.37 1204.29 1203.38C1203.82 1203.39 1203.32 1203.15 1202.33 1202.67L819.527 1018.01C818.503 1017.51 817.99 1017.27 817.693 1016.87C817.431 1016.53 817.282 1016.11 817.267 1015.68C817.25 1015.19 817.491 1014.67 817.971 1013.64L831.823 983.928Z" fill="var(--fill-0, #E2D48E)"/>
<path id="Vector 10_5" d="M135.799 579.992L833.159 981.675L817.355 1015.58L82.0666 695.259L135.799 579.992Z" fill="url(#paint4_linear_0_4)"/>
</g>
<g id="Group 39729" opacity="0" filter="url(#filter5_d_0_4)">
<path id="Rectangle 5741_6" d="M849.34 954.998C849.928 954.031 850.222 953.548 850.631 953.302C850.99 953.085 851.409 952.994 851.825 953.041C852.299 953.094 852.769 953.41 853.707 954.044L1208.09 1193.05C1209.01 1193.67 1209.47 1193.98 1209.7 1194.4C1209.92 1194.77 1210.01 1195.2 1209.97 1195.62C1209.93 1196.1 1209.64 1196.57 1209.07 1197.52L1198.46 1214.95C1197.89 1215.89 1197.6 1216.36 1197.2 1216.61C1196.85 1216.82 1196.44 1216.92 1196.03 1216.88C1195.57 1216.84 1195.1 1216.54 1194.17 1215.95L833.427 987.404C832.467 986.795 831.986 986.491 831.735 986.068C831.513 985.696 831.412 985.262 831.446 984.83C831.484 984.339 831.78 983.853 832.371 982.882L849.34 954.998Z" fill="var(--fill-0, #E2D48E)"/>
<path id="Vector 10_6" d="M201.489 472.139L850.917 952.906L831.542 984.743L135.616 580.383L201.489 472.139Z" fill="url(#paint5_linear_0_4)"/>
</g>
<g id="Group 39730" opacity="0" filter="url(#filter6_d_0_4)">
<path id="Rectangle 5741_7" d="M869.882 928.305C870.574 927.409 870.92 926.962 871.353 926.763C871.734 926.588 872.159 926.545 872.568 926.638C873.032 926.745 873.462 927.113 874.323 927.848L1201.01 1207.2C1201.86 1207.92 1202.28 1208.28 1202.47 1208.72C1202.64 1209.11 1202.68 1209.55 1202.6 1209.97C1202.5 1210.44 1202.16 1210.88 1201.48 1211.76L1189.08 1227.81C1188.4 1228.68 1188.06 1229.12 1187.64 1229.32C1187.27 1229.49 1186.85 1229.54 1186.45 1229.46C1185.99 1229.36 1185.56 1229.02 1184.71 1228.32L850.558 958.623C849.674 957.909 849.231 957.552 849.029 957.102C848.851 956.707 848.799 956.264 848.881 955.838C848.974 955.354 849.322 954.904 850.018 954.004L869.882 928.305Z" fill="var(--fill-0, #E2D48E)"/>
<path id="Vector 10_7" d="M278.437 372.662L871.675 926.399L848.975 955.766L201.262 472.506L278.437 372.662Z" fill="url(#paint6_linear_0_4)"/>
</g>
<g id="Group 39731" opacity="0" filter="url(#filter7_d_0_4)">
<path id="Rectangle 5741_8" d="M893.173 904.185C893.961 903.372 894.355 902.966 894.807 902.818C895.204 902.687 895.632 902.691 896.027 902.83C896.476 902.988 896.862 903.402 897.634 904.23L1192.45 1220.52C1193.21 1221.33 1193.59 1221.74 1193.72 1222.2C1193.85 1222.61 1193.84 1223.05 1193.71 1223.45C1193.56 1223.91 1193.18 1224.31 1192.41 1225.11L1178.36 1239.59C1177.59 1240.38 1177.2 1240.78 1176.76 1240.93C1176.37 1241.06 1175.95 1241.06 1175.56 1240.93C1175.12 1240.78 1174.73 1240.39 1173.96 1239.61L870.687 932.027C869.89 931.218 869.491 930.813 869.34 930.344C869.208 929.931 869.206 929.485 869.336 929.071C869.482 928.6 869.878 928.192 870.67 927.376L893.173 904.185Z" fill="var(--fill-0, #E2D48E)"/>
<path id="Vector 10_8" d="M365.676 282.827L895.179 902.493L869.444 929.016L278.18 373.002L365.676 282.827Z" fill="url(#paint7_linear_0_4)"/>
</g>
<g id="Group 39732" opacity="0" filter="url(#filter8_d_0_4)">
<path id="Rectangle 5741_9" d="M918.932 882.945C919.807 882.227 920.244 881.869 920.711 881.772C921.121 881.686 921.545 881.739 921.922 881.921C922.351 882.129 922.688 882.583 923.362 883.493L1182.21 1232.49C1182.87 1233.38 1183.2 1233.83 1183.29 1234.31C1183.36 1234.72 1183.31 1235.16 1183.14 1235.55C1182.94 1235.99 1182.51 1236.34 1181.65 1237.04L1166.14 1249.77C1165.29 1250.47 1164.87 1250.82 1164.41 1250.92C1164.01 1251 1163.59 1250.96 1163.22 1250.79C1162.79 1250.59 1162.45 1250.16 1161.77 1249.29L893.577 907.958C892.875 907.064 892.524 906.618 892.427 906.135C892.342 905.71 892.391 905.266 892.566 904.87C892.765 904.419 893.204 904.058 894.083 903.337L918.932 882.945Z" fill="var(--fill-0, #E2D48E)"/>
<path id="Vector 10_9" d="M462.08 203.777L921.115 881.49L892.671 904.832L365.375 283.135L462.08 203.777Z" fill="url(#paint8_linear_0_4)"/>
</g>
<g id="Group 39733" opacity="0" filter="url(#filter9_d_0_4)">
<path id="Rectangle 5741_10" d="M946.818 864.852C947.769 864.239 948.244 863.933 948.719 863.889C949.136 863.851 949.553 863.951 949.907 864.174C950.311 864.429 950.595 864.918 951.165 865.896L1170.75 1243.27C1171.31 1244.23 1171.59 1244.71 1171.62 1245.19C1171.65 1245.62 1171.54 1246.04 1171.33 1246.41C1171.08 1246.82 1170.61 1247.12 1169.68 1247.72L1152.92 1258.54C1151.99 1259.14 1151.53 1259.44 1151.06 1259.48C1150.65 1259.52 1150.24 1259.43 1149.89 1259.22C1149.49 1258.98 1149.2 1258.51 1148.62 1257.57L918.919 886.719C918.32 885.753 918.021 885.27 917.979 884.78C917.942 884.349 918.04 883.914 918.259 883.541C918.507 883.116 918.985 882.808 919.941 882.191L946.818 864.852Z" fill="var(--fill-0, #E2D48E)"/>
<path id="Vector 10_10" d="M566.429 136.514L949.158 863.656L918.367 883.52L461.746 204.046L566.429 136.514Z" fill="url(#paint9_linear_0_4)"/>
</g>
<g id="Group 39734" opacity="0" filter="url(#filter10_d_0_4)">
<path id="Rectangle 5741_11" d="M976.503 850.141C977.518 849.641 978.025 849.391 978.503 849.402C978.923 849.412 979.326 849.559 979.654 849.821C980.028 850.119 980.257 850.636 980.715 851.671L1158.31 1252.95C1158.76 1253.96 1158.98 1254.47 1158.96 1254.95C1158.94 1255.38 1158.79 1255.79 1158.54 1256.12C1158.24 1256.51 1157.75 1256.75 1156.75 1257.24L1138.95 1266.02C1137.96 1266.5 1137.46 1266.75 1136.99 1266.74C1136.58 1266.73 1136.18 1266.6 1135.85 1266.34C1135.48 1266.06 1135.25 1265.56 1134.77 1264.56L946.419 868.587C945.931 867.561 945.686 867.047 945.699 866.556C945.711 866.125 945.856 865.705 946.116 865.36C946.41 864.967 946.92 864.715 947.94 864.213L976.503 850.141Z" fill="var(--fill-0, #E2D48E)"/>
<path id="Vector 10_11" d="M677.411 81.8965L978.966 849.221L946.22 865.353L566.08 136.744L677.411 81.8965Z" fill="url(#paint10_linear_0_4)"/>
</g>
<g id="Group 39735" opacity="0" filter="url(#filter11_d_0_4)">
<path id="Rectangle 5741_12" d="M1007.58 838.996C1008.64 838.617 1009.18 838.427 1009.65 838.493C1010.07 838.551 1010.45 838.742 1010.75 839.04C1011.09 839.378 1011.26 839.918 1011.6 840.996L1144.79 1261.05C1145.13 1262.11 1145.3 1262.64 1145.22 1263.11C1145.15 1263.53 1144.96 1263.92 1144.67 1264.23C1144.33 1264.57 1143.81 1264.76 1142.77 1265.13L1124.14 1271.76C1123.11 1272.13 1122.59 1272.31 1122.12 1272.25C1121.71 1272.2 1121.33 1272.01 1121.03 1271.73C1120.69 1271.4 1120.51 1270.88 1120.15 1269.84L975.693 853.789C975.32 852.716 975.134 852.179 975.201 851.694C975.26 851.267 975.452 850.868 975.748 850.555C976.085 850.199 976.62 850.009 977.691 849.628L1007.58 838.996Z" fill="var(--fill-0, #E2D48E)"/>
<path id="Vector 10_12" d="M793.589 40.6195L1010.14 838.367L975.851 850.563L677.027 82.0851L793.589 40.6195Z" fill="url(#paint11_linear_0_4)"/>
</g>
<g id="Group 39736" opacity="0" filter="url(#filter12_d_0_4)">
<path id="Rectangle 5741_13" d="M1039.67 831.556C1040.78 831.303 1041.33 831.177 1041.79 831.297C1042.2 831.403 1042.56 831.637 1042.83 831.967C1043.13 832.342 1043.24 832.897 1043.46 834.006L1130.43 1267.53C1130.65 1268.62 1130.76 1269.16 1130.63 1269.62C1130.52 1270.03 1130.29 1270.39 1129.96 1270.66C1129.59 1270.97 1129.05 1271.09 1127.97 1271.34L1108.76 1275.74C1107.69 1275.98 1107.15 1276.11 1106.69 1275.99C1106.29 1275.89 1105.93 1275.67 1105.66 1275.35C1105.36 1274.99 1105.24 1274.45 1104.99 1273.37L1006.39 842.513C1006.14 841.406 1006.01 840.852 1006.13 840.378C1006.24 839.962 1006.47 839.588 1006.8 839.312C1007.18 838.999 1007.73 838.872 1008.84 838.618L1039.67 831.556Z" fill="var(--fill-0, #E2D48E)"/>
<path id="Vector 10_13" d="M913.51 13.2036L1042.29 831.229L1006.91 839.334L793.199 40.7599L913.51 13.2036Z" fill="url(#paint12_linear_0_4)"/>
</g>
<g id="Group 39737" opacity="0" filter="url(#filter13_d_0_4)">
<path id="Rectangle 5741_14" d="M1072.37 827.919C1073.49 827.797 1074.05 827.736 1074.5 827.91C1074.9 828.062 1075.23 828.337 1075.46 828.695C1075.72 829.102 1075.77 829.666 1075.87 830.792L1115.41 1272.39C1115.51 1273.5 1115.56 1274.05 1115.38 1274.5C1115.23 1274.89 1114.95 1275.22 1114.6 1275.45C1114.2 1275.71 1113.65 1275.77 1112.54 1275.89L1092.99 1278.01C1091.89 1278.13 1091.35 1278.19 1090.9 1278.02C1090.51 1277.88 1090.18 1277.61 1089.95 1277.26C1089.69 1276.87 1089.62 1276.32 1089.5 1275.22L1038.12 834.906C1037.98 833.778 1037.92 833.213 1038.09 832.757C1038.24 832.357 1038.51 832.013 1038.87 831.778C1039.28 831.51 1039.84 831.449 1040.97 831.326L1072.37 827.919Z" fill="var(--fill-0, #E2D48E)"/>
<path id="Vector 10_14" d="M1035.62 4.02283e-05L1075.01 827.901L1038.97 831.812L913.093 13.2966L1035.62 4.02283e-05Z" fill="url(#paint13_linear_0_4)"/>
</g>
<g id="Group 39738" opacity="0" filter="url(#filter14_d_0_4)">
<path id="Rectangle 5741_15" d="M1105.26 828.134C1106.39 828.144 1106.95 828.149 1107.38 828.374C1107.76 828.572 1108.06 828.884 1108.25 829.267C1108.46 829.701 1108.45 830.266 1108.43 831.397L1099.89 1275.2C1099.87 1276.3 1099.86 1276.86 1099.64 1277.28C1099.44 1277.65 1099.13 1277.95 1098.76 1278.14C1098.33 1278.35 1097.78 1278.34 1096.67 1278.33L1077.01 1278.15C1075.91 1278.14 1075.36 1278.14 1074.94 1277.92C1074.56 1277.73 1074.26 1277.42 1074.07 1277.05C1073.85 1276.63 1073.85 1276.08 1073.84 1274.97L1070.47 831.065C1070.46 829.929 1070.46 829.361 1070.68 828.928C1070.87 828.547 1071.18 828.238 1071.56 828.046C1071.99 827.828 1072.56 827.833 1073.7 827.843L1105.26 828.134Z" fill="var(--fill-0, #E2D48E)"/>
<path id="Vector 10_15" d="M1158.4 1.17718L1107.89 828.424L1071.65 828.091L1035.21 0.044888L1158.4 1.17718Z" fill="url(#paint14_linear_0_4)"/>
</g>
<g id="Group 39739" opacity="0" filter="url(#filter15_d_0_4)">
<path id="Rectangle 5741_16" d="M1137.91 832.198C1139.03 832.34 1139.59 832.412 1139.99 832.685C1140.35 832.926 1140.62 833.272 1140.76 833.674C1140.92 834.131 1140.85 834.692 1140.71 835.813L1084.11 1276.3C1083.97 1277.4 1083.9 1277.95 1083.63 1278.34C1083.39 1278.68 1083.06 1278.95 1082.66 1279.09C1082.22 1279.25 1081.66 1279.18 1080.56 1279.04L1061.05 1276.56C1059.96 1276.42 1059.41 1276.35 1059.01 1276.08C1058.66 1275.85 1058.4 1275.51 1058.25 1275.12C1058.08 1274.67 1058.13 1274.12 1058.25 1273.03L1103.03 831.04C1103.14 829.909 1103.2 829.344 1103.46 828.939C1103.69 828.583 1104.04 828.312 1104.43 828.166C1104.89 827.999 1105.45 828.071 1106.58 828.214L1137.91 832.198Z" fill="var(--fill-0, #E2D48E)"/>
<path id="Vector 10_16" d="M1280.27 16.7211L1140.49 832.794L1104.52 828.221L1157.98 1.17437L1280.27 16.7211Z" fill="url(#paint15_linear_0_4)"/>
</g>
<g id="Group 39740" opacity="0" filter="url(#filter16_d_0_4)">
<path id="Rectangle 5741_17" d="M1169.93 840.058C1171.03 840.331 1171.58 840.467 1171.95 840.786C1172.27 841.067 1172.5 841.443 1172.6 841.859C1172.71 842.333 1172.58 842.883 1172.31 843.982L1068.31 1275.31C1068.05 1276.39 1067.92 1276.93 1067.61 1277.29C1067.34 1277.61 1066.98 1277.83 1066.57 1277.92C1066.11 1278.03 1065.57 1277.89 1064.5 1277.63L1045.37 1272.88C1044.3 1272.61 1043.76 1272.48 1043.4 1272.17C1043.08 1271.89 1042.85 1271.53 1042.74 1271.12C1042.62 1270.66 1042.74 1270.12 1042.97 1269.04L1135.39 834.828C1135.62 833.716 1135.74 833.16 1136.05 832.788C1136.32 832.461 1136.69 832.231 1137.1 832.132C1137.57 832.019 1138.12 832.156 1139.22 832.43L1169.93 840.058Z" fill="var(--fill-0, #E2D48E)"/>
<path id="Vector 10_17" d="M1399.68 46.4314L1172.42 840.952L1137.18 832.197L1279.86 16.6679L1399.68 46.4314Z" fill="url(#paint16_linear_0_4)"/>
</g>
<g id="Group 39741" opacity="0" filter="url(#filter17_d_0_4)">
<path id="Rectangle 5741_18" d="M1200.89 851.619C1201.95 852.018 1202.48 852.217 1202.81 852.577C1203.1 852.894 1203.28 853.295 1203.33 853.721C1203.4 854.206 1203.2 854.738 1202.82 855.801L1052.76 1272.26C1052.38 1273.3 1052.19 1273.82 1051.85 1274.15C1051.55 1274.43 1051.16 1274.61 1050.75 1274.65C1050.28 1274.71 1049.76 1274.51 1048.72 1274.12L1030.21 1267.15C1029.18 1266.77 1028.66 1266.57 1028.34 1266.22C1028.05 1265.91 1027.86 1265.52 1027.8 1265.1C1027.74 1264.63 1027.91 1264.1 1028.25 1263.05L1167.12 842.383C1167.48 841.303 1167.66 840.763 1168 840.428C1168.3 840.134 1168.69 839.947 1169.11 839.896C1169.59 839.838 1170.12 840.038 1171.18 840.439L1200.89 851.619Z" fill="var(--fill-0, #E2D48E)"/>
<path id="Vector 10_18" d="M1515.11 89.9321L1203.26 852.796L1169.19 839.971L1399.27 46.3304L1515.11 89.9321Z" fill="url(#paint17_linear_0_4)"/>
</g>
<g id="Group 39742" opacity="0" filter="url(#filter18_d_0_4)">
<path id="Rectangle 5741_19" d="M1230.4 866.732C1231.4 867.25 1231.91 867.509 1232.19 867.905C1232.45 868.254 1232.59 868.674 1232.59 869.105C1232.6 869.594 1232.35 870.102 1231.85 871.117L1037.55 1267.56C1037.06 1268.55 1036.82 1269.05 1036.44 1269.33C1036.11 1269.58 1035.71 1269.71 1035.3 1269.71C1034.82 1269.71 1034.33 1269.46 1033.35 1268.95L1015.69 1259.85C1014.71 1259.34 1014.22 1259.09 1013.93 1258.7C1013.68 1258.36 1013.54 1257.95 1013.53 1257.53C1013.51 1257.05 1013.74 1256.55 1014.2 1255.54L1197.83 853.605C1198.3 852.571 1198.54 852.053 1198.92 851.759C1199.25 851.501 1199.66 851.36 1200.08 851.357C1200.56 851.354 1201.07 851.614 1202.08 852.135L1230.4 866.732Z" fill="var(--fill-0, #E2D48E)"/>
<path id="Vector 10_19" d="M1625.09 146.668L1232.62 868.173L1200.15 851.442L1514.71 89.7826L1625.09 146.668Z" fill="url(#paint18_linear_0_4)"/>
</g>
<g id="Group 39743" opacity="0" filter="url(#filter19_d_0_4)">
<path id="Rectangle 5741_20" d="M1258.09 885.209C1259.03 885.84 1259.5 886.155 1259.74 886.582C1259.95 886.958 1260.04 887.392 1260 887.821C1259.95 888.309 1259.65 888.787 1259.04 889.741L1022.94 1261.09C1022.35 1262.02 1022.05 1262.49 1021.64 1262.73C1021.29 1262.93 1020.88 1263.02 1020.46 1262.97C1020 1262.92 1019.54 1262.61 1018.62 1261.99L1002.04 1250.87C1001.12 1250.26 1000.66 1249.95 1000.42 1249.53C1000.21 1249.16 1000.12 1248.74 1000.15 1248.31C1000.19 1247.83 1000.47 1247.36 1001.04 1246.41L1227.14 868.358C1227.72 867.381 1228.01 866.893 1228.42 866.644C1228.78 866.424 1229.2 866.33 1229.62 866.375C1230.09 866.427 1230.56 866.743 1231.51 867.377L1258.09 885.209Z" fill="var(--fill-0, #E2D48E)"/>
<path id="Vector 10_20" d="M1728.24 215.924L1260.13 886.895L1229.68 866.469L1624.72 146.478L1728.24 215.924Z" fill="url(#paint19_linear_0_4)"/>
</g>
<g id="Group 39744" opacity="0" filter="url(#filter20_d_0_4)">
<path id="Rectangle 5741_21" d="M1283.6 906.808C1284.46 907.541 1284.9 907.908 1285.09 908.36C1285.25 908.758 1285.3 909.201 1285.21 909.623C1285.1 910.103 1284.75 910.543 1284.04 911.424L1009.21 1252.8C1008.51 1253.66 1008.16 1254.09 1007.73 1254.28C1007.36 1254.45 1006.94 1254.49 1006.54 1254.4C1006.08 1254.29 1005.66 1253.93 1004.81 1253.21L989.523 1240.2C988.682 1239.49 988.262 1239.13 988.071 1238.69C987.903 1238.3 987.856 1237.86 987.937 1237.45C988.029 1236.97 988.364 1236.53 989.032 1235.66L1254.65 886.442C1255.34 885.537 1255.69 885.084 1256.12 884.882C1256.5 884.704 1256.93 884.658 1257.34 884.75C1257.8 884.854 1258.23 885.223 1259.1 885.96L1283.6 906.808Z" fill="var(--fill-0, #E2D48E)"/>
<path id="Vector 10_21" d="M1823.23 296.81L1285.44 908.714L1257.4 884.853L1727.89 215.687L1823.23 296.81Z" fill="url(#paint20_linear_0_4)"/>
</g>
<g id="Group 39745" opacity="0" filter="url(#filter21_d_0_4)">
<path id="Rectangle 5741_22" d="M1306.61 931.261C1307.39 932.086 1307.77 932.499 1307.91 932.971C1308.03 933.385 1308.03 933.829 1307.89 934.239C1307.73 934.704 1307.33 935.102 1306.53 935.898L996.321 1243.08C995.533 1243.86 995.139 1244.25 994.692 1244.39C994.298 1244.52 993.877 1244.51 993.489 1244.37C993.047 1244.21 992.668 1243.81 991.91 1243L978.107 1228.26C977.352 1227.46 976.975 1227.05 976.835 1226.59C976.712 1226.19 976.715 1225.75 976.842 1225.35C976.987 1224.89 977.368 1224.49 978.131 1223.69L1280.03 907.635C1280.82 906.812 1281.21 906.401 1281.66 906.249C1282.06 906.115 1282.49 906.117 1282.89 906.254C1283.34 906.411 1283.73 906.826 1284.5 907.656L1306.61 931.261Z" fill="var(--fill-0, #E2D48E)"/>
<path id="Vector 10_22" d="M1908.85 388.303L1308.22 933.358L1282.94 906.366L1822.9 296.534L1908.85 388.303Z" fill="url(#paint21_linear_0_4)"/>
</g>
<g id="Group 39746" opacity="0" filter="url(#filter22_d_0_4)">
<path id="Rectangle 5741_23" d="M1326.83 958.251C1327.51 959.158 1327.85 959.612 1327.93 960.096C1328.01 960.521 1327.95 960.961 1327.76 961.352C1327.56 961.797 1327.11 962.147 1326.22 962.847L984.587 1231.88C983.716 1232.56 983.281 1232.91 982.82 1232.99C982.415 1233.07 981.997 1233.02 981.626 1232.84C981.205 1232.63 980.873 1232.19 980.211 1231.3L968.074 1215.01C967.415 1214.13 967.085 1213.69 966.998 1213.21C966.921 1212.8 966.973 1212.36 967.145 1211.98C967.34 1211.54 967.764 1211.18 968.612 1210.48L1302.96 931.662C1303.83 930.934 1304.27 930.569 1304.74 930.469C1305.15 930.38 1305.57 930.431 1305.95 930.612C1306.38 930.818 1306.72 931.274 1307.4 932.186L1326.83 958.251Z" fill="var(--fill-0, #E2D48E)"/>
<path id="Vector 10_23" d="M1984.03 489.237L1328.2 960.512L1306 930.732L1908.56 387.991L1984.03 489.237Z" fill="url(#paint22_linear_0_4)"/>
</g>
<g id="Group 39747" opacity="0" filter="url(#filter23_d_0_4)">
<path id="Rectangle 5741_24" d="M1343.99 987.436C1344.56 988.413 1344.85 988.901 1344.88 989.391C1344.9 989.821 1344.8 990.252 1344.57 990.619C1344.31 991.037 1343.83 991.334 1342.87 991.928L974.229 1219.28C973.286 1219.86 972.814 1220.15 972.346 1220.19C971.934 1220.22 971.524 1220.12 971.175 1219.9C970.779 1219.65 970.499 1219.17 969.939 1218.21L959.63 1200.59C959.073 1199.64 958.795 1199.16 958.761 1198.68C958.731 1198.26 958.83 1197.83 959.045 1197.47C959.289 1197.05 959.75 1196.75 960.673 1196.14L1323.13 958.218C1324.08 957.594 1324.56 957.281 1325.03 957.235C1325.45 957.193 1325.87 957.291 1326.23 957.514C1326.63 957.768 1326.92 958.259 1327.5 959.24L1343.99 987.436Z" fill="var(--fill-0, #E2D48E)"/>
<path id="Vector 10_24" d="M2047.79 598.33L1345.1 989.831L1326.27 957.642L1983.77 488.892L2047.79 598.33Z" fill="url(#paint23_linear_0_4)"/>
</g>
<g id="Group 39748" filter="url(#filter24_d_0_4)">
<path id="Rectangle 5741_25" d="M1357.89 1018.45C1358.35 1019.48 1358.58 1020 1358.55 1020.49C1358.53 1020.92 1358.38 1021.33 1358.11 1021.67C1357.81 1022.05 1357.3 1022.29 1356.27 1022.77L965.11 1205.64C964.106 1206.11 963.604 1206.35 963.133 1206.33C962.72 1206.31 962.323 1206.17 962.001 1205.91C961.634 1205.61 961.409 1205.11 960.958 1204.09L952.613 1185.35C952.164 1184.35 951.94 1183.84 951.959 1183.36C951.977 1182.94 952.123 1182.53 952.377 1182.19C952.666 1181.81 953.159 1181.56 954.145 1181.07L1340.31 986.968C1341.32 986.457 1341.83 986.201 1342.31 986.209C1342.73 986.216 1343.14 986.361 1343.47 986.622C1343.85 986.92 1344.08 987.439 1344.54 988.479L1357.89 1018.45Z" fill="var(--fill-0, #E2D48E)"/>
<path id="Vector 10_25" d="M2099.34 714.196L1358.72 1020.95L1343.49 986.756L2047.58 597.959L2099.34 714.196Z" fill="url(#paint24_linear_0_4)"/>
</g>
<g id="Group 39749" filter="url(#filter25_d_0_4)">
<path id="Rectangle 5741_26" d="M1368.34 1050.88C1368.68 1051.96 1368.86 1052.5 1368.78 1052.98C1368.71 1053.4 1368.51 1053.8 1368.21 1054.1C1367.86 1054.45 1367.33 1054.63 1366.25 1054.99L957.693 1190.93C956.641 1191.28 956.116 1191.45 955.649 1191.38C955.239 1191.32 954.86 1191.13 954.568 1190.83C954.235 1190.5 954.067 1189.97 953.729 1188.91L947.461 1169.3C947.125 1168.25 946.957 1167.72 947.03 1167.25C947.093 1166.83 947.284 1166.45 947.574 1166.14C947.905 1165.79 948.423 1165.6 949.459 1165.23L1354.27 1017.54C1355.34 1017.15 1355.87 1016.95 1356.35 1017.02C1356.77 1017.07 1357.15 1017.26 1357.46 1017.56C1357.8 1017.9 1357.97 1018.44 1358.32 1019.52L1368.34 1050.88Z" fill="var(--fill-0, #E2D48E)"/>
<path id="Vector 10_26" d="M2138.02 835.358L1368.89 1053.45L1357.46 1017.7L2099.17 713.8L2138.02 835.358Z" fill="url(#paint25_linear_0_4)"/>
</g>
<ellipse id="Ellipse 33" cx="1080.44" cy="1134.69" rx="10.2667" ry="10.6745" fill="var(--fill-0, black)"/>
</g>
<defs>
<filter id="filter0_d_0_4" x="inf" y="inf" width="-inf" height="-inf" filterUnits="userSpaceOnUse" color-interpolation-filters="sRGB">
<feFlood flood-opacity="0" result="BackgroundImageFix"/>
<feColorMatrix in="SourceAlpha" type="matrix" values="0 0 0 0 0 0 0 0 0 0 0 0 0 0 0 0 0 0 127 0" result="hardAlpha"/>
<feOffset dy="4"/>
<feGaussianBlur stdDeviation="15.75"/>
<feComposite in2="hardAlpha" operator="out"/>
<feColorMatrix type="matrix" values="0 0 0 0 0 0 0 0 0 0 0 0 0 0 0 0 0 0 0.25 0"/>
<feBlend mode="normal" in2="BackgroundImageFix" result="effect1_dropShadow_0_4"/>
<feBlend mode="normal" in="SourceGraphic" in2="effect1_dropShadow_0_4" result="shape"/>
</filter>
<filter id="filter1_d_0_4" x="inf" y="inf" width="-inf" height="-inf" filterUnits="userSpaceOnUse" color-interpolation-filters="sRGB">
<feFlood flood-opacity="0" result="BackgroundImageFix"/>
<feColorMatrix in="SourceAlpha" type="matrix" values="0 0 0 0 0 0 0 0 0 0 0 0 0 0 0 0 0 0 127 0" result="hardAlpha"/>
<feOffset dy="4"/>
<feGaussianBlur stdDeviation="15.75"/>
<feComposite in2="hardAlpha" operator="out"/>
<feColorMatrix type="matrix" values="0 0 0 0 0 0 0 0 0 0 0 0 0 0 0 0 0 0 0.25 0"/>
<feBlend mode="normal" in2="BackgroundImageFix" result="effect1_dropShadow_0_4"/>
<feBlend mode="normal" in="SourceGraphic" in2="effect1_dropShadow_0_4" result="shape"/>
</filter>
<filter id="filter2_d_0_4" x="inf" y="inf" width="-inf" height="-inf" filterUnits="userSpaceOnUse" color-interpolation-filters="sRGB">
<feFlood flood-opacity="0" result="BackgroundImageFix"/>
<feColorMatrix in="SourceAlpha" type="matrix" values="0 0 0 0 0 0 0 0 0 0 0 0 0 0 0 0 0 0 127 0" result="hardAlpha"/>
<feOffset dy="4"/>
<feGaussianBlur stdDeviation="15.75"/>
<feComposite in2="hardAlpha" operator="out"/>
<feColorMatrix type="matrix" values="0 0 0 0 0 0 0 0 0 0 0 0 0 0 0 0 0 0 0.25 0"/>
<feBlend mode="normal" in2="BackgroundImageFix" result="effect1_dropShadow_0_4"/>
<feBlend mode="normal" in="SourceGraphic" in2="effect1_dropShadow_0_4" result="shape"/>
</filter>
<filter id="filter3_d_0_4" x="inf" y="inf" width="-inf" height="-inf" filterUnits="userSpaceOnUse" color-interpolation-filters="sRGB">
<feFlood flood-opacity="0" result="BackgroundImageFix"/>
<feColorMatrix in="SourceAlpha" type="matrix" values="0 0 0 0 0 0 0 0 0 0 0 0 0 0 0 0 0 0 127 0" result="hardAlpha"/>
<feOffset dy="4"/>
<feGaussianBlur stdDeviation="15.75"/>
<feComposite in2="hardAlpha" operator="out"/>
<feColorMatrix type="matrix" values="0 0 0 0 0 0 0 0 0 0 0 0 0 0 0 0 0 0 0.25 0"/>
<feBlend mode="normal" in2="BackgroundImageFix" result="effect1_dropShadow_0_4"/>
<feBlend mode="normal" in="SourceGraphic" in2="effect1_dropShadow_0_4" result="shape"/>
</filter>
<filter id="filter4_d_0_4" x="inf" y="inf" width="-inf" height="-inf" filterUnits="userSpaceOnUse" color-interpolation-filters="sRGB">
<feFlood flood-opacity="0" result="BackgroundImageFix"/>
<feColorMatrix in="SourceAlpha" type="matrix" values="0 0 0 0 0 0 0 0 0 0 0 0 0 0 0 0 0 0 127 0" result="hardAlpha"/>
<feOffset dy="4"/>
<feGaussianBlur stdDeviation="15.75"/>
<feComposite in2="hardAlpha" operator="out"/>
<feColorMatrix type="matrix" values="0 0 0 0 0 0 0 0 0 0 0 0 0 0 0 0 0 0 0.25 0"/>
<feBlend mode="normal" in2="BackgroundImageFix" result="effect1_dropShadow_0_4"/>
<feBlend mode="normal" in="SourceGraphic" in2="effect1_dropShadow_0_4" result="shape"/>
</filter>
<filter id="filter5_d_0_4" x="inf" y="inf" width="-inf" height="-inf" filterUnits="userSpaceOnUse" color-interpolation-filters="sRGB">
<feFlood flood-opacity="0" result="BackgroundImageFix"/>
<feColorMatrix in="SourceAlpha" type="matrix" values="0 0 0 0 0 0 0 0 0 0 0 0 0 0 0 0 0 0 127 0" result="hardAlpha"/>
<feOffset dy="4"/>
<feGaussianBlur stdDeviation="15.75"/>
<feComposite in2="hardAlpha" operator="out"/>
<feColorMatrix type="matrix" values="0 0 0 0 0 0 0 0 0 0 0 0 0 0 0 0 0 0 0.25 0"/>
<feBlend mode="normal" in2="BackgroundImageFix" result="effect1_dropShadow_0_4"/>
<feBlend mode="normal" in="SourceGraphic" in2="effect1_dropShadow_0_4" result="shape"/>
</filter>
<filter id="filter6_d_0_4" x="inf" y="inf" width="-inf" height="-inf" filterUnits="userSpaceOnUse" color-interpolation-filters="sRGB">
<feFlood flood-opacity="0" result="BackgroundImageFix"/>
<feColorMatrix in="SourceAlpha" type="matrix" values="0 0 0 0 0 0 0 0 0 0 0 0 0 0 0 0 0 0 127 0" result="hardAlpha"/>
<feOffset dy="4"/>
<feGaussianBlur stdDeviation="15.75"/>
<feComposite in2="hardAlpha" operator="out"/>
<feColorMatrix type="matrix" values="0 0 0 0 0 0 0 0 0 0 0 0 0 0 0 0 0 0 0.25 0"/>
<feBlend mode="normal" in2="BackgroundImageFix" result="effect1_dropShadow_0_4"/>
<feBlend mode="normal" in="SourceGraphic" in2="effect1_dropShadow_0_4" result="shape"/>
</filter>
<filter id="filter7_d_0_4" x="inf" y="inf" width="-inf" height="-inf" filterUnits="userSpaceOnUse" color-interpolation-filters="sRGB">
<feFlood flood-opacity="0" result="BackgroundImageFix"/>
<feColorMatrix in="SourceAlpha" type="matrix" values="0 0 0 0 0 0 0 0 0 0 0 0 0 0 0 0 0 0 127 0" result="hardAlpha"/>
<feOffset dy="4"/>
<feGaussianBlur stdDeviation="15.75"/>
<feComposite in2="hardAlpha" operator="out"/>
<feColorMatrix type="matrix" values="0 0 0 0 0 0 0 0 0 0 0 0 0 0 0 0 0 0 0.25 0"/>
<feBlend mode="normal" in2="BackgroundImageFix" result="effect1_dropShadow_0_4"/>
<feBlend mode="normal" in="SourceGraphic" in2="effect1_dropShadow_0_4" result="shape"/>
</filter>
<filter id="filter8_d_0_4" x="inf" y="inf" width="-inf" height="-inf" filterUnits="userSpaceOnUse" color-interpolation-filters="sRGB">
<feFlood flood-opacity="0" result="BackgroundImageFix"/>
<feColorMatrix in="SourceAlpha" type="matrix" values="0 0 0 0 0 0 0 0 0 0 0 0 0 0 0 0 0 0 127 0" result="hardAlpha"/>
<feOffset dy="4"/>
<feGaussianBlur stdDeviation="15.75"/>
<feComposite in2="hardAlpha" operator="out"/>
<feColorMatrix type="matrix" values="0 0 0 0 0 0 0 0 0 0 0 0 0 0 0 0 0 0 0.25 0"/>
<feBlend mode="normal" in2="BackgroundImageFix" result="effect1_dropShadow_0_4"/>
<feBlend mode="normal" in="SourceGraphic" in2="effect1_dropShadow_0_4" result="shape"/>
</filter>
<filter id="filter9_d_0_4" x="inf" y="inf" width="-inf" height="-inf" filterUnits="userSpaceOnUse" color-interpolation-filters="sRGB">
<feFlood flood-opacity="0" result="BackgroundImageFix"/>
<feColorMatrix in="SourceAlpha" type="matrix" values="0 0 0 0 0 0 0 0 0 0 0 0 0 0 0 0 0 0 127 0" result="hardAlpha"/>
<feOffset dy="4"/>
<feGaussianBlur stdDeviation="15.75"/>
<feComposite in2="hardAlpha" operator="out"/>
<feColorMatrix type="matrix" values="0 0 0 0 0 0 0 0 0 0 0 0 0 0 0 0 0 0 0.25 0"/>
<feBlend mode="normal" in2="BackgroundImageFix" result="effect1_dropShadow_0_4"/>
<feBlend mode="normal" in="SourceGraphic" in2="effect1_dropShadow_0_4" result="shape"/>
</filter>
<filter id="filter10_d_0_4" x="inf" y="inf" width="-inf" height="-inf" filterUnits="userSpaceOnUse" color-interpolation-filters="sRGB">
<feFlood flood-opacity="0" result="BackgroundImageFix"/>
<feColorMatrix in="SourceAlpha" type="matrix" values="0 0 0 0 0 0 0 0 0 0 0 0 0 0 0 0 0 0 127 0" result="hardAlpha"/>
<feOffset dy="4"/>
<feGaussianBlur stdDeviation="15.75"/>
<feComposite in2="hardAlpha" operator="out"/>
<feColorMatrix type="matrix" values="0 0 0 0 0 0 0 0 0 0 0 0 0 0 0 0 0 0 0.25 0"/>
<feBlend mode="normal" in2="BackgroundImageFix" result="effect1_dropShadow_0_4"/>
<feBlend mode="normal" in="SourceGraphic" in2="effect1_dropShadow_0_4" result="shape"/>
</filter>
<filter id="filter11_d_0_4" x="inf" y="inf" width="-inf" height="-inf" filterUnits="userSpaceOnUse" color-interpolation-filters="sRGB">
<feFlood flood-opacity="0" result="BackgroundImageFix"/>
<feColorMatrix in="SourceAlpha" type="matrix" values="0 0 0 0 0 0 0 0 0 0 0 0 0 0 0 0 0 0 127 0" result="hardAlpha"/>
<feOffset dy="4"/>
<feGaussianBlur stdDeviation="15.75"/>
<feComposite in2="hardAlpha" operator="out"/>
<feColorMatrix type="matrix" values="0 0 0 0 0 0 0 0 0 0 0 0 0 0 0 0 0 0 0.25 0"/>
<feBlend mode="normal" in2="BackgroundImageFix" result="effect1_dropShadow_0_4"/>
<feBlend mode="normal" in="SourceGraphic" in2="effect1_dropShadow_0_4" result="shape"/>
</filter>
<filter id="filter12_d_0_4" x="inf" y="inf" width="-inf" height="-inf" filterUnits="userSpaceOnUse" color-interpolation-filters="sRGB">
<feFlood flood-opacity="0" result="BackgroundImageFix"/>
<feColorMatrix in="SourceAlpha" type="matrix" values="0 0 0 0 0 0 0 0 0 0 0 0 0 0 0 0 0 0 127 0" result="hardAlpha"/>
<feOffset dy="4"/>
<feGaussianBlur stdDeviation="15.75"/>
<feComposite in2="hardAlpha" operator="out"/>
<feColorMatrix type="matrix" values="0 0 0 0 0 0 0 0 0 0 0 0 0 0 0 0 0 0 0.25 0"/>
<feBlend mode="normal" in2="BackgroundImageFix" result="effect1_dropShadow_0_4"/>
<feBlend mode="normal" in="SourceGraphic" in2="effect1_dropShadow_0_4" result="shape"/>
</filter>
<filter id="filter13_d_0_4" x="inf" y="inf" width="-inf" height="-inf" filterUnits="userSpaceOnUse" color-interpolation-filters="sRGB">
<feFlood flood-opacity="0" result="BackgroundImageFix"/>
<feColorMatrix in="SourceAlpha" type="matrix" values="0 0 0 0 0 0 0 0 0 0 0 0 0 0 0 0 0 0 127 0" result="hardAlpha"/>
<feOffset dy="4"/>
<feGaussianBlur stdDeviation="15.75"/>
<feComposite in2="hardAlpha" operator="out"/>
<feColorMatrix type="matrix" values="0 0 0 0 0 0 0 0 0 0 0 0 0 0 0 0 0 0 0.25 0"/>
<feBlend mode="normal" in2="BackgroundImageFix" result="effect1_dropShadow_0_4"/>
<feBlend mode="normal" in="SourceGraphic" in2="effect1_dropShadow_0_4" result="shape"/>
</filter>
<filter id="filter14_d_0_4" x="inf" y="inf" width="-inf" height="-inf" filterUnits="userSpaceOnUse" color-interpolation-filters="sRGB">
<feFlood flood-opacity="0" result="BackgroundImageFix"/>
<feColorMatrix in="SourceAlpha" type="matrix" values="0 0 0 0 0 0 0 0 0 0 0 0 0 0 0 0 0 0 127 0" result="hardAlpha"/>
<feOffset dy="4"/>
<feGaussianBlur stdDeviation="15.75"/>
<feComposite in2="hardAlpha" operator="out"/>
<feColorMatrix type="matrix" values="0 0 0 0 0 0 0 0 0 0 0 0 0 0 0 0 0 0 0.25 0"/>
<feBlend mode="normal" in2="BackgroundImageFix" result="effect1_dropShadow_0_4"/>
<feBlend mode="normal" in="SourceGraphic" in2="effect1_dropShadow_0_4" result="shape"/>
</filter>
<filter id="filter15_d_0_4" x="inf" y="inf" width="-inf" height="-inf" filterUnits="userSpaceOnUse" color-interpolation-filters="sRGB">
<feFlood flood-opacity="0" result="BackgroundImageFix"/>
<feColorMatrix in="SourceAlpha" type="matrix" values="0 0 0 0 0 0 0 0 0 0 0 0 0 0 0 0 0 0 127 0" result="hardAlpha"/>
<feOffset dy="4"/>
<feGaussianBlur stdDeviation="15.75"/>
<feComposite in2="hardAlpha" operator="out"/>
<feColorMatrix type="matrix" values="0 0 0 0 0 0 0 0 0 0 0 0 0 0 0 0 0 0 0.25 0"/>
<feBlend mode="normal" in2="BackgroundImageFix" result="effect1_dropShadow_0_4"/>
<feBlend mode="normal" in="SourceGraphic" in2="effect1_dropShadow_0_4" result="shape"/>
</filter>
<filter id="filter16_d_0_4" x="inf" y="inf" width="-inf" height="-inf" filterUnits="userSpaceOnUse" color-interpolation-filters="sRGB">
<feFlood flood-opacity="0" result="BackgroundImageFix"/>
<feColorMatrix in="SourceAlpha" type="matrix" values="0 0 0 0 0 0 0 0 0 0 0 0 0 0 0 0 0 0 127 0" result="hardAlpha"/>
<feOffset dy="4"/>
<feGaussianBlur stdDeviation="15.75"/>
<feComposite in2="hardAlpha" operator="out"/>
<feColorMatrix type="matrix" values="0 0 0 0 0 0 0 0 0 0 0 0 0 0 0 0 0 0 0.25 0"/>
<feBlend mode="normal" in2="BackgroundImageFix" result="effect1_dropShadow_0_4"/>
<feBlend mode="normal" in="SourceGraphic" in2="effect1_dropShadow_0_4" result="shape"/>
</filter>
<filter id="filter17_d_0_4" x="inf" y="inf" width="-inf" height="-inf" filterUnits="userSpaceOnUse" color-interpolation-filters="sRGB">
<feFlood flood-opacity="0" result="BackgroundImageFix"/>
<feColorMatrix in="SourceAlpha" type="matrix" values="0 0 0 0 0 0 0 0 0 0 0 0 0 0 0 0 0 0 127 0" result="hardAlpha"/>
<feOffset dy="4"/>
<feGaussianBlur stdDeviation="15.75"/>
<feComposite in2="hardAlpha" operator="out"/>
<feColorMatrix type="matrix" values="0 0 0 0 0 0 0 0 0 0 0 0 0 0 0 0 0 0 0.25 0"/>
<feBlend mode="normal" in2="BackgroundImageFix" result="effect1_dropShadow_0_4"/>
<feBlend mode="normal" in="SourceGraphic" in2="effect1_dropShadow_0_4" result="shape"/>
</filter>
<filter id="filter18_d_0_4" x="inf" y="inf" width="-inf" height="-inf" filterUnits="userSpaceOnUse" color-interpolation-filters="sRGB">
<feFlood flood-opacity="0" result="BackgroundImageFix"/>
<feColorMatrix in="SourceAlpha" type="matrix" values="0 0 0 0 0 0 0 0 0 0 0 0 0 0 0 0 0 0 127 0" result="hardAlpha"/>
<feOffset dy="4"/>
<feGaussianBlur stdDeviation="15.75"/>
<feComposite in2="hardAlpha" operator="out"/>
<feColorMatrix type="matrix" values="0 0 0 0 0 0 0 0 0 0 0 0 0 0 0 0 0 0 0.25 0"/>
<feBlend mode="normal" in2="BackgroundImageFix" result="effect1_dropShadow_0_4"/>
<feBlend mode="normal" in="SourceGraphic" in2="effect1_dropShadow_0_4" result="shape"/>
</filter>
<filter id="filter19_d_0_4" x="inf" y="inf" width="-inf" height="-inf" filterUnits="userSpaceOnUse" color-interpolation-filters="sRGB">
<feFlood flood-opacity="0" result="BackgroundImageFix"/>
<feColorMatrix in="SourceAlpha" type="matrix" values="0 0 0 0 0 0 0 0 0 0 0 0 0 0 0 0 0 0 127 0" result="hardAlpha"/>
<feOffset dy="4"/>
<feGaussianBlur stdDeviation="15.75"/>
<feComposite in2="hardAlpha" operator="out"/>
<feColorMatrix type="matrix" values="0 0 0 0 0 0 0 0 0 0 0 0 0 0 0 0 0 0 0.25 0"/>
<feBlend mode="normal" in2="BackgroundImageFix" result="effect1_dropShadow_0_4"/>
<feBlend mode="normal" in="SourceGraphic" in2="effect1_dropShadow_0_4" result="shape"/>
</filter>
<filter id="filter20_d_0_4" x="inf" y="inf" width="-inf" height="-inf" filterUnits="userSpaceOnUse" color-interpolation-filters="sRGB">
<feFlood flood-opacity="0" result="BackgroundImageFix"/>
<feColorMatrix in="SourceAlpha" type="matrix" values="0 0 0 0 0 0 0 0 0 0 0 0 0 0 0 0 0 0 127 0" result="hardAlpha"/>
<feOffset dy="4"/>
<feGaussianBlur stdDeviation="15.75"/>
<feComposite in2="hardAlpha" operator="out"/>
<feColorMatrix type="matrix" values="0 0 0 0 0 0 0 0 0 0 0 0 0 0 0 0 0 0 0.25 0"/>
<feBlend mode="normal" in2="BackgroundImageFix" result="effect1_dropShadow_0_4"/>
<feBlend mode="normal" in="SourceGraphic" in2="effect1_dropShadow_0_4" result="shape"/>
</filter>
<filter id="filter21_d_0_4" x="inf" y="inf" width="-inf" height="-inf" filterUnits="userSpaceOnUse" color-interpolation-filters="sRGB">
<feFlood flood-opacity="0" result="BackgroundImageFix"/>
<feColorMatrix in="SourceAlpha" type="matrix" values="0 0 0 0 0 0 0 0 0 0 0 0 0 0 0 0 0 0 127 0" result="hardAlpha"/>
<feOffset dy="4"/>
<feGaussianBlur stdDeviation="15.75"/>
<feComposite in2="hardAlpha" operator="out"/>
<feColorMatrix type="matrix" values="0 0 0 0 0 0 0 0 0 0 0 0 0 0 0 0 0 0 0.25 0"/>
<feBlend mode="normal" in2="BackgroundImageFix" result="effect1_dropShadow_0_4"/>
<feBlend mode="normal" in="SourceGraphic" in2="effect1_dropShadow_0_4" result="shape"/>
</filter>
<filter id="filter22_d_0_4" x="inf" y="inf" width="-inf" height="-inf" filterUnits="userSpaceOnUse" color-interpolation-filters="sRGB">
<feFlood flood-opacity="0" result="BackgroundImageFix"/>
<feColorMatrix in="SourceAlpha" type="matrix" values="0 0 0 0 0 0 0 0 0 0 0 0 0 0 0 0 0 0 127 0" result="hardAlpha"/>
<feOffset dy="4"/>
<feGaussianBlur stdDeviation="15.75"/>
<feComposite in2="hardAlpha" operator="out"/>
<feColorMatrix type="matrix" values="0 0 0 0 0 0 0 0 0 0 0 0 0 0 0 0 0 0 0.25 0"/>
<feBlend mode="normal" in2="BackgroundImageFix" result="effect1_dropShadow_0_4"/>
<feBlend mode="normal" in="SourceGraphic" in2="effect1_dropShadow_0_4" result="shape"/>
</filter>
<filter id="filter23_d_0_4" x="inf" y="inf" width="-inf" height="-inf" filterUnits="userSpaceOnUse" color-interpolation-filters="sRGB">
<feFlood flood-opacity="0" result="BackgroundImageFix"/>
<feColorMatrix in="SourceAlpha" type="matrix" values="0 0 0 0 0 0 0 0 0 0 0 0 0 0 0 0 0 0 127 0" result="hardAlpha"/>
<feOffset dy="4"/>
<feGaussianBlur stdDeviation="15.75"/>
<feComposite in2="hardAlpha" operator="out"/>
<feColorMatrix type="matrix" values="0 0 0 0 0 0 0 0 0 0 0 0 0 0 0 0 0 0 0.25 0"/>
<feBlend mode="normal" in2="BackgroundImageFix" result="effect1_dropShadow_0_4"/>
<feBlend mode="normal" in="SourceGraphic" in2="effect1_dropShadow_0_4" result="shape"/>
</filter>
<filter id="filter24_d_0_4" x="920.458" y="570.459" width="1210.38" height="671.371" filterUnits="userSpaceOnUse" color-interpolation-filters="sRGB">
<feFlood flood-opacity="0" result="BackgroundImageFix"/>
<feColorMatrix in="SourceAlpha" type="matrix" values="0 0 0 0 0 0 0 0 0 0 0 0 0 0 0 0 0 0 127 0" result="hardAlpha"/>
<feOffset dy="4"/>
<feGaussianBlur stdDeviation="15.75"/>
<feComposite in2="hardAlpha" operator="out"/>
<feColorMatrix type="matrix" values="0 0 0 0 0 0 0 0 0 0 0 0 0 0 0 0 0 0 0.25 0"/>
<feBlend mode="normal" in2="BackgroundImageFix" result="effect1_dropShadow_0_4"/>
<feBlend mode="normal" in="SourceGraphic" in2="effect1_dropShadow_0_4" result="shape"/>
</filter>
<filter id="filter25_d_0_4" x="915.513" y="686.3" width="1254.01" height="540.599" filterUnits="userSpaceOnUse" color-interpolation-filters="sRGB">
<feFlood flood-opacity="0" result="BackgroundImageFix"/>
<feColorMatrix in="SourceAlpha" type="matrix" values="0 0 0 0 0 0 0 0 0 0 0 0 0 0 0 0 0 0 127 0" result="hardAlpha"/>
<feOffset dy="4"/>
<feGaussianBlur stdDeviation="15.75"/>
<feComposite in2="hardAlpha" operator="out"/>
<feColorMatrix type="matrix" values="0 0 0 0 0 0 0 0 0 0 0 0 0 0 0 0 0 0 0.25 0"/>
<feBlend mode="normal" in2="BackgroundImageFix" result="effect1_dropShadow_0_4"/>
<feBlend mode="normal" in="SourceGraphic" in2="effect1_dropShadow_0_4" result="shape"/>
</filter>
<linearGradient id="paint0_linear_0_4" x1="514.158" y1="1224" x2="514.158" y2="965.713" gradientUnits="userSpaceOnUse">
<stop stop-color="#721311"/>
<stop offset="1" stop-color="#E3302C"/>
</linearGradient>
<linearGradient id="paint1_linear_0_4" x1="507.707" y1="1156.34" x2="537.913" y2="899.964" gradientUnits="userSpaceOnUse">
<stop stop-color="#721311"/>
<stop offset="1" stop-color="#E3302C"/>
</linearGradient>
<linearGradient id="paint2_linear_0_4" x1="508.617" y1="1088.36" x2="568.464" y2="837.644" gradientUnits="userSpaceOnUse">
<stop stop-color="#721311"/>
<stop offset="1" stop-color="#E3302C"/>
</linearGradient>
<linearGradient id="paint3_linear_0_4" x1="516.887" y1="1020.92" x2="605.274" y2="779.454" gradientUnits="userSpaceOnUse">
<stop stop-color="#721311"/>
<stop offset="1" stop-color="#E3302C"/>
</linearGradient>
<linearGradient id="paint4_linear_0_4" x1="532.41" y1="954.883" x2="647.763" y2="725.99" gradientUnits="userSpaceOnUse">
<stop stop-color="#721311"/>
<stop offset="1" stop-color="#E3302C"/>
</linearGradient>
<linearGradient id="paint5_linear_0_4" x1="554.982" y1="891.077" x2="695.324" y2="677.76" gradientUnits="userSpaceOnUse">
<stop stop-color="#721311"/>
<stop offset="1" stop-color="#E3302C"/>
</linearGradient>
<linearGradient id="paint6_linear_0_4" x1="584.317" y1="830.319" x2="747.363" y2="635.203" gradientUnits="userSpaceOnUse">
<stop stop-color="#721311"/>
<stop offset="1" stop-color="#E3302C"/>
</linearGradient>
<linearGradient id="paint7_linear_0_4" x1="620.053" y1="773.383" x2="803.291" y2="598.701" gradientUnits="userSpaceOnUse">
<stop stop-color="#721311"/>
<stop offset="1" stop-color="#E3302C"/>
</linearGradient>
<linearGradient id="paint8_linear_0_4" x1="661.718" y1="720.992" x2="862.493" y2="568.591" gradientUnits="userSpaceOnUse">
<stop stop-color="#721311"/>
<stop offset="1" stop-color="#E3302C"/>
</linearGradient>
<linearGradient id="paint9_linear_0_4" x1="708.79" y1="673.812" x2="924.367" y2="545.173" gradientUnits="userSpaceOnUse">
<stop stop-color="#721311"/>
<stop offset="1" stop-color="#E3302C"/>
</linearGradient>
<linearGradient id="paint10_linear_0_4" x1="760.685" y1="632.444" x2="988.301" y2="528.719" gradientUnits="userSpaceOnUse">
<stop stop-color="#721311"/>
<stop offset="1" stop-color="#E3302C"/>
</linearGradient>
<linearGradient id="paint11_linear_0_4" x1="816.717" y1="597.415" x2="1053.61" y2="519.463" gradientUnits="userSpaceOnUse">
<stop stop-color="#721311"/>
<stop offset="1" stop-color="#E3302C"/>
</linearGradient>
<linearGradient id="paint12_linear_0_4" x1="876.196" y1="569.166" x2="1119.64" y2="517.591" gradientUnits="userSpaceOnUse">
<stop stop-color="#721311"/>
<stop offset="1" stop-color="#E3302C"/>
</linearGradient>
<linearGradient id="paint13_linear_0_4" x1="938.343" y1="548.059" x2="1185.61" y2="523.239" gradientUnits="userSpaceOnUse">
<stop stop-color="#721311"/>
<stop offset="1" stop-color="#E3302C"/>
</linearGradient>
<linearGradient id="paint14_linear_0_4" x1="1002.39" y1="534.363" x2="1250.8" y2="536.475" gradientUnits="userSpaceOnUse">
<stop stop-color="#721311"/>
<stop offset="1" stop-color="#E3302C"/>
</linearGradient>
<linearGradient id="paint15_linear_0_4" x1="1067.51" y1="528.253" x2="1314.36" y2="557.282" gradientUnits="userSpaceOnUse">
<stop stop-color="#721311"/>
<stop offset="1" stop-color="#E3302C"/>
</linearGradient>
<linearGradient id="paint16_linear_0_4" x1="1132.89" y1="529.804" x2="1375.48" y2="585.543" gradientUnits="userSpaceOnUse">
<stop stop-color="#721311"/>
<stop offset="1" stop-color="#E3302C"/>
</linearGradient>
<linearGradient id="paint17_linear_0_4" x1="1197.67" y1="538.998" x2="1433.3" y2="621.035" gradientUnits="userSpaceOnUse">
<stop stop-color="#721311"/>
<stop offset="1" stop-color="#E3302C"/>
</linearGradient>
<linearGradient id="paint18_linear_0_4" x1="1261.04" y1="555.717" x2="1486.95" y2="663.41" gradientUnits="userSpaceOnUse">
<stop stop-color="#721311"/>
<stop offset="1" stop-color="#E3302C"/>
</linearGradient>
<linearGradient id="paint19_linear_0_4" x1="1322.21" y1="579.753" x2="1535.65" y2="712.2" gradientUnits="userSpaceOnUse">
<stop stop-color="#721311"/>
<stop offset="1" stop-color="#E3302C"/>
</linearGradient>
<linearGradient id="paint20_linear_0_4" x1="1380.38" y1="610.792" x2="1578.59" y2="766.792" gradientUnits="userSpaceOnUse">
<stop stop-color="#721311"/>
<stop offset="1" stop-color="#E3302C"/>
</linearGradient>
<linearGradient id="paint21_linear_0_4" x1="1434.82" y1="648.445" x2="1615.07" y2="826.461" gradientUnits="userSpaceOnUse">
<stop stop-color="#721311"/>
<stop offset="1" stop-color="#E3302C"/>
</linearGradient>
<linearGradient id="paint22_linear_0_4" x1="1484.84" y1="692.232" x2="1644.49" y2="890.357" gradientUnits="userSpaceOnUse">
<stop stop-color="#721311"/>
<stop offset="1" stop-color="#E3302C"/>
</linearGradient>
<linearGradient id="paint23_linear_0_4" x1="1529.8" y1="741.596" x2="1666.37" y2="957.536" gradientUnits="userSpaceOnUse">
<stop stop-color="#721311"/>
<stop offset="1" stop-color="#E3302C"/>
</linearGradient>
<linearGradient id="paint24_linear_0_4" x1="1569.13" y1="795.911" x2="1680.38" y2="1026.98" gradientUnits="userSpaceOnUse">
<stop stop-color="#721311"/>
<stop offset="1" stop-color="#E3302C"/>
</linearGradient>
<linearGradient id="paint25_linear_0_4" x1="1602.33" y1="854.482" x2="1686.34" y2="1097.63" gradientUnits="userSpaceOnUse">
<stop stop-color="#721311"/>
<stop offset="1" stop-color="#E3302C"/>
</linearGradient>
</defs>
</svg>
