<svg width="1920" height="1080" viewBox="0 0 1920 1080" fill="none" xmlns="http://www.w3.org/2000/svg">
<g filter="url(#filter0_n_3262_1365)">
<path d="M0 -117V706.936C0 717.999 3.60968 728.683 10.5991 737.258C42.0859 775.888 138.747 889.077 232.864 944C337.715 1005.19 581.249 1068.31 621.73 1078.56C625.646 1079.55 629.523 1080 633.562 1080H1334.81C1339.97 1080 1344.97 1079.25 1349.87 1077.64C1388.93 1064.89 1575.95 1002.5 1680.63 944C1776.99 890.14 1876.58 776.299 1909.06 737.376C1916.26 728.736 1920 717.879 1920 706.626V-117C1920 -144.614 1897.61 -167 1870 -167H50C22.3858 -167 0 -144.614 0 -117Z" fill="#D9D9D9"/>
<path d="M0 -117V706.936C0 717.999 3.60968 728.683 10.5991 737.258C42.0859 775.888 138.747 889.077 232.864 944C337.715 1005.19 581.249 1068.31 621.73 1078.56C625.646 1079.55 629.523 1080 633.562 1080H1334.81C1339.97 1080 1344.97 1079.25 1349.87 1077.64C1388.93 1064.89 1575.95 1002.5 1680.63 944C1776.99 890.14 1876.58 776.299 1909.06 737.376C1916.26 728.736 1920 717.879 1920 706.626V-117C1920 -144.614 1897.61 -167 1870 -167H50C22.3858 -167 0 -144.614 0 -117Z" fill="url(#paint0_linear_3262_1365)"/>
</g>
<defs>
<filter id="filter0_n_3262_1365" x="0" y="-167" width="1920" height="1247" filterUnits="userSpaceOnUse" color-interpolation-filters="sRGB">
<feFlood flood-opacity="0" result="BackgroundImageFix"/>
<feBlend mode="normal" in="SourceGraphic" in2="BackgroundImageFix" result="shape"/>
<feTurbulence type="fractalNoise" baseFrequency="2 2" stitchTiles="stitch" numOctaves="3" result="noise" seed="7439" />
<feColorMatrix in="noise" type="luminanceToAlpha" result="alphaNoise" />
<feComponentTransfer in="alphaNoise" result="coloredNoise1">
<feFuncA type="discrete" tableValues="1 1 1 1 1 1 1 1 1 1 1 1 1 1 1 1 1 1 1 1 1 1 1 1 1 1 1 1 1 1 1 1 1 1 1 1 1 1 1 1 1 1 1 1 1 1 1 1 1 1 1 0 0 0 0 0 0 0 0 0 0 0 0 0 0 0 0 0 0 0 0 0 0 0 0 0 0 0 0 0 0 0 0 0 0 0 0 0 0 0 0 0 0 0 0 0 0 0 0 0 "/>
</feComponentTransfer>
<feComposite operator="in" in2="shape" in="coloredNoise1" result="noise1Clipped" />
<feFlood flood-color="rgba(0, 0, 0, 0.25)" result="color1Flood" />
<feComposite operator="in" in2="noise1Clipped" in="color1Flood" result="color1" />
<feMerge result="effect1_noise_3262_1365">
<feMergeNode in="shape" />
<feMergeNode in="color1" />
</feMerge>
</filter>
<linearGradient id="paint0_linear_3262_1365" x1="960" y1="8" x2="960" y2="1080" gradientUnits="userSpaceOnUse">
<stop stop-color="#CE0400"/>
<stop offset="1" stop-color="#4F0D0C"/>
</linearGradient>
</defs>
</svg>
