<svg preserveAspectRatio="none" width="100%" height="100%" overflow="visible" style="display: block;" viewBox="0 0 656.483 113.735" fill="none" xmlns="http://www.w3.org/2000/svg">
<path id="Vector 1" d="M0.274404 67.6611C0.274404 67.6611 0.274404 67.6611 0.274404 67.6611C-0.19786 68.2421 0.0214353 69.1596 0.320536 69.6804C0.485616 69.9901 0.713872 70.3138 1.00276 70.649C1.24891 70.937 1.4259 71.1298 1.67769 71.378C2.14738 71.8451 2.80787 72.3888 3.40149 72.8366C3.90203 73.224 4.45858 73.6211 5.06962 74.0268C6.39335 74.893 7.49703 75.5518 8.74811 76.2528C10.0107 76.9575 11.4041 77.6716 12.57 78.2585C17.931 80.8903 22.9687 82.9728 28.3358 85.0094C125.492 118.549 232.712 121.992 333.739 99.1292C357.97 93.4964 381.832 86.1479 405.012 77.0236C477.976 52.3424 546.074 5.26714 622.442 4.96179C633.756 5.12497 645.077 5.37247 656.483 5.29699C656.483 5.29699 656.483 5.29699 656.483 5.29699C645.147 3.97397 633.993 2.40488 622.714 0.981042C542.052 -7.00514 471.404 35.7218 397.924 58.2986C375.382 66.4833 352.345 73.2434 328.984 78.6748C231.644 100.63 128.453 103.379 29.5383 81.2049C24.0653 79.7957 18.8948 78.3527 13.3734 76.3752C12.1641 75.9505 10.7295 75.4013 9.42058 74.8613C8.12301 74.325 6.96652 73.8295 5.59186 73.131C4.95412 72.8086 4.36867 72.4943 3.83605 72.1887C3.21297 71.8245 2.52497 71.3675 2.01923 70.9836C1.75005 70.7775 1.55184 70.6241 1.28677 70.379C0.98105 70.0889 0.73337 69.8104 0.543405 69.5432C0.198947 69.0962 -0.112927 68.2991 0.274404 67.6611Z" fill="url(#paint0_linear_0_2041)"/>
<defs>
<linearGradient id="paint0_linear_0_2041" x1="119.8" y1="2.22218" x2="574.653" y2="70.8571" gradientUnits="userSpaceOnUse">
<stop stop-color="#FFD500"/>
<stop offset="0.397725" stop-color="#E2D48E"/>
<stop offset="0.560916" stop-color="#F6D948"/>
<stop offset="0.735577" stop-color="#E4C322"/>
<stop offset="0.837286" stop-color="#D7CC97"/>
<stop offset="1" stop-color="#BEA631"/>
</linearGradient>
</defs>
</svg>
